<svg width="100%" height="100%" viewBox="0 0 262 210" fill="none" xmlns="http://www.w3.org/2000/svg">
<g clip-path="url(#clip0_100_2)">
<path d="M75.936 45.4337L97.9617 52.3429C97.9617 52.3429 96.703 78.9332 137.608 92.9611C172.01 104.895 218.998 96.9391 227.598 69.3021C232.633 52.7617 222.774 32.2432 210.397 20.7278C199.28 10.2592 186.903 8.16547 178.512 6.69987C173.688 5.86238 138.657 0.418711 114.114 24.9152C107.611 31.1964 103.835 37.8963 101.528 42.2931L75.936 45.4337Z" fill="white"/>
<path d="M234.52 153.679C233.681 153.889 232.633 154.307 231.793 154.517C232.633 154.098 233.681 153.889 234.52 153.679Z" fill="#68D4BB"/>
<path d="M256.756 150.957V155.773L242.282 159.123L240.813 153.47C240.813 153.47 237.667 153.051 234.73 153.679C233.891 153.888 232.842 154.098 232.003 154.517C231.164 154.935 230.535 155.354 229.906 156.191C227.388 158.913 229.486 160.17 229.276 162.473C229.067 163.938 228.227 164.776 227.388 165.823C224.871 168.335 221.725 168.754 219.837 168.963C216.9 169.382 215.641 168.754 215.012 168.544C214.383 168.335 212.705 167.498 212.495 166.241C212.495 165.823 212.914 164.776 213.544 163.729C213.124 163.729 212.705 163.938 212.285 164.148C208.719 165.404 206.202 167.916 205.573 168.544C202.636 171.476 202.846 173.36 200.538 174.197C196.972 175.872 191.518 172.941 191.518 171.266C191.518 170.219 194.035 170.219 197.601 168.544C204.524 165.404 203.894 161.635 209.139 159.332C212.075 158.076 215.222 157.866 218.159 158.495C218.998 157.866 219.837 157.448 220.676 157.238C220.886 157.238 221.305 157.029 221.725 157.029C222.564 155.563 225.291 151.167 228.647 149.282C233.262 146.77 238.926 150.12 240.813 149.282C242.701 148.235 240.813 143.839 240.813 143.839L255.707 142.164V145.723C256.336 145.723 256.756 145.514 257.175 145.723C259.902 145.304 261.79 145.304 262 146.351C261.79 146.979 261.161 148.235 256.756 150.957Z" fill="#68D4BB"/>
<path d="M168.863 192.622C168.863 193.459 168.444 194.297 168.024 195.344C164.458 201.625 151.452 211.047 144.95 209.581C141.174 208.744 138.657 206.231 136.978 203.719C135.3 201.206 134.881 199.113 134.881 199.113C134.881 199.113 130.266 202.253 127.119 201.416C124.812 200.787 122.924 198.066 123.134 195.553C123.344 190.11 133.622 186.131 136.559 188.435C138.657 190.11 136.349 194.088 139.705 198.066C140.125 198.484 140.964 199.531 142.432 200.369C143.901 201.206 145.579 201.625 147.257 201.625C151.243 202.462 154.389 200.787 156.697 198.903C160.472 196.6 162.99 193.459 162.57 192.413C162.57 192.413 162.57 192.203 162.36 192.203C161.731 191.785 159.843 191.994 157.536 190.947C154.179 189.063 157.955 184.456 162.151 182.153C166.136 180.269 168.863 186.969 168.863 192.622Z" fill="#68D4BB"/>
<path d="M189.001 167.707C192.567 171.057 190.469 177.966 190.05 179.013C186.274 191.157 169.492 196.182 168.863 195.344C168.653 194.925 172.849 192.622 177.883 185.922C181.449 181.107 181.659 179.013 181.239 177.757C180.61 175.035 177.464 174.826 177.464 172.313C177.464 169.173 180.191 166.66 182.708 166.032C185.015 165.613 187.323 166.241 189.001 167.707Z" fill="#68D4BB"/>
<path d="M51.6029 74.7458C51.1834 82.7019 85.7951 140.698 94.1858 144.885C102.577 149.073 110.967 134.207 110.967 134.207C110.967 134.207 130.056 129.182 139.915 149.701C149.774 170.219 140.964 186.132 126.91 193.669C112.855 201.206 107.611 203.51 90.41 195.972C73.209 188.435 -2.93669 86.4706 5.69001e-05 64.0678C2.93681 41.665 20.9768 24.4966 27.8992 23.8684C34.8215 23.2403 48.4564 27.6371 54.1201 35.1745C59.7839 42.7119 69.0137 54.2274 62.0913 61.346C55.169 68.4646 51.6029 74.7458 51.6029 74.7458Z" fill="#FFBA4A"/>
<path d="M55.5886 71.8145C55.7983 73.6989 56.8472 75.7926 57.6862 77.8863C58.5253 79.7707 59.5741 81.8644 60.623 83.7487C62.7207 87.5174 64.8183 91.2861 66.916 95.0548C71.3211 102.592 75.936 109.92 80.5509 117.248C85.3756 124.367 90.2002 131.695 95.864 137.976C96.4933 138.814 97.3324 139.442 97.9617 140.07C98.591 140.489 99.43 140.907 100.059 140.907C101.528 141.117 103.416 140.698 104.884 139.651C108.031 137.557 110.757 133.998 112.855 130.648L113.275 129.811L113.904 129.601C118.729 128.554 123.344 128.973 127.749 130.229C132.154 131.695 136.139 134.417 139.286 137.767C142.223 141.117 144.53 145.304 145.998 149.492C147.467 153.679 148.516 158.076 148.725 162.682C148.935 167.079 147.886 171.685 146.208 175.872C144.32 180.06 141.593 183.619 138.237 186.55C134.881 189.482 130.895 191.575 127.119 193.669C123.344 195.553 119.358 197.647 114.953 198.485C110.548 199.322 105.933 198.694 101.737 197.438C99.6398 196.81 97.5421 195.972 95.6542 195.135C93.7663 194.297 91.4588 193.25 89.7807 191.994C86.2147 189.272 83.0681 186.341 80.1314 183.2C76.9849 180.06 74.0481 176.919 71.3211 173.779C59.7839 160.798 49.0858 147.188 38.8071 133.16C28.7383 119.133 19.089 104.686 10.6982 89.1924C8.60056 85.4237 6.71265 81.4457 5.03451 77.2582L4.19544 73.6989L3.1466 70.5583C2.72706 69.5115 2.51729 68.2552 2.30753 67.2084C2.09776 66.1615 1.88799 64.9053 1.67822 63.649C1.67822 63.0209 1.67822 62.3928 1.67822 61.7647V60.7178L1.88799 59.8804L2.51729 56.5304C3.1466 54.4367 3.7759 52.343 4.61497 50.2492C6.08335 46.0618 7.97126 41.8744 10.4885 38.1057C12.7959 34.337 15.7327 30.7777 18.6694 27.6371C21.8159 24.4965 25.1722 21.3559 29.7871 19.681C30.4164 19.4716 31.0457 19.2622 31.675 19.2622C32.3043 19.2622 32.9336 19.2622 33.5629 19.2622C34.8215 19.2622 35.8704 19.4716 37.129 19.681C39.4364 20.0997 41.5341 20.5184 43.6318 21.3559C47.8271 22.8215 52.0225 24.9152 55.3788 27.8465C56.2179 28.4746 57.0569 29.3121 57.896 30.1495C58.7351 30.987 59.3644 32.0339 59.9937 32.8714C61.2523 34.5464 62.5109 36.4307 63.7695 38.315C66.0769 42.0837 68.5942 45.8524 69.2235 50.4586C69.643 52.7617 69.4332 55.2742 68.1746 57.3679C66.916 59.4616 65.2379 60.7178 63.7695 62.3928C60.8327 65.1146 58.1058 68.4646 55.5886 71.8145ZM55.169 71.6052C57.4765 67.8365 59.9937 64.2772 62.9304 60.9272C64.189 59.2522 65.8672 57.5773 66.916 55.9023C67.7551 54.2273 67.9649 52.1336 67.5453 50.0399C66.7063 46.0618 64.3988 42.5025 61.8816 38.9432C60.623 37.2682 59.3644 35.5932 57.896 33.9182C57.2667 33.0808 56.6374 32.2433 56.0081 31.6151C55.3788 30.987 54.5397 30.1495 53.7006 29.5214C50.5541 27.009 46.5685 25.1246 42.5829 23.8684C40.695 23.2403 38.5974 22.8215 36.4997 22.4028C35.4508 22.1934 34.402 22.1934 33.5629 22.1934C33.1434 22.1934 32.5141 22.1934 32.0946 22.1934C31.675 22.1934 31.2555 22.4028 30.8359 22.4028C27.4797 23.8684 24.1234 26.7996 21.3964 29.7308C18.4596 32.8714 15.9424 36.2213 13.8448 39.7807C11.7471 43.34 9.85917 47.1087 8.60056 51.0867C7.97126 52.9711 7.34195 55.0648 6.92242 57.1585L6.29311 60.7178V61.346V61.9741V63.2303C6.71265 66.999 7.97126 70.9771 9.6494 74.9551C11.3275 78.9332 13.2155 82.7019 15.1034 86.4706C23.0745 101.545 32.5141 116.201 42.3732 130.229C47.1978 137.348 52.2323 144.257 57.4765 151.166C62.7207 158.076 67.9649 164.985 73.4188 171.476C76.1458 174.826 79.0825 177.966 82.0193 181.107C84.956 184.247 87.8928 187.388 91.2491 189.9C92.9272 191.157 94.6054 192.203 96.703 193.041C98.591 193.878 100.689 194.716 102.786 195.344C106.772 196.6 111.177 197.228 115.163 196.6C119.358 195.763 123.134 193.878 126.91 191.785C130.685 189.691 134.461 187.597 137.608 184.666C140.754 181.735 143.062 178.175 144.74 174.407C146.208 170.638 146.838 166.451 146.628 162.263C146.418 158.076 145.369 154.098 143.691 150.12C142.013 146.142 139.915 142.582 137.188 139.651C134.461 136.72 130.895 134.417 127.119 133.37C125.231 132.742 123.134 132.532 121.246 132.323C119.358 132.323 117.051 132.323 115.372 132.742L116.631 131.904C115.372 133.998 114.114 135.673 112.645 137.557C111.177 139.232 109.499 140.907 107.401 142.163C105.304 143.42 102.786 144.467 99.8496 144.048C98.591 143.838 97.1226 143.21 96.0737 142.373C95.0249 141.535 94.1858 140.698 93.5565 139.86C90.6198 136.51 88.1026 132.951 85.5854 129.392C83.0681 125.832 80.7607 122.064 78.4532 118.295C73.8384 110.758 69.643 103.22 65.4476 95.4736C63.35 91.4955 61.4621 87.7268 59.7839 83.7487C58.9448 81.8644 58.1058 79.7707 57.2667 77.677C56.2179 76.002 55.3788 74.1176 55.169 71.6052Z" fill="black"/>
<path d="M30.836 37.687C32.3044 41.4557 33.563 44.8057 34.8216 48.1556C35.4509 49.8306 35.6606 51.9243 36.9192 53.3899C37.9681 54.8555 39.6462 56.1117 41.3244 56.9492C43.0025 57.7867 44.6807 58.4148 46.5686 59.0429C48.2467 59.6711 50.1346 59.8804 51.8128 60.2992C55.3788 61.1367 58.9449 61.346 62.9305 61.7648L63.1402 62.1835C59.5742 64.4866 55.3788 65.1147 51.1835 64.696C49.0858 64.4866 46.9881 63.6491 45.1002 62.8116C44.0514 62.3929 43.2123 61.7648 42.3732 61.1367C41.5341 60.5086 40.6951 59.6711 40.0658 59.0429C38.5974 57.5773 37.3388 55.9024 36.0802 54.4368C34.6118 52.9712 33.1434 51.5056 31.8848 49.8306C30.836 48.1556 30.2067 46.0619 29.9969 43.9682C29.7871 41.8744 29.7871 39.7807 30.6262 37.8964L30.836 37.687Z" fill="black"/>
<path d="M24.5429 45.2241C27.0601 48.5741 28.7383 51.924 29.9969 55.4833C30.6262 57.3677 30.8359 59.252 31.8848 60.927C32.9336 62.602 34.1922 63.8582 35.8704 64.6957C37.5485 65.5332 39.4364 66.1613 41.1146 66.9988C42.7927 67.8363 44.4708 68.4644 46.149 69.0925C47.8271 69.93 49.5053 70.5581 51.1834 70.9769C52.8616 71.3956 54.3299 72.0237 55.7983 70.5581L56.2178 70.7675C56.2178 71.8143 55.169 73.0706 54.1202 73.4893C53.0713 73.9081 51.8127 74.3268 50.7639 74.3268C48.4564 74.3268 46.3588 73.9081 44.4708 73.28C42.5829 72.6518 40.695 71.605 39.0169 70.3487C37.3387 69.3019 35.6606 67.8363 34.402 66.3707C32.9336 64.6957 31.8848 63.0207 30.6262 61.5551C29.3676 60.0895 27.8992 58.6239 26.6406 56.9489C25.5917 55.274 24.9624 53.3896 24.3331 51.2959C23.9136 49.4116 23.7038 47.3178 23.9136 45.2241H24.5429Z" fill="black"/>
<path d="M101.528 163.101C100.059 163.519 98.8007 162.472 98.1714 161.635C97.5421 160.797 96.9128 159.751 96.9128 158.494C96.9128 157.448 97.5421 156.401 97.5421 155.354C97.5421 154.307 97.3323 153.469 96.9128 152.423C96.4932 151.376 96.2834 150.538 96.0737 149.491C96.0737 148.445 95.8639 147.398 96.2835 146.351C96.4932 145.304 97.1225 144.257 97.9616 143.42C98.3811 143.001 99.0104 142.582 99.6397 142.163C100.269 141.954 101.108 141.954 101.737 142.373V142.792C101.318 143.21 101.318 143.42 101.108 143.838C101.108 144.257 101.108 144.466 101.108 144.885C101.108 145.723 101.108 146.351 100.898 147.188C100.898 148.026 100.479 148.863 100.269 149.701C100.059 150.538 99.8495 151.376 99.43 152.423C99.0104 153.26 98.8007 154.307 99.0104 155.144C99.2202 155.982 100.059 156.819 100.479 157.657C100.898 158.494 100.898 159.123 101.108 159.96C101.318 160.798 101.108 161.426 101.737 162.472L101.528 163.101Z" fill="black"/>
<path d="M114.324 162.891C112.855 162.472 112.016 161.635 110.967 160.797C110.128 159.96 109.289 158.913 109.079 157.657C108.66 156.4 108.87 154.935 108.45 153.888C108.24 152.632 107.611 151.585 106.772 150.538C106.143 149.491 105.513 148.026 105.513 146.56C105.513 145.932 105.513 145.094 105.723 144.257C105.933 143.419 105.933 143.001 106.143 142.373C106.562 141.326 107.191 140.069 107.821 139.232C108.66 138.185 109.289 137.138 110.548 136.301L110.757 136.51C110.967 139.023 110.757 141.535 110.128 143.629C109.918 144.257 109.709 144.885 109.499 145.304C109.289 145.723 109.079 146.141 109.079 146.56C108.87 146.979 108.87 147.607 108.87 148.026C109.079 148.863 109.079 149.491 109.079 150.119C108.87 151.376 109.079 152.422 109.709 153.469C110.338 154.516 111.387 155.144 112.226 156.191C113.065 157.029 113.484 158.075 113.904 159.122C114.324 160.169 114.743 161.425 114.743 162.891H114.324Z" fill="black"/>
<path d="M262 149.91C260.322 151.376 258.434 152.632 256.336 153.888L257.175 152.632C257.385 154.307 257.385 155.772 257.595 157.447V158.704L256.127 159.122L252.56 160.169C251.302 160.379 250.043 160.797 248.994 160.797C246.477 161.216 243.96 161.216 241.653 161.635L240.813 161.844L240.604 161.216C240.394 160.169 240.184 159.332 239.974 158.285C239.765 157.238 239.555 156.401 239.135 155.563L239.765 155.982C236.408 155.772 232.633 156.61 230.745 158.494C230.325 158.913 229.906 159.541 229.696 159.96C229.696 160.379 229.696 160.588 229.906 161.216C230.115 161.844 230.535 163.519 230.325 164.775C230.115 166.241 229.276 167.288 228.437 168.125C227.808 168.754 226.969 169.8 226.13 170.219C225.291 170.847 224.242 171.266 223.193 171.475C222.144 171.894 221.095 171.894 220.256 172.103C219.417 172.103 218.368 172.313 217.319 172.103C216.271 172.103 215.222 171.894 214.173 171.475C213.544 171.266 213.124 171.057 212.705 170.638C212.285 170.428 211.866 170.01 211.446 169.591C211.026 169.172 210.607 168.544 210.607 167.707C210.607 167.079 210.817 166.45 211.026 166.032C211.656 164.985 212.495 164.566 213.544 164.357L213.753 164.775C213.124 165.404 212.495 166.032 212.495 166.66C212.285 167.288 212.705 167.707 213.124 167.916C213.334 168.125 213.753 168.125 213.963 168.335C214.383 168.544 214.802 168.544 215.012 168.544C215.641 168.544 216.48 168.544 217.11 168.544C217.949 168.335 218.578 168.335 219.417 168.125C220.256 167.916 220.886 167.707 221.725 167.497C222.354 167.288 222.983 166.869 223.613 166.45C224.242 166.032 224.661 165.613 225.291 164.985C225.71 164.357 226.13 163.938 226.13 163.729C226.34 163.31 226.34 163.1 226.13 162.054C225.92 161.216 225.71 159.332 226.34 158.076C226.969 156.819 227.808 156.191 228.647 155.354C230.535 154.097 232.633 153.679 234.52 153.679C236.408 153.679 238.296 153.888 240.184 154.097H240.604L240.813 154.516C241.023 155.354 241.233 156.401 241.653 157.238C241.862 158.076 242.282 159.122 242.492 159.96L241.443 159.332C243.75 158.494 246.058 157.447 248.365 156.819C249.624 156.401 250.673 156.191 251.931 155.772L255.497 154.935L254.029 156.61C254.239 154.935 254.239 153.469 254.448 151.794L254.658 150.748L255.287 150.538C257.385 149.701 259.693 149.073 261.79 148.654L262 149.91Z" fill="black"/>
<path d="M262 146.351C259.273 147.188 256.756 147.607 254.029 147.816L252.561 148.026L252.351 146.142C252.351 144.885 252.141 143.838 252.141 142.582L254.239 144.467C252.98 144.676 251.721 144.676 250.463 144.676C249.204 144.676 247.946 144.467 246.687 144.467C244.17 144.257 241.653 144.676 239.345 145.304L240.184 144.048C240.814 145.304 241.443 146.351 241.653 148.026C241.653 148.445 241.653 148.863 241.653 149.491C241.443 149.91 241.233 150.748 240.604 151.166C240.394 151.376 239.974 151.585 239.765 151.795C239.345 152.004 239.135 152.004 238.926 152.004C238.296 152.004 238.087 152.004 237.667 152.004C236.199 151.795 234.94 151.585 233.891 151.585C232.842 151.376 231.793 151.376 230.745 151.376C229.696 151.376 228.857 151.585 228.227 151.795C227.388 152.213 226.34 152.841 225.5 153.47C223.613 154.726 221.934 156.401 220.256 158.285L219.837 158.076C220.256 155.563 221.515 153.051 222.983 150.957C223.822 149.91 224.871 148.863 226.13 148.235C227.388 147.398 229.067 146.979 230.535 146.77C233.472 146.56 236.199 147.816 238.087 148.235H238.506C238.506 148.235 238.506 148.235 238.506 148.445C238.296 148.654 238.716 148.654 238.716 148.235C238.926 147.398 238.716 146.142 238.506 145.095L238.296 143.838H239.345C241.862 143.838 244.38 143.629 246.687 143.001C247.946 142.582 249.204 142.163 250.253 141.954C251.512 141.535 252.77 141.326 253.819 141.117L255.917 140.907V143.001C255.917 144.257 255.917 145.304 255.707 146.56L254.029 144.885C256.756 145.095 259.273 145.513 262 146.351Z" fill="black"/>
<path d="M137.817 185.922C138.657 186.341 139.496 186.76 140.335 187.388C141.174 188.016 141.803 188.853 142.432 189.9C142.642 190.528 142.852 191.156 142.852 191.994C142.852 192.413 142.852 192.831 142.642 193.041L142.223 193.669C141.803 194.506 141.174 195.553 140.544 196.391V194.506C141.174 195.763 141.593 197.019 142.432 198.066C143.271 199.113 144.53 199.95 145.998 200.369C147.257 200.788 148.725 200.578 149.984 199.95C151.243 199.531 152.291 198.903 153.34 198.066C154.389 197.438 155.438 196.391 156.277 195.553C157.326 194.716 158.165 193.669 159.004 192.622C160.682 190.528 161.941 188.225 163.409 185.503H163.829C164.668 188.644 164.038 191.994 162.36 194.925C160.682 197.856 158.165 199.95 155.018 201.416C153.55 202.044 151.872 202.672 149.984 202.463C148.306 202.463 146.628 201.834 145.159 201.416C143.691 200.788 142.223 200.159 140.964 199.322C139.496 198.484 138.237 197.647 137.188 196.181L136.559 195.344L137.188 194.088C137.608 193.25 138.027 192.622 138.447 191.994L138.866 191.575C139.076 191.366 138.866 191.366 139.076 191.366C139.076 191.156 139.076 190.947 139.076 190.738C139.076 190.11 138.657 189.272 138.447 188.435C138.027 187.597 137.608 186.76 137.398 185.922H137.817Z" fill="black"/>
<path d="M123.134 194.925C123.553 196.181 124.183 197.438 124.812 198.275C125.651 199.113 126.49 199.531 127.539 199.741C128.588 199.95 129.637 199.531 130.685 199.113C131.734 198.694 132.783 197.856 133.412 197.228L135.3 195.553L136.349 198.066C137.398 200.788 138.866 203.3 140.754 205.394C141.803 206.441 142.852 207.278 144.32 207.906C145.579 208.534 147.047 208.534 148.725 208.116C155.019 206.65 159.843 201.625 163.829 197.019C164.878 195.763 165.717 194.507 166.346 193.46C166.556 192.832 166.766 192.203 166.766 191.994C166.766 191.366 166.766 190.528 166.556 189.9C166.346 188.435 165.926 186.969 165.507 185.713C165.087 184.457 164.248 183.41 163.829 183.41C163.619 183.41 163.409 183.2 162.99 183.41C162.36 183.619 161.731 184.038 161.102 184.457C159.843 185.294 158.794 186.132 157.955 187.179C157.536 187.807 157.326 188.435 157.326 188.853C157.326 189.272 157.536 189.482 158.165 189.9C159.424 190.738 160.892 191.575 162.36 191.994V192.413C160.472 192.832 158.794 192.203 157.326 191.785C156.487 191.575 155.228 190.738 155.019 189.482C154.809 188.225 155.019 187.179 155.438 186.132C156.277 184.247 157.536 182.991 158.794 181.735C159.424 181.107 160.263 180.688 161.102 180.06C162.151 179.432 163.619 179.013 165.087 179.432C166.556 179.85 167.395 180.688 168.024 181.525C168.653 182.363 169.283 183.2 169.493 184.038C170.122 185.713 170.541 187.597 170.751 189.272C170.751 190.11 170.961 190.947 170.751 191.994C170.751 193.25 170.122 194.297 169.702 195.135C168.653 196.81 167.605 198.066 166.346 199.322C163.829 201.835 161.102 203.51 158.165 205.184C155.228 206.859 152.292 208.116 148.935 209.163C147.257 209.581 145.579 210 143.691 209.581C142.013 209.372 140.125 208.534 138.657 207.488C137.188 206.441 135.93 204.975 134.881 203.51C133.832 202.044 133.203 200.369 132.783 198.694L135.72 199.531C134.461 200.578 133.203 201.206 131.734 201.625C130.266 202.044 128.588 202.253 126.91 201.835C125.231 201.416 123.973 200.16 123.344 198.903C122.714 197.438 122.505 196.181 122.714 194.716L123.134 194.925Z" fill="black"/>
<path d="M168.863 194.506C171.171 193.041 173.478 191.994 175.576 190.528C177.673 189.272 179.771 188.016 181.869 186.76C183.966 185.503 186.274 184.247 187.532 182.153C189.001 180.06 189.63 177.547 189.63 175.035C189.63 172.522 189.001 170.219 187.952 168.963C186.903 167.707 184.806 167.288 183.127 167.707C181.449 168.125 179.561 169.382 179.142 171.057C178.512 172.732 179.352 175.244 181.239 176.919L181.03 177.338C178.303 176.919 175.576 174.197 175.786 170.638C175.786 168.963 176.625 167.288 177.673 166.032C178.722 164.776 180.191 163.938 181.869 163.31C185.225 162.263 189.001 163.519 191.099 166.451C192.986 169.382 192.567 172.732 191.938 175.244C191.099 177.757 190.05 180.269 188.791 182.782C187.532 185.085 186.064 187.597 183.966 189.481C181.869 191.366 179.352 192.622 176.834 193.459C174.317 194.297 171.59 194.925 168.863 194.716V194.506Z" fill="black"/>
<path d="M168.863 186.55C169.492 185.503 170.122 184.875 170.751 184.038C171.38 183.41 172.219 182.782 173.059 182.572C173.898 182.363 175.156 182.363 175.786 181.735C176.625 181.316 177.044 180.479 177.464 179.432C178.093 177.547 178.512 175.663 179.561 174.197C180.61 172.732 182.079 171.476 184.176 170.429L184.596 170.638C184.806 172.941 184.176 175.035 183.337 176.71C182.918 177.547 182.288 178.385 181.659 179.013C181.239 179.432 181.03 179.85 180.61 180.06C180.191 180.269 179.771 180.688 179.142 180.897C178.093 181.316 177.254 181.944 176.625 182.572C175.995 183.2 175.576 184.457 174.946 185.294C174.317 186.132 173.268 186.55 172.219 186.76C171.171 186.969 170.122 186.969 168.863 186.76V186.55Z" fill="black"/>
<path d="M191.308 170.429C192.986 169.591 194.455 168.754 195.923 168.125C197.601 167.497 198.65 166.869 199.909 166.241C201.167 165.613 202.636 164.566 203.685 163.31C204.733 161.844 205.573 160.379 206.831 158.913C208.09 157.447 209.978 156.401 211.866 155.982C213.754 155.563 215.851 155.144 217.739 155.563C219.627 155.982 221.515 156.819 223.193 158.285C224.661 159.541 225.71 161.635 225.71 163.519L225.291 163.729C224.032 162.472 222.774 161.635 221.515 161.007C220.256 160.379 218.788 160.169 217.32 159.96C214.383 159.541 211.446 159.751 208.509 160.797C207.041 161.426 205.782 162.682 205.153 164.147C204.314 165.613 203.894 167.707 202.426 169.172C200.958 170.638 198.86 171.266 197.182 171.475C195.294 171.685 193.616 171.894 191.728 171.057L191.308 170.429Z" fill="black"/>
<path d="M191.308 176.919C192.777 176.291 194.245 176.081 195.504 175.663C196.762 175.453 197.811 175.035 198.86 174.616C199.909 174.406 201.377 173.988 202.216 172.941C203.055 171.894 203.265 170.428 203.894 168.963C204.314 167.497 205.363 165.822 206.621 164.775C208.09 163.728 209.558 162.891 211.236 162.682C214.383 162.263 217.529 162.891 220.256 164.775V165.194C217.32 166.241 214.593 166.45 212.285 167.078C211.027 167.288 209.978 167.497 208.929 168.125C207.88 168.544 207.041 169.172 205.992 170.219C204.943 171.057 204.314 172.522 203.475 173.778C202.846 175.035 202.216 176.71 200.748 177.756C199.28 178.803 197.601 179.013 195.923 178.803C194.245 178.594 192.777 178.175 191.518 177.128L191.308 176.919Z" fill="black"/>
<path d="M124.183 147.817C124.392 148.235 125.022 148.654 125.231 149.073C125.441 149.282 125.441 149.701 125.441 150.12C125.441 150.538 125.022 150.957 124.602 151.167C123.553 151.585 122.924 150.957 122.505 150.748L121.036 149.701C120.617 149.282 120.197 148.864 119.987 148.235C119.778 147.607 119.778 146.56 120.826 145.932C121.875 145.304 122.924 145.723 123.134 146.351C123.763 146.77 123.973 147.398 124.183 147.817ZM123.973 147.817C123.763 147.398 123.134 147.189 122.714 147.398C122.295 147.398 122.085 147.607 122.295 147.607C122.505 147.398 122.295 147.607 122.295 147.817C122.295 148.026 122.295 148.445 122.295 149.073C122.295 149.492 122.714 149.91 123.134 150.12C123.553 150.329 123.973 149.91 123.973 149.701C123.763 149.701 123.973 149.701 124.183 149.073C124.183 148.864 124.392 148.235 123.973 147.817Z" fill="black"/>
<path d="M137.188 159.541C137.398 159.96 137.818 160.379 138.027 161.007C138.237 161.635 138.027 162.682 137.188 162.891C136.349 163.31 135.72 162.682 135.3 162.472C134.881 162.054 134.461 161.844 134.042 161.426C133.622 161.007 133.203 160.379 133.203 159.751C133.203 159.122 133.412 158.076 134.251 157.657C135.091 157.238 136.139 157.447 136.559 158.076C136.978 158.494 136.978 159.122 137.188 159.541ZM136.978 159.541C136.769 159.122 136.139 158.913 135.72 159.122C135.3 159.332 135.091 159.332 135.3 159.332C135.3 159.332 135.3 159.332 135.091 159.541C135.091 159.751 134.881 160.169 134.881 160.588C134.881 161.007 135.091 161.426 135.51 161.635C135.93 161.844 136.349 161.426 136.349 161.216C136.349 161.007 136.349 161.007 136.769 160.797C137.188 160.588 137.398 159.96 136.978 159.541Z" fill="black"/>
<path d="M134.461 150.329C134.461 150.747 134.671 151.166 134.461 151.794C134.251 152.422 133.622 152.632 132.993 152.632C132.364 152.422 132.154 152.004 131.944 151.585C131.734 151.166 131.524 150.957 131.315 150.538C130.895 149.491 131.944 148.026 133.203 148.235C133.832 148.235 134.461 148.654 134.671 149.282C134.671 149.491 134.461 149.91 134.461 150.329ZM134.251 150.329C134.251 149.91 133.832 149.701 133.412 149.91C132.993 150.119 132.993 150.119 132.993 150.119C132.993 150.119 132.783 149.91 132.363 150.329C132.154 150.538 132.154 150.957 132.363 150.957C132.573 151.166 132.993 150.747 132.993 150.747C132.993 150.538 133.203 150.747 133.412 150.747C133.832 150.957 134.251 150.747 134.251 150.329Z" fill="black"/>
<path d="M42.5829 31.6151C42.7927 32.0338 43.2122 32.2432 43.6317 32.6619C43.8415 32.8713 43.8415 33.2901 43.8415 33.7088C43.8415 34.1275 43.422 34.5463 43.0024 34.7557C41.9536 35.1744 41.5341 34.5463 41.1145 34.3369C40.695 34.1275 40.2755 33.7088 39.8559 33.4994C39.4364 33.2901 39.0169 32.6619 38.8071 32.2432C38.5973 31.6151 38.5973 30.7776 39.4364 29.9401C40.4852 29.312 41.3243 29.7307 41.5341 30.3589C42.3731 30.5682 42.3731 31.1963 42.5829 31.6151ZM42.5829 31.6151C42.3731 31.1963 41.7438 31.1963 41.3243 31.1963C40.9048 31.4057 40.9048 31.6151 41.1145 31.4057C41.3243 31.1963 41.1145 31.1963 41.1145 31.4057C41.1145 31.6151 41.1145 32.0338 41.1145 32.4526C41.1145 32.8713 41.3243 33.2901 41.7438 33.2901C42.1634 33.4994 42.5829 33.0807 42.3731 32.8713C42.1634 32.8713 42.3731 32.8713 42.5829 32.4526C42.5829 32.4526 42.7927 32.0338 42.5829 31.6151Z" fill="black"/>
<path d="M52.0225 32.662C52.2323 33.0807 52.6518 33.2901 53.0713 33.7088C53.2811 33.9182 53.2811 34.3369 53.2811 34.7557C53.2811 35.1744 52.8616 35.5932 52.442 35.8025C51.3932 36.2213 50.9736 35.5932 50.5541 35.3838C50.1346 35.1744 49.715 34.7557 49.2955 34.5463C48.876 34.3369 48.4564 33.7088 48.2467 33.2901C48.0369 32.662 48.0369 31.8245 48.876 30.987C49.9248 30.3589 50.7639 30.7776 50.9736 31.4057C51.6029 31.8245 51.8127 32.2432 52.0225 32.662ZM51.8127 32.8713C51.603 32.4526 50.9736 32.4526 50.5541 32.4526C50.1346 32.662 50.1346 32.8713 50.3443 32.662C50.5541 32.4526 50.3443 32.4526 50.3443 32.662C50.3443 32.8713 50.3443 33.2901 50.3443 33.7088C50.3443 34.1276 50.5541 34.5463 50.9736 34.5463C51.3932 34.7557 51.8127 34.3369 51.603 34.1276C51.3932 34.1276 51.603 34.1276 51.8127 33.7088C52.0225 33.7088 52.0225 33.0807 51.8127 32.8713Z" fill="black"/>
<path d="M41.3244 39.9901C41.5341 40.4088 41.9537 40.6182 42.3732 41.0369C42.583 41.2463 42.583 41.6651 42.583 42.0838C42.583 42.5025 42.1634 42.9213 41.7439 43.1307C40.6951 43.5494 40.2755 42.9213 39.856 42.7119C39.4365 42.5025 39.0169 42.0838 38.5974 41.8744C38.1778 41.6651 37.7583 41.0369 37.5485 40.6182C37.3388 39.9901 37.3388 39.1526 38.1778 38.3151C39.2267 37.687 40.0658 38.1057 40.2755 38.7339C40.9048 39.1526 41.1146 39.5713 41.3244 39.9901ZM41.1146 39.9901C40.9048 39.7807 40.2755 39.5713 39.856 39.7807C39.4365 39.9901 39.4365 40.1995 39.6462 39.9901C39.856 39.7807 39.6462 39.7807 39.6462 39.9901C39.6462 40.1995 39.6462 40.6182 39.6462 41.0369C39.6462 41.4557 39.856 41.8744 40.2755 41.8744C40.6951 42.0838 41.1146 41.6651 40.9048 41.4557C40.6951 41.4557 40.9048 41.4557 41.1146 41.0369C41.3244 40.8276 41.3244 40.4088 41.1146 39.9901Z" fill="black"/>
<path d="M45.7294 46.4803C45.9392 46.8991 46.3587 47.1084 46.7782 47.5272C46.988 47.7365 46.988 48.1553 46.988 48.574C46.988 48.9928 46.5685 49.4115 46.1489 49.6209C45.1001 50.0396 44.6806 49.4115 44.261 49.2021C43.8415 48.9928 43.4219 48.574 43.0024 48.3647C42.5829 48.1553 42.1633 47.5272 41.9536 47.1084C41.7438 46.4803 41.7438 45.6428 42.5829 44.8053C43.6317 44.1772 44.4708 44.596 44.6806 45.2241C45.5196 45.6428 45.5196 46.2709 45.7294 46.4803ZM45.5196 46.6897C45.3099 46.2709 44.6806 46.2709 44.261 46.2709C43.8415 46.4803 43.8415 46.6897 44.0513 46.4803C44.261 46.2709 44.0513 46.2709 44.0513 46.4803C44.0513 46.6897 44.0513 47.1084 44.0513 47.5272C44.0513 47.9459 44.261 48.3647 44.6806 48.3647C45.1001 48.574 45.5196 48.1553 45.3099 47.9459C45.1001 47.9459 45.3099 47.9459 45.5196 47.5272C45.7294 47.5272 45.9392 47.1084 45.5196 46.6897Z" fill="black"/>
<path d="M53.9104 51.2962C54.1202 51.715 54.5397 51.9243 54.9593 52.3431C55.169 52.5525 55.169 52.9712 55.169 53.39C55.169 53.8087 54.7495 54.2274 54.33 54.4368C53.2811 54.8556 52.8616 54.2274 52.4421 54.0181C52.0225 53.8087 51.603 53.39 51.1834 53.1806C50.7639 52.9712 50.3444 52.3431 50.1346 51.9243C49.9248 51.2962 49.9248 50.4587 50.7639 49.6213C51.8127 48.9931 52.6518 49.4119 52.8616 50.04C53.7007 50.2494 53.7007 50.8775 53.9104 51.2962ZM53.7007 51.2962C53.4909 50.8775 52.8616 50.8775 52.4421 50.8775C52.0225 51.0869 52.0225 51.2962 52.2323 51.0869C52.4421 50.8775 52.2323 50.8775 52.2323 51.0869C52.2323 51.2962 52.2323 51.715 52.2323 52.1337C52.2323 52.5525 52.4421 52.9712 52.8616 52.9712C53.2811 53.1806 53.7007 52.7618 53.4909 52.5525C53.2811 52.5525 53.4909 52.5525 53.7007 52.1337C53.9104 52.1337 54.1202 51.715 53.7007 51.2962Z" fill="black"/>
<path d="M60.8327 49.4115C61.0424 49.8302 61.462 50.0396 61.8815 50.4583C62.0913 50.6677 62.0913 51.0864 62.0913 51.5052C62.0913 51.9239 61.6717 52.3427 61.2522 52.552C60.2034 52.9708 59.7838 52.3427 59.3643 52.1333C58.9448 51.9239 58.5252 51.5052 58.1057 51.2958C57.6861 51.0864 57.2666 50.4583 57.0568 50.0396C56.8471 49.4115 56.8471 48.574 57.6861 47.7365C58.735 47.1084 59.5741 47.5271 59.7838 48.1552C60.6229 48.574 60.6229 49.2021 60.8327 49.4115ZM60.8327 49.6208C60.6229 49.2021 59.9936 49.2021 59.5741 49.2021C59.1545 49.4115 59.1545 49.6208 59.3643 49.4115C59.5741 49.2021 59.3643 49.2021 59.3643 49.4115C59.3643 49.6208 59.3643 50.0396 59.3643 50.4583C59.3643 50.8771 59.5741 51.2958 59.9936 51.2958C60.4131 51.5052 60.8327 51.0864 60.6229 50.8771C60.4131 50.8771 60.6229 50.8771 60.8327 50.4583C60.8327 50.4583 61.0424 49.8302 60.8327 49.6208Z" fill="black"/>
<path d="M59.3644 39.9901C59.5742 40.4088 59.9937 40.6182 60.4132 41.0369C60.623 41.2463 60.623 41.6651 60.623 42.0838C60.623 42.5025 60.2035 42.9213 59.7839 43.1307C58.7351 43.5494 58.3156 42.9213 57.896 42.7119C57.4765 42.5025 57.057 42.0838 56.6374 41.8744C56.2179 41.6651 55.7984 41.0369 55.5886 40.6182C55.3788 39.9901 55.3788 39.1526 56.2179 38.3151C57.2667 37.687 58.1058 38.1057 58.3156 38.7339C59.1546 39.1526 59.1546 39.5713 59.3644 39.9901ZM59.1546 39.9901C58.9449 39.5713 58.3156 39.5713 57.896 39.5713C57.4765 39.7807 57.4765 39.9901 57.6863 39.7807C57.896 39.5713 57.6863 39.5713 57.6863 39.7807C57.6863 39.9901 57.6863 40.4088 57.6863 40.8276C57.6863 41.2463 57.896 41.6651 58.3156 41.6651C58.7351 41.8744 59.1546 41.4557 58.9449 41.2463C58.7351 41.2463 58.9449 41.2463 59.1546 40.8276C59.3644 40.8276 59.5742 40.4088 59.1546 39.9901Z" fill="black"/>
<path d="M76.1457 40.618C80.1313 41.6649 83.9071 42.7118 87.4732 43.5493C91.249 44.3867 94.8151 45.2242 98.1714 46.2711L99.0104 46.4805V47.318C99.0104 50.4585 100.059 54.0179 101.528 56.9491C102.996 60.0896 104.674 63.0208 106.982 65.5333C111.387 70.7676 116.841 74.955 122.924 78.0956C129.007 81.4456 135.51 83.958 142.013 85.8424C148.725 87.7267 155.438 88.983 162.36 89.8204C176.205 91.0767 190.469 90.2392 203.685 85.2143C210.187 82.7018 216.271 78.9331 220.886 73.6988C225.5 68.4645 227.808 61.7646 227.808 54.8553C227.808 51.5054 227.179 48.1554 226.339 44.8055C225.291 41.4555 224.032 38.315 222.564 35.3838C219.417 29.312 215.222 23.6589 210.187 19.0527C205.153 14.4466 199.279 10.8872 192.777 8.79352C189.63 7.74666 186.274 6.90917 182.918 6.28106C181.239 6.07168 179.561 5.65294 177.673 5.44357C175.995 5.2342 174.317 5.02482 172.639 4.81545C159.004 3.76859 144.95 5.44357 132.364 10.8872C119.777 16.3309 109.079 25.962 102.367 38.1056L102.157 38.7337H101.528C97.3323 39.1524 93.3467 39.3618 89.1513 39.5712C84.956 39.9899 80.5509 40.1993 76.1457 40.618ZM75.7262 40.618C79.7118 39.9899 83.9071 39.3618 88.1025 38.5243C92.2979 37.6868 96.9127 37.0587 101.318 36.4306L100.479 37.0587C103.625 30.5682 107.821 24.7058 112.855 19.4715C118.099 14.4466 124.183 10.2591 130.685 7.11854C137.188 3.97797 144.32 1.88425 151.452 0.837387C155.018 0.209271 158.584 -0.000100747 162.151 -0.209473C165.717 -0.209473 169.283 -0.209473 173.058 0.209271C174.946 0.418643 176.625 0.628015 178.512 0.837387C180.191 1.04676 182.078 1.4655 183.757 1.88425C187.323 2.51236 190.889 3.55922 194.245 4.81545C201.167 7.32792 207.46 11.0966 212.705 16.3309C217.949 21.3558 222.144 27.4276 225.291 33.9181C226.759 37.2681 228.018 40.618 228.857 44.1774C229.696 47.7367 230.115 51.296 229.906 55.0647C229.906 58.624 229.066 62.3927 227.598 65.7427C226.13 69.0926 224.242 72.2332 221.725 74.955C216.9 80.3987 210.607 83.958 203.894 86.6799C190.679 91.9142 176.205 93.7985 161.941 93.1704C147.677 92.5423 133.412 88.7736 120.826 81.6549C114.533 78.0956 108.66 73.4894 104.255 67.8364C101.947 64.9052 100.059 61.7646 98.8007 58.4147C97.542 55.0647 96.4932 51.5054 96.703 47.5273L97.542 48.5742C93.7662 47.318 89.9904 45.8523 86.2146 44.5961C82.6485 43.1305 79.2922 41.8743 75.7262 40.618Z" fill="black"/>
<path d="M49.7151 98.1952C50.9737 98.4046 52.2323 97.9858 53.2811 97.5671C54.33 96.939 55.3788 96.3109 56.2179 95.4734C57.0569 94.6359 57.896 93.3797 58.9449 92.9609C59.5742 92.7516 60.2035 92.3328 60.8328 92.3328C61.2523 92.3328 61.4621 92.1234 61.8816 92.1234C62.0914 92.1234 62.3011 92.1234 62.3011 92.1234C62.3011 92.1234 62.5109 92.1234 62.5109 92.3328C62.5109 92.5422 62.7207 92.7515 62.7207 92.5422L62.5109 92.1234C62.5109 92.1234 62.5109 92.1234 62.7207 91.9141C62.7207 91.9141 63.1402 92.1234 63.1402 92.3328C63.1402 92.7515 63.1402 92.7516 63.1402 92.9609C63.1402 93.1703 63.1402 93.3797 62.9304 93.589C62.7207 94.0078 62.7207 94.4265 62.5109 94.6359C62.0914 95.264 61.6718 95.8921 61.2523 96.5202C60.4132 97.5671 58.9449 97.9858 57.6862 98.614C56.4276 99.2421 54.9593 99.6608 53.4909 99.8702C52.0225 100.08 50.3444 99.8702 49.2955 98.8233L49.7151 98.1952Z" fill="black"/>
<path d="M57.2667 116.411C58.3156 115.364 59.5742 114.526 60.623 113.48C61.8816 112.642 63.1402 111.805 64.3988 111.177C65.6574 110.548 66.4965 109.502 67.7551 109.083C69.0137 108.664 70.0626 108.036 71.9505 107.617L72.37 107.827C72.37 109.711 71.5309 111.177 70.2723 112.433C69.0137 113.689 67.3356 113.898 65.8672 114.317C64.3988 114.736 63.1402 114.945 61.6718 115.364C60.2035 115.783 58.9449 116.201 57.4765 116.83L57.2667 116.411Z" fill="black"/>
<path d="M69.4332 134.836C70.9016 134.417 72.37 133.998 73.6286 133.161C74.8872 132.532 76.1458 131.695 77.1946 131.067C78.2435 130.229 78.8728 128.973 79.9216 128.345C80.5509 127.926 80.9705 127.717 81.39 127.508C81.8095 127.089 82.4388 126.67 82.8584 125.833H83.2779C83.9072 126.67 84.117 127.508 84.117 128.554C83.9072 129.601 83.4877 130.439 83.0681 131.276C82.2291 132.532 80.5509 133.37 78.8728 133.998C77.4044 134.626 75.7263 135.045 74.2579 135.254C72.5798 135.464 71.1114 135.464 69.643 135.254L69.4332 134.836Z" fill="black"/>
</g>
<defs>
<clipPath id="clip0_100_2">
<rect width="262" height="210" fill="white"/>
</clipPath>
</defs>
</svg>
