<svg width="337" height="248" viewBox="0 0 337 248" fill="none" xmlns="http://www.w3.org/2000/svg">
<g clip-path="url(#clip0_35_204)">
<path d="M295.431 178.768C318.18 118.604 271.801 45.3212 191.842 15.0853C111.883 -15.1506 28.6218 9.11036 5.8733 69.2737C-16.8752 129.437 29.5032 202.72 109.462 232.956C189.422 263.192 272.683 238.931 295.431 178.768Z" fill="#FFBA4A"/>
<path d="M93.7073 84.8096C93.9545 87.035 95.1908 89.5075 96.1798 91.9801C97.1688 94.2054 98.405 96.678 99.6413 98.9034C102.114 103.354 104.586 107.805 107.059 112.255C112.251 121.157 117.69 129.811 123.13 138.465C128.817 146.871 134.503 155.525 141.179 162.943C141.921 163.932 142.91 164.674 143.652 165.416C144.393 165.91 145.382 166.405 146.124 166.405C147.855 166.652 150.08 166.158 151.811 164.921C155.519 162.449 158.734 158.245 161.206 154.289L161.701 153.3L162.442 153.053C168.129 151.817 173.569 152.311 178.761 153.795C183.953 155.525 188.651 158.74 192.36 162.696C195.821 166.652 198.541 171.597 200.271 176.542C202.002 181.488 203.238 186.68 203.486 192.12C203.733 197.312 202.497 202.752 200.519 207.697C198.293 212.642 195.079 216.846 191.123 220.307C187.167 223.769 182.47 226.241 178.019 228.714C173.569 230.939 168.871 233.412 163.679 234.401C158.486 235.39 153.047 234.648 148.102 233.165C145.63 232.423 143.157 231.434 140.932 230.445C138.707 229.456 135.987 228.219 134.009 226.736C129.806 223.521 126.097 220.06 122.635 216.351C118.927 212.642 115.465 208.933 112.251 205.224C98.8995 189.4 86.2898 173.328 74.1746 156.515C62.3067 139.948 50.9333 122.887 41.0433 104.59C38.5708 100.14 36.3456 95.4417 34.3676 90.4966L32.8841 86.7877L31.6479 83.0788C31.1534 81.8425 30.9061 80.359 30.6589 79.1227C30.4116 77.8864 30.1644 76.4028 29.9171 74.9193C29.9171 74.1775 29.9171 73.4357 29.9171 72.694V71.4577L30.1644 70.4687L30.9061 66.5125C31.6479 64.0399 32.1424 61.3201 33.1313 58.8475C34.8621 53.9023 37.0873 48.9572 40.0543 44.5065C42.774 40.0559 46.2355 35.8525 49.697 32.1436C53.4057 28.4348 57.3617 24.7259 62.8012 22.7478C63.5429 22.5006 64.2847 22.2533 65.0264 22.2533C65.7682 22.2533 66.5099 22.2533 67.2517 22.2533C68.7352 22.2533 69.9714 22.5006 71.4549 22.7478C74.1746 23.2423 76.6471 23.7368 79.1196 24.7259C84.0646 26.4567 89.0096 28.9293 92.9655 32.3909C93.9545 33.1327 94.9435 34.1217 95.9325 35.1107C96.9215 36.0998 97.6633 37.336 98.405 38.3251C99.8885 40.3031 101.372 42.5285 102.855 44.7538C105.575 49.2044 108.542 53.6551 109.284 59.0948C109.778 61.8146 109.531 64.7817 108.048 67.2543C106.564 69.7269 104.586 71.2104 102.855 73.1885C99.8885 76.8974 96.6743 80.8535 93.7073 84.8096ZM93.2128 84.5624C95.9325 80.1117 98.8995 75.9083 102.361 71.9522C103.844 69.9741 105.822 67.9961 107.059 66.018C108.048 64.0399 108.295 61.5674 107.8 59.0948C106.811 54.3969 104.092 50.1935 101.125 45.9901C99.6413 44.012 98.1578 42.034 96.427 40.0559C95.6853 39.0669 94.9435 38.0778 94.2018 37.336C93.46 36.5943 92.471 35.6052 91.482 34.8635C87.7733 31.8964 83.0756 29.671 78.3779 28.1875C76.1526 27.4457 73.6801 26.9512 71.2076 26.4567C69.9714 26.2094 68.7352 26.2094 67.7462 26.2094C67.2517 26.2094 66.5099 26.2094 66.0154 26.2094C65.5209 26.2094 65.0264 26.4567 64.5319 26.4567C60.576 28.1875 56.62 31.6491 53.4057 35.1107C49.9443 38.8196 46.9773 42.7757 44.5048 46.9791C42.0323 51.1825 39.8071 55.6332 38.3236 60.3311C37.5818 62.5564 36.8401 65.029 36.3456 67.5016L35.6038 71.7049L35.3566 72.694V73.4358V74.9193C35.8511 79.3699 37.3346 84.0679 39.3126 88.7658C41.2906 93.4637 43.5158 97.9143 45.741 102.365C55.1365 120.168 66.2627 137.476 77.8834 154.042C83.5701 162.449 89.5041 170.608 95.6853 178.768C101.866 186.927 108.048 195.087 114.476 202.752C117.69 206.708 121.152 210.417 124.613 214.126C128.075 217.835 131.536 221.543 135.492 224.511C137.47 225.994 139.448 227.23 141.921 228.219C144.146 229.208 146.618 230.197 149.091 230.939C153.789 232.423 158.981 233.165 163.679 232.423C168.624 231.434 173.074 229.208 177.525 226.736C181.975 224.263 186.426 221.791 190.134 218.329C193.843 214.867 196.563 210.664 198.541 206.213C200.271 201.763 201.013 196.818 200.766 191.872C200.519 186.927 199.283 182.229 197.305 177.531C195.327 172.834 192.854 168.63 189.64 165.169C186.426 161.707 182.222 158.987 177.772 157.751C175.547 157.009 173.074 156.762 170.849 156.515C168.624 156.515 165.904 156.515 163.926 157.009L165.409 156.02C163.926 158.493 162.442 160.471 160.712 162.696C158.981 164.674 157.003 166.652 154.53 168.136C152.058 169.619 149.091 170.855 145.63 170.361C144.146 170.114 142.415 169.372 141.179 168.383C139.943 167.394 138.954 166.405 138.212 165.416C134.751 161.46 131.784 157.256 128.817 153.053C125.85 148.85 123.13 144.399 120.41 139.948C114.971 131.047 110.026 122.146 105.081 112.997C102.608 108.299 100.383 103.849 98.405 99.1506C97.416 96.9253 96.427 94.4527 95.438 91.9801C94.2018 89.7548 93.2128 87.5295 93.2128 84.5624Z" fill="black"/>
<path d="M64.532 44.5065C66.2627 48.9571 67.7462 52.9132 69.2297 56.8694C69.9715 58.8474 70.2187 61.32 71.7022 63.0508C72.9384 64.7816 74.9164 66.2652 76.8944 67.2542C78.8724 68.2433 80.8504 68.985 83.0756 69.7268C85.0536 70.4686 87.2789 70.7158 89.2569 71.2104C93.4601 72.1994 97.6633 72.4466 102.361 72.9412L102.608 73.4357C98.4051 76.1555 93.4601 76.8973 88.5151 76.4028C86.0426 76.1555 83.5701 75.1665 81.3449 74.1775C80.1087 73.6829 79.1197 72.9412 78.1307 72.1994C77.1417 71.4576 76.1527 70.4686 75.4109 69.7268C73.6802 67.996 72.1967 66.0179 70.7132 64.2871C68.9825 62.5563 67.2517 60.8255 65.7682 58.8474C64.532 56.8694 63.7902 54.3968 63.543 51.9242C63.2958 49.4516 63.2957 46.9791 64.2847 44.7537L64.532 44.5065Z" fill="black"/>
<path d="M56.8672 53.4077C59.8342 57.3638 61.8122 61.32 63.2957 65.5234C64.0374 67.7487 64.2846 69.974 65.5209 71.9521C66.7571 73.9301 68.2406 75.4137 70.2186 76.4027C72.1966 77.3918 74.4218 78.1335 76.3998 79.1226C78.3778 80.1116 80.3558 80.8534 82.3338 81.5951C84.3118 82.5842 86.2898 83.326 88.2678 83.8205C90.2458 84.315 91.9765 85.0568 93.7072 83.326L94.2017 83.5732C94.2017 84.8095 92.9655 86.2931 91.7293 86.7876C90.493 87.2821 89.0095 87.7766 87.7733 87.7766C85.0535 87.7766 82.5811 87.2821 80.3558 86.5403C78.1306 85.7985 75.9053 84.5622 73.9273 83.0787C71.9494 81.8424 69.9714 80.1116 68.4879 78.3808C66.7571 76.4027 65.5209 74.4247 64.0374 72.6939C62.5539 70.963 60.8232 69.2322 59.3397 67.2542C58.1034 65.2761 57.3617 63.0508 56.6199 60.5782C56.1254 58.3529 55.8782 55.8803 56.1254 53.4077H56.8672Z" fill="black"/>
<path d="M147.607 192.614C145.877 193.109 144.393 191.872 143.651 190.883C142.91 189.894 142.168 188.658 142.168 187.174C142.168 185.938 142.91 184.702 142.91 183.466C142.91 182.229 142.662 181.24 142.168 180.004C141.673 178.768 141.426 177.779 141.179 176.542C141.179 175.306 140.932 174.07 141.426 172.834C141.673 171.597 142.415 170.361 143.404 169.372C143.899 168.877 144.64 168.383 145.382 167.888C146.124 167.641 147.113 167.641 147.855 168.136V168.63C147.36 169.125 147.36 169.372 147.113 169.866C147.113 170.361 147.113 170.608 147.113 171.103C147.113 172.092 147.113 172.834 146.866 173.823C146.866 174.812 146.371 175.801 146.124 176.79C145.877 177.779 145.629 178.768 145.135 180.004C144.64 180.993 144.393 182.229 144.64 183.218C144.888 184.207 145.877 185.196 146.371 186.185C146.866 187.174 146.866 187.916 147.113 188.905C147.36 189.894 147.113 190.636 147.855 191.872L147.607 192.614Z" fill="black"/>
<path d="M162.69 192.367C160.959 191.872 159.97 190.883 158.734 189.894C157.745 188.905 156.756 187.669 156.508 186.185C156.014 184.702 156.261 182.971 155.767 181.735C155.519 180.251 154.778 179.015 153.789 177.779C153.047 176.542 152.305 174.812 152.305 173.081C152.305 172.339 152.305 171.35 152.552 170.361C152.8 169.372 152.8 168.877 153.047 168.136C153.541 166.899 154.283 165.416 155.025 164.427C156.014 163.19 156.756 161.954 158.239 160.965L158.486 161.212C158.734 164.179 158.486 167.147 157.745 169.619C157.497 170.361 157.25 171.103 157.003 171.597C156.756 172.092 156.508 172.586 156.508 173.081C156.261 173.575 156.261 174.317 156.261 174.812C156.014 175.306 156.014 176.048 156.014 176.79C155.767 178.273 156.014 179.509 156.756 180.746C157.497 181.982 158.734 182.724 159.723 183.96C160.712 184.949 161.206 186.185 161.701 187.422C162.195 188.658 162.69 190.142 162.69 191.872V192.367Z" fill="black"/>
<path d="M337 177.037C335.022 178.768 332.797 180.251 330.324 181.735L331.313 180.498C331.561 182.477 331.561 184.207 331.808 186.185V187.669L330.077 188.163L325.874 189.4C324.39 189.647 322.907 190.142 321.671 190.142C318.704 190.636 315.737 190.636 313.017 191.131L312.028 191.378L311.781 190.636C311.533 189.4 311.286 188.411 311.039 187.174C310.792 185.938 310.544 184.949 310.05 183.96L310.792 184.455C306.836 184.207 302.385 185.196 300.16 187.422C299.665 187.916 299.171 188.658 298.924 189.152C298.924 189.647 298.924 189.894 299.171 190.636C299.418 191.378 299.913 193.356 299.665 194.839C299.418 196.57 298.429 197.807 297.44 198.796C296.698 199.537 295.709 200.774 294.72 201.268C293.731 202.01 292.495 202.504 291.259 202.752C290.023 203.246 288.787 203.246 287.798 203.493C286.809 203.493 285.572 203.741 284.336 203.493C283.1 203.493 281.864 203.246 280.627 202.752C279.886 202.504 279.391 202.257 278.897 201.763C278.402 201.515 277.908 201.021 277.413 200.526C276.919 200.032 276.424 199.29 276.424 198.301C276.424 197.559 276.671 196.817 276.919 196.323C277.66 195.087 278.649 194.592 279.886 194.345L280.133 194.839C279.391 195.581 278.649 196.323 278.649 197.065C278.402 197.807 278.897 198.301 279.391 198.548C279.638 198.796 280.133 198.796 280.38 199.043C280.875 199.29 281.369 199.29 281.616 199.29C282.358 199.29 283.347 199.29 284.089 199.29C285.078 199.043 285.82 199.043 286.809 198.796C287.798 198.548 288.539 198.301 289.528 198.054C290.27 197.807 291.012 197.312 291.753 196.817C292.495 196.323 292.99 195.828 293.731 195.087C294.226 194.345 294.72 193.85 294.72 193.603C294.968 193.109 294.968 192.861 294.72 191.625C294.473 190.636 294.226 188.411 294.968 186.927C295.709 185.444 296.698 184.702 297.687 183.713C299.913 182.229 302.385 181.735 304.61 181.735C306.836 181.735 309.061 181.982 311.286 182.229H311.781L312.028 182.724C312.275 183.713 312.522 184.949 313.017 185.938C313.264 186.927 313.759 188.163 314.006 189.152L312.77 188.411C315.489 187.422 318.209 186.185 320.929 185.444C322.412 184.949 323.649 184.702 325.132 184.207L329.335 183.218L327.605 185.196C327.852 183.218 327.852 181.487 328.099 179.509L328.346 178.273L329.088 178.026C331.561 177.037 334.28 176.295 336.753 175.801L337 177.037Z" fill="black"/>
<path d="M336.753 172.833C333.539 173.823 330.572 174.317 327.357 174.564L325.627 174.812L325.379 172.586C325.379 171.103 325.132 169.866 325.132 168.383L327.605 170.608C326.121 170.855 324.638 170.855 323.154 170.855C321.671 170.855 320.187 170.608 318.704 170.608C315.737 170.361 312.77 170.855 310.05 171.597L311.039 170.114C311.781 171.597 312.522 172.833 312.77 174.812C312.77 175.306 312.77 175.801 312.77 176.542C312.522 177.037 312.275 178.026 311.533 178.52C311.286 178.768 310.792 179.015 310.544 179.262C310.05 179.509 309.803 179.509 309.555 179.509C308.814 179.509 308.566 179.509 308.072 179.509C306.341 179.262 304.858 179.015 303.621 179.015C302.385 178.768 301.149 178.768 299.913 178.768C298.676 178.768 297.687 179.015 296.946 179.262C295.957 179.757 294.721 180.498 293.732 181.24C291.506 182.724 289.528 184.702 287.55 186.927L287.056 186.68C287.55 183.713 289.034 180.746 290.765 178.273C291.754 177.037 292.99 175.801 294.473 175.059C295.957 174.07 297.935 173.575 299.665 173.328C303.127 173.081 306.341 174.564 308.566 175.059H309.061C309.061 175.059 309.061 175.059 309.061 175.306C308.814 175.553 309.308 175.553 309.308 175.059C309.555 174.07 309.308 172.586 309.061 171.35L308.814 169.866H310.05C313.017 169.866 315.984 169.619 318.704 168.877C320.187 168.383 321.671 167.888 322.907 167.641C324.39 167.147 325.874 166.899 327.11 166.652L329.583 166.405V168.877C329.583 170.361 329.583 171.597 329.335 173.081L327.357 171.103C330.572 171.35 333.539 171.844 336.753 172.833Z" fill="black"/>
<path d="M190.629 219.565C191.618 220.06 192.607 220.554 193.596 221.296C194.585 222.038 195.326 223.027 196.068 224.263C196.315 225.005 196.563 225.747 196.563 226.736C196.563 227.23 196.563 227.725 196.315 227.972L195.821 228.714C195.326 229.703 194.585 230.939 193.843 231.928V229.703C194.585 231.186 195.079 232.67 196.068 233.906C197.057 235.143 198.541 236.132 200.271 236.626C201.755 237.121 203.486 236.873 204.969 236.132C206.453 235.637 207.689 234.895 208.925 233.906C210.161 233.165 211.398 231.928 212.387 230.939C213.623 229.95 214.612 228.714 215.601 227.478C217.579 225.005 219.062 222.285 220.793 219.071H221.288C222.277 222.78 221.535 226.736 219.557 230.197C217.579 233.659 214.612 236.132 210.903 237.862C209.172 238.604 207.194 239.346 204.969 239.099C202.991 239.099 201.013 238.357 199.282 237.862C197.552 237.121 195.821 236.379 194.337 235.39C192.607 234.401 191.123 233.412 189.887 231.681L189.145 230.692L189.887 229.208C190.382 228.219 190.876 227.478 191.371 226.736L191.865 226.241C192.112 225.994 191.865 225.994 192.112 225.994C192.112 225.747 192.112 225.5 192.112 225.252C192.112 224.51 191.618 223.521 191.371 222.532C190.876 221.543 190.382 220.554 190.134 219.565H190.629Z" fill="black"/>
<path d="M173.321 230.197C173.816 231.681 174.558 233.164 175.299 234.154C176.288 235.143 177.277 235.637 178.514 235.884C179.75 236.132 180.986 235.637 182.222 235.143C183.459 234.648 184.695 233.659 185.437 232.917L187.662 230.939L188.898 233.906C190.134 237.121 191.865 240.088 194.09 242.56C195.326 243.797 196.563 244.786 198.293 245.527C199.777 246.269 201.508 246.269 203.486 245.775C210.903 244.044 216.59 238.11 221.288 232.67C222.524 231.186 223.513 229.703 224.255 228.467C224.502 227.725 224.749 226.983 224.749 226.736C224.749 225.994 224.749 225.005 224.502 224.263C224.255 222.532 223.76 220.802 223.266 219.318C222.771 217.834 221.782 216.598 221.288 216.598C221.04 216.598 220.793 216.351 220.299 216.598C219.557 216.845 218.815 217.34 218.073 217.834C216.59 218.824 215.354 219.813 214.365 221.049C213.87 221.543 213.623 222.285 213.623 222.78C213.623 223.274 213.87 223.521 214.612 224.016C216.095 225.005 217.826 225.994 219.557 226.489V226.983C217.332 227.478 215.354 226.736 213.623 226.241C212.634 225.994 211.15 225.005 210.903 223.521C210.656 222.038 210.903 220.802 211.398 219.565C212.387 217.34 213.87 215.856 215.354 214.373C216.095 213.631 217.084 213.137 218.073 212.395C219.31 211.653 221.04 211.159 222.771 211.653C224.502 212.148 225.491 213.137 226.233 214.126C226.974 215.115 227.716 216.104 227.963 217.093C228.705 219.071 229.2 221.296 229.447 223.274C229.447 224.263 229.694 225.252 229.447 226.489C229.447 227.972 228.705 229.208 228.211 230.197C226.974 232.175 225.738 233.659 224.255 235.143C221.288 238.11 218.073 240.088 214.612 242.066C211.15 244.044 207.689 245.527 203.733 246.764C201.755 247.258 199.777 247.753 197.552 247.258C195.574 247.011 193.348 246.022 191.618 244.786C189.887 243.549 188.404 241.819 187.167 240.088C185.931 238.357 185.189 236.379 184.695 234.401L188.156 235.39C186.673 236.626 185.189 237.368 183.459 237.862C181.728 238.357 179.75 238.604 177.772 238.11C175.794 237.615 174.31 236.132 173.569 234.648C172.827 232.917 172.58 231.434 172.827 229.703L173.321 230.197Z" fill="black"/>
<path d="M227.222 229.703C229.941 227.972 232.661 226.736 235.134 225.005C237.606 223.521 240.078 222.038 242.551 220.554C245.023 219.071 247.743 217.587 249.227 215.115C250.957 212.642 251.699 209.675 251.699 206.708C251.699 203.741 250.957 201.021 249.721 199.537C248.485 198.054 246.012 197.559 244.034 198.054C242.056 198.548 239.831 200.032 239.337 202.01C238.595 203.988 239.584 206.955 241.809 208.933L241.562 209.428C238.348 208.933 235.134 205.719 235.381 201.515C235.381 199.537 236.37 197.559 237.606 196.076C238.842 194.592 240.573 193.603 242.551 192.861C246.507 191.625 250.957 193.109 253.43 196.57C255.655 200.032 255.161 203.988 254.419 206.955C253.43 209.922 252.194 212.889 250.71 215.856C249.227 218.576 247.496 221.543 245.023 223.769C242.551 225.994 239.584 227.478 236.617 228.467C233.65 229.456 230.436 230.197 227.222 229.95V229.703Z" fill="black"/>
<path d="M227.222 220.307C227.963 219.071 228.705 218.329 229.447 217.34C230.189 216.598 231.178 215.856 232.167 215.609C233.156 215.362 234.639 215.362 235.381 214.62C236.37 214.126 236.864 213.137 237.359 211.9C238.101 209.675 238.595 207.45 239.831 205.719C241.067 203.988 242.798 202.504 245.271 201.268L245.765 201.515C246.012 204.235 245.271 206.708 244.282 208.686C243.787 209.675 243.045 210.664 242.304 211.406C241.809 211.9 241.562 212.395 241.067 212.642C240.573 212.889 240.079 213.384 239.337 213.631C238.101 214.126 237.112 214.867 236.37 215.609C235.628 216.351 235.134 217.834 234.392 218.824C233.65 219.813 232.414 220.307 231.178 220.554C229.941 220.802 228.705 220.802 227.222 220.554V220.307Z" fill="black"/>
<path d="M253.677 201.268C255.655 200.279 257.386 199.29 259.117 198.548C261.095 197.807 262.331 197.065 263.814 196.323C265.298 195.581 267.029 194.345 268.265 192.861C269.501 191.131 270.49 189.4 271.974 187.669C273.457 185.938 275.682 184.702 277.908 184.207C280.133 183.713 282.605 183.218 284.831 183.713C287.056 184.207 289.281 185.196 291.259 186.927C292.99 188.411 294.226 190.883 294.226 193.109L293.732 193.356C292.248 191.872 290.765 190.883 289.281 190.142C287.798 189.4 286.067 189.153 284.336 188.905C280.875 188.411 277.413 188.658 273.952 189.894C272.221 190.636 270.737 192.12 269.996 193.85C269.007 195.581 268.512 198.054 266.781 199.785C265.051 201.515 262.578 202.257 260.6 202.505C258.375 202.752 256.397 202.999 254.172 202.01L253.677 201.268Z" fill="black"/>
<path d="M253.677 208.933C255.408 208.191 257.139 207.944 258.622 207.45C260.106 207.202 261.342 206.708 262.578 206.213C263.814 205.966 265.545 205.472 266.534 204.235C267.523 202.999 267.77 201.268 268.512 199.537C269.007 197.807 270.243 195.828 271.726 194.592C273.457 193.356 275.188 192.367 277.166 192.12C280.875 191.625 284.583 192.367 287.798 194.592V195.087C284.336 196.323 281.122 196.57 278.402 197.312C276.919 197.559 275.682 197.807 274.446 198.548C273.21 199.043 272.221 199.785 270.985 201.021C269.748 202.01 269.007 203.741 268.018 205.224C267.276 206.708 266.534 208.686 264.803 209.922C263.073 211.158 261.095 211.406 259.117 211.158C257.139 210.911 255.408 210.417 253.924 209.18L253.677 208.933Z" fill="black"/>
<path d="M174.558 174.564C174.805 175.059 175.547 175.553 175.794 176.048C176.041 176.295 176.041 176.79 176.041 177.284C176.041 177.779 175.547 178.273 175.052 178.52C173.816 179.015 173.074 178.273 172.58 178.026L170.849 176.79C170.354 176.295 169.86 175.801 169.613 175.059C169.365 174.317 169.365 173.081 170.602 172.339C171.838 171.597 173.074 172.092 173.321 172.834C174.063 173.328 174.063 174.07 174.558 174.564ZM174.31 174.564C174.063 174.07 173.321 173.823 172.827 174.07C172.332 174.07 172.085 174.317 172.332 174.317C172.58 174.07 172.332 174.317 172.332 174.564C172.332 174.812 172.332 175.306 172.332 176.048C172.332 176.542 172.827 177.037 173.321 177.284C173.816 177.531 174.31 177.037 174.31 176.79C174.063 176.79 174.31 176.79 174.558 176.048C174.558 175.801 174.558 175.059 174.31 174.564Z" fill="black"/>
<path d="M189.887 188.411C190.134 188.905 190.629 189.4 190.876 190.142C191.123 190.883 190.876 192.12 189.887 192.367C188.898 192.861 188.156 192.12 187.662 191.872C187.167 191.378 186.673 191.131 186.178 190.636C185.684 190.142 185.189 189.4 185.189 188.658C185.189 187.916 185.437 186.68 186.426 186.186C187.415 185.691 188.651 185.938 189.145 186.68C189.393 187.175 189.64 187.916 189.887 188.411ZM189.64 188.411C189.393 187.916 188.651 187.669 188.156 187.916C187.662 188.164 187.415 188.164 187.662 188.164C187.662 188.164 187.662 188.164 187.415 188.411C187.415 188.658 187.167 189.153 187.167 189.647C187.167 190.142 187.415 190.636 187.909 190.883C188.404 191.131 188.898 190.636 188.898 190.389C188.898 190.142 188.898 190.142 189.393 189.894C189.64 189.647 189.887 188.905 189.64 188.411Z" fill="black"/>
<path d="M186.426 177.531C186.426 178.026 186.673 178.52 186.426 179.262C186.178 180.004 185.437 180.251 184.695 180.251C183.953 180.004 183.706 179.509 183.459 179.015C183.211 178.52 182.964 178.273 182.717 177.779C182.222 176.542 183.459 174.812 184.942 175.059C185.684 175.059 186.426 175.553 186.673 176.295C186.673 176.542 186.426 177.037 186.426 177.531ZM186.178 177.531C186.178 177.037 185.684 176.79 185.189 177.037C184.695 177.284 184.695 177.284 184.695 177.284C184.695 177.284 184.448 177.037 183.953 177.531C183.706 177.779 183.706 178.273 183.953 178.273C184.2 178.52 184.695 178.026 184.695 178.026C184.695 177.779 184.942 178.026 185.189 178.026C185.684 178.273 186.426 178.026 186.178 177.531Z" fill="black"/>
<path d="M78.3779 37.336C78.6251 37.8305 79.1196 38.0777 79.6141 38.5723C79.8614 38.8195 79.8614 39.314 79.8614 39.8086C79.8614 40.3031 79.3669 40.7976 78.8724 41.0448C77.6361 41.5394 77.1416 40.7976 76.6471 40.5503C76.1526 40.3031 75.6581 39.8085 75.1636 39.5613C74.6691 39.314 74.1746 38.5723 73.9274 38.0777C73.6801 37.336 73.6802 36.3469 74.6691 35.3579C75.9054 34.6161 76.8944 35.1106 77.1416 35.8524C78.1306 36.0997 78.1306 36.8415 78.3779 37.336ZM78.1306 37.336C77.8834 36.8415 77.1416 36.8415 76.6471 36.8415C76.1526 37.0887 76.1526 37.336 76.3999 37.0887C76.6471 36.8415 76.3999 36.8415 76.3999 37.0887C76.3999 37.336 76.3999 37.8305 76.3999 38.325C76.3999 38.8195 76.6471 39.314 77.1416 39.314C77.6361 39.5613 78.1306 39.0668 77.8834 38.8195C77.6361 38.8195 77.8834 38.8195 78.1306 38.325C78.3779 38.325 78.3779 37.8305 78.1306 37.336Z" fill="black"/>
<path d="M89.5041 38.5723C89.7513 39.0668 90.2458 39.3141 90.7403 39.8086C90.9876 40.0558 90.9876 40.5504 90.9876 41.0449C90.9876 41.5394 90.4931 42.0339 89.9986 42.2812C88.7624 42.7757 88.2679 42.0339 87.7734 41.7867C87.2789 41.5394 86.7844 41.0449 86.2899 40.7976C85.7954 40.5504 85.3009 39.8086 85.0536 39.3141C84.8064 38.5723 84.8064 37.5833 85.7954 36.5942C87.0316 35.8525 88.0206 36.347 88.2679 37.0887C89.0096 37.5833 89.0096 38.0778 89.5041 38.5723ZM89.2568 38.8196C89.0096 38.325 88.2679 38.325 87.7734 38.325C87.2789 38.5723 87.2789 38.8196 87.5261 38.5723C87.7734 38.325 87.5261 38.325 87.5261 38.5723C87.5261 38.8196 87.5261 39.3141 87.5261 39.8086C87.5261 40.3031 87.7734 40.7976 88.2679 40.7976C88.7624 41.0449 89.2568 40.5504 89.0096 40.3031C88.7623 40.3031 89.0096 40.3031 89.2568 39.8086C89.2568 39.8086 89.5041 39.0668 89.2568 38.8196Z" fill="black"/>
<path d="M76.6472 47.2264C76.8944 47.7209 77.3889 47.9681 77.8834 48.4626C78.1307 48.7099 78.1307 49.2044 78.1307 49.6989C78.1307 50.1935 77.6362 50.688 77.1417 50.9352C75.9054 51.4297 75.4109 50.688 74.9164 50.4407C74.4219 50.1934 73.9274 49.6989 73.4329 49.4517C72.9384 49.2044 72.4439 48.4626 72.1967 47.9681C71.9494 47.2264 71.9494 46.2373 72.9384 45.2483C74.1747 44.5065 75.1637 45.001 75.4109 45.7428C76.3999 46.2373 76.3999 46.7318 76.6472 47.2264ZM76.6472 47.2264C76.3999 46.7318 75.6582 46.7318 75.1637 46.7318C74.6692 46.9791 74.6692 47.2264 74.9164 46.9791C75.1637 46.7318 74.9164 46.7318 74.9164 46.9791C74.9164 47.2264 74.9164 47.7209 74.9164 48.2154C74.9164 48.7099 75.1637 49.2044 75.6582 49.2044C76.1527 49.4517 76.6472 48.9572 76.3999 48.7099C76.1527 48.7099 76.3999 48.7099 76.6472 48.2154C76.6472 48.2154 76.8944 47.7209 76.6472 47.2264Z" fill="black"/>
<path d="M82.0866 54.8914C82.3339 55.3859 82.8284 55.6332 83.3229 56.1277C83.5701 56.3749 83.5701 56.8695 83.5701 57.364C83.5701 57.8585 83.0756 58.353 82.5811 58.6003C81.3449 59.0948 80.8504 58.353 80.3559 58.1057C79.8614 57.8585 79.3669 57.364 78.8724 57.1167C78.3779 56.8695 77.8834 56.1277 77.6361 55.6332C77.3889 54.8914 77.3889 53.9024 78.3779 52.9133C79.6141 52.1715 80.6031 52.6661 80.8504 53.4078C81.5921 53.9024 81.8394 54.6441 82.0866 54.8914ZM81.8394 55.1386C81.5921 54.6441 80.8504 54.6441 80.3559 54.6441C79.8614 54.8914 79.8614 55.1386 80.1086 54.8914C80.3559 54.6441 80.1086 54.6441 80.1086 54.8914C80.1086 55.1386 80.1086 55.6332 80.1086 56.1277C80.1086 56.6222 80.3559 57.1167 80.8504 57.1167C81.3449 57.364 81.8394 56.8695 81.5921 56.6222C81.3449 56.6222 81.5921 56.6222 81.8394 56.1277C82.0866 56.1277 82.0866 55.6332 81.8394 55.1386Z" fill="black"/>
<path d="M91.7293 60.5783C91.9766 61.0728 92.4711 61.3201 92.9656 61.8146C93.2128 62.0618 93.2128 62.5563 93.2128 63.0509C93.2128 63.5454 92.7183 64.0399 92.2238 64.2872C90.9876 64.7817 90.4931 64.0399 89.9986 63.7926C89.5041 63.5454 89.0096 63.0509 88.5151 62.8036C88.0206 62.5563 87.5261 61.8146 87.2788 61.3201C87.0316 60.5783 87.0316 59.5892 88.0206 58.6002C89.2568 57.8584 90.2458 58.353 90.4931 59.0947C91.2348 59.342 91.4821 60.0838 91.7293 60.5783ZM91.4821 60.5783C91.2348 60.0838 90.4931 60.0838 89.9986 60.0838C89.5041 60.331 89.5041 60.5783 89.7513 60.331C89.9986 60.0838 89.7513 60.0838 89.7513 60.331C89.7513 60.5783 89.7513 61.0728 89.7513 61.5673C89.7513 62.0618 89.9986 62.5563 90.4931 62.5563C90.9876 62.8036 91.4821 62.3091 91.2348 62.0618C90.9876 62.0618 91.2348 62.0618 91.4821 61.5673C91.7293 61.5673 91.7293 61.0728 91.4821 60.5783Z" fill="black"/>
<path d="M99.8885 58.3529C100.136 58.8475 100.63 59.0947 101.125 59.5892C101.372 59.8365 101.372 60.331 101.372 60.8255C101.372 61.32 100.877 61.8146 100.383 62.0618C99.1468 62.5563 98.6523 61.8146 98.1578 61.5673C97.6633 61.32 97.1688 60.8255 96.6743 60.5783C96.1798 60.331 95.6853 59.5892 95.438 59.0947C95.1908 58.3529 95.1908 57.3639 96.1798 56.3749C97.416 55.6331 98.405 56.1276 98.6523 56.8694C99.6413 57.3639 99.6413 58.1057 99.8885 58.3529ZM99.6412 58.6002C99.394 58.1057 98.6523 58.1057 98.1578 58.1057C97.6633 58.3529 97.6633 58.6002 97.9105 58.3529C98.1578 58.1057 97.9105 58.1057 97.9105 58.3529C97.9105 58.6002 97.9105 59.0947 97.9105 59.5892C97.9105 60.0837 98.1578 60.5783 98.6523 60.5783C99.1468 60.8255 99.6413 60.331 99.394 60.0837C99.1468 60.0837 99.394 60.0837 99.6412 59.5892C99.8885 59.5892 99.8885 58.8475 99.6412 58.6002Z" fill="black"/>
<path d="M98.1578 47.2264C98.405 47.7209 98.8995 47.9681 99.394 48.4626C99.6413 48.7099 99.6413 49.2044 99.6413 49.6989C99.6413 50.1935 99.1468 50.688 98.6523 50.9352C97.416 51.4297 96.9215 50.688 96.427 50.4407C95.9325 50.1934 95.438 49.6989 94.9435 49.4517C94.4491 49.2044 93.9546 48.4626 93.7073 47.9681C93.4601 47.2264 93.4601 46.2373 94.4491 45.2483C95.6853 44.5065 96.6743 45.001 96.9215 45.7428C97.9105 46.2373 97.9105 46.7318 98.1578 47.2264ZM97.9105 47.2264C97.6633 46.7318 96.9215 46.7318 96.427 46.7318C95.9325 46.9791 95.9325 47.2264 96.1798 46.9791C96.427 46.7318 96.1798 46.7318 96.1798 46.9791C96.1798 47.2264 96.1798 47.7209 96.1798 48.2154C96.1798 48.7099 96.427 49.2044 96.9215 49.2044C97.416 49.4517 97.9105 48.9572 97.6633 48.7099C97.416 48.7099 97.6633 48.7099 97.9105 48.2154C98.1578 48.2154 98.1578 47.7209 97.9105 47.2264Z" fill="black"/>
<path d="M117.938 47.9681C122.635 49.2044 127.086 50.4407 131.289 51.4297C135.74 52.4187 139.943 53.4078 143.899 54.6441L144.888 54.8913V55.8804C144.888 59.5892 146.124 63.7926 147.855 67.2542C149.585 70.9631 151.563 74.4247 154.283 77.3918C159.475 83.5733 165.904 88.5184 173.074 92.2273C180.244 96.1834 187.909 99.1506 195.574 101.376C203.486 103.601 211.398 105.085 219.557 106.074C235.875 107.557 252.688 106.568 268.265 100.634C275.93 97.667 283.1 93.2164 288.539 87.0349C293.979 80.8534 296.698 72.9412 296.698 64.7817C296.698 60.8255 295.957 56.8694 294.968 52.9133C293.731 48.9571 292.248 45.2483 290.517 41.7866C286.808 34.6161 281.863 27.9402 275.93 22.5005C269.996 17.0608 263.073 12.8574 255.408 10.3848C251.699 9.14855 247.743 8.15952 243.787 7.41775C241.809 7.17049 239.831 6.67597 237.606 6.42871C235.628 6.18146 233.65 5.9342 231.672 5.68694C215.601 4.45065 199.035 6.42871 184.2 12.8574C169.365 19.2861 156.756 30.66 148.844 45.001L148.596 45.7428H147.855C142.91 46.2373 138.212 46.4845 133.267 46.7318C128.322 47.2263 123.13 47.4736 117.938 47.9681ZM117.443 47.9681C122.141 47.2263 127.086 46.4845 132.031 45.4955C136.976 44.5065 142.415 43.7647 147.607 43.0229L146.618 43.7647C150.327 36.0997 155.272 29.1765 161.206 22.995C167.387 17.0608 174.558 12.1157 182.222 8.40678C189.887 4.69791 198.293 2.22532 206.7 0.989033C210.903 0.494516 215.106 0.247258 219.31 0C223.513 0 227.716 0 232.167 0.494516C234.392 0.741775 236.37 0.989033 238.595 1.23629C240.573 1.48355 242.798 1.97807 244.776 2.47258C248.979 3.21436 253.183 4.45065 257.139 5.9342C265.298 8.9013 272.715 13.3519 278.897 19.5334C285.078 25.4676 290.023 32.6381 293.731 40.3031C295.462 44.2592 296.946 48.2154 297.935 52.4187C298.924 56.6221 299.418 60.8255 299.171 65.2762C299.171 69.4796 298.182 73.9302 296.451 77.8863C294.72 81.8425 292.495 85.5514 289.528 88.7657C283.841 95.1944 276.424 99.3978 268.512 102.612C252.935 108.794 235.875 111.019 219.062 110.277C202.249 109.535 185.437 105.085 170.602 96.678C163.184 92.4746 156.261 87.0349 151.069 80.3589C148.349 76.8973 146.124 73.1884 144.64 69.2323C143.157 65.2762 141.921 61.0728 142.168 56.3749L143.157 57.6112C138.707 56.1276 134.256 54.3968 129.806 52.9133C125.602 50.9352 121.399 49.4516 117.443 47.9681Z" fill="black"/>
<path d="M86.7843 115.964C88.2678 116.211 89.7513 115.717 90.9875 115.222C92.2238 114.481 93.46 113.739 94.449 112.75C95.438 111.761 96.427 110.277 97.6632 109.783C98.405 109.535 99.1467 109.041 99.8885 109.041C100.383 109.041 100.63 108.794 101.125 108.794C101.372 108.794 101.619 108.794 101.619 108.794C101.619 108.794 101.866 108.794 101.866 109.041C101.866 109.288 102.114 109.535 102.114 109.288L101.866 108.794C101.866 108.794 101.866 108.794 102.114 108.546C102.114 108.546 102.608 108.794 102.608 109.041C102.608 109.535 102.608 109.535 102.608 109.783C102.608 110.03 102.608 110.277 102.361 110.524C102.114 111.019 102.114 111.513 101.866 111.761C101.372 112.503 100.877 113.244 100.383 113.986C99.394 115.222 97.6632 115.717 96.1797 116.459C94.6963 117.2 92.9655 117.695 91.2348 117.942C89.504 118.189 87.526 117.942 86.2898 116.706L86.7843 115.964Z" fill="black"/>
<path d="M95.438 137.476C96.6742 136.239 98.1577 135.25 99.394 134.014C100.877 133.025 102.361 132.036 103.844 131.294C105.328 130.552 106.317 129.316 107.8 128.821C109.284 128.327 110.52 127.585 112.745 127.091L113.24 127.338C113.24 129.563 112.251 131.294 110.767 132.778C109.284 134.261 107.306 134.508 105.575 135.003C103.844 135.497 102.361 135.745 100.63 136.239C98.8995 136.734 97.416 137.228 95.6852 137.97L95.438 137.476Z" fill="black"/>
<path d="M109.778 159.234C111.509 158.74 113.24 158.245 114.723 157.256C116.207 156.514 117.69 155.525 118.927 154.784C120.163 153.795 120.905 152.311 122.141 151.569C122.883 151.075 123.377 150.828 123.872 150.58C124.366 150.086 125.108 149.591 125.602 148.602H126.097C126.839 149.591 127.086 150.58 127.086 151.817C126.839 153.053 126.344 154.042 125.85 155.031C124.861 156.514 122.883 157.503 120.905 158.245C119.174 158.987 117.196 159.482 115.465 159.729C113.487 159.976 111.756 159.976 110.026 159.729L109.778 159.234Z" fill="black"/>
</g>
<defs>
<clipPath id="clip0_35_204">
<rect width="337" height="248" fill="white"/>
</clipPath>
</defs>
</svg>
