<svg width="100%" height="100%" viewBox="0 0 93 48" fill="currentcolor" xmlns="http://www.w3.org/2000/svg">
<g filter="url(#filter0_d_97_138)">
<path d="M4 0L17.9408 20.009L4 40H89V0H4ZM58.5016 34.114L54.6854 28.2638C53.5016 26.5231 52.4891 24.8363 51.4299 23.0238H51.3053C50.3084 24.8363 49.2336 26.4513 48.1122 28.2638L44.3271 34.1498L37.6916 34.0781L48.4393 19.668L38.5794 5.47331L45.8224 7.17811L48.6262 11.3773C49.7477 13.0642 50.6978 14.6254 51.6947 16.3122H51.8816C52.8785 14.4998 53.891 12.9385 54.8879 11.3235L57.6137 7.23194L64.405 5.8681L54.7632 19.4886L65.0436 34.5626L58.5016 34.114Z" />
</g>
<defs>
<filter id="filter0_d_97_138" x="0" y="0" width="93" height="48" filterUnits="userSpaceOnUse" color-interpolation-filters="sRGB">
<feFlood flood-opacity="0" result="BackgroundImageFix"/>
<feColorMatrix in="SourceAlpha" type="matrix" values="0 0 0 0 0 0 0 0 0 0 0 0 0 0 0 0 0 0 127 0" result="hardAlpha"/>
<feOffset dy="4"/>
<feGaussianBlur stdDeviation="2"/>
<feComposite in2="hardAlpha" operator="out"/>
<feColorMatrix type="matrix" values="0 0 0 0 0 0 0 0 0 0 0 0 0 0 0 0 0 0 0.25 0"/>
<feBlend mode="normal" in2="BackgroundImageFix" result="effect1_dropShadow_97_138"/>
<feBlend mode="normal" in="SourceGraphic" in2="effect1_dropShadow_97_138" result="shape"/>
</filter>
</defs>
</svg>
