<svg width="187" height="188" viewBox="0 0 187 188" fill="none" xmlns="http://www.w3.org/2000/svg">
<g clip-path="url(#clip0_44_480)">
<path d="M117.961 159.391C117.961 159.391 117.28 152.92 113.529 150.195C109.779 147.471 108.245 151.898 104.154 148.493C100.063 145.087 99.5512 139.297 99.5512 139.297H86.9368C86.9368 139.297 86.5959 143.554 83.8684 146.279C81.141 149.003 75.0042 148.152 72.7882 151.558C70.5722 154.964 69.3789 161.094 69.3789 161.094" fill="#FC7E53"/>
<path d="M126.655 163.478H58.1284V186.297H126.655V163.478Z" fill="#FC7E53"/>
<path d="M149.157 21.6266C149.838 20.6049 155.975 11.4092 166.544 11.2389C167.908 11.2389 175.067 11.0687 179.84 16.1774C182.909 19.5831 184.443 24.8621 183.761 32.8658C182.227 49.0433 174.215 56.7063 163.305 65.2208C152.225 73.7353 116.257 100.13 115.404 111.71C114.382 123.29 117.621 121.927 117.621 121.927C117.621 121.927 119.837 124.652 117.791 125.844C115.745 127.036 110.291 126.014 109.95 121.927C109.609 117.84 108.756 111.199 119.666 98.2571C130.576 85.315 159.555 61.6447 166.033 54.152C172.51 46.6592 181.033 29.6303 173.703 22.6484C166.374 15.4962 160.407 18.0505 158.021 21.1158C154.27 25.8839 154.611 29.1194 150.35 32.6955C148.986 33.8875 147.281 34.9092 147.281 34.9092L149.327 33.5469C149.327 33.5469 149.157 33.7172 148.475 34.0578" fill="#FFBA4A"/>
<path d="M36.1386 20.0944C36.1386 20.0944 28.2972 9.877 18.7512 11.2393C9.20515 12.6016 2.04562 20.0944 2.55702 31.5038C3.06841 42.9132 6.30725 53.8118 32.3884 74.2466C58.4695 94.6813 76.3683 114.776 71.5953 121.928C66.8223 129.08 67.8451 123.971 67.8451 123.971C67.8451 123.971 66.4814 128.058 70.0611 128.399C73.6409 128.739 77.3911 125.504 77.732 117.67C77.9025 109.837 65.2881 92.4676 47.9007 77.9929C30.5133 63.5183 -1.36367 42.5726 11.5917 24.0111C24.547 5.44946 31.877 30.4821 35.2863 32.3553C38.6956 34.2284 37.3319 33.5473 37.3319 33.5473" fill="#FFBA4A"/>
<path d="M98.358 132.997C100.063 130.953 97.3353 128.058 97.5057 123.631C97.6762 116.138 105.518 110.689 108.415 108.475C124.439 96.2139 134.326 72.3734 138.588 56.7067C143.361 39.5074 145.577 16.6886 145.577 16.6886C145.577 16.6886 150.35 15.4965 151.032 12.7719C152.054 10.0473 126.485 2.38422 93.7555 2.21393C61.0262 2.04364 32.0472 6.30089 31.1949 9.70669C30.3425 13.1125 35.9679 14.1342 35.9679 14.1342C35.9679 14.1342 34.7746 33.2067 41.5932 52.4494C48.4118 71.5219 65.7992 100.812 71.4246 106.431C75.1748 110.007 87.4483 116.138 86.7664 123.971C86.596 126.866 84.7208 128.91 85.7436 131.123C87.6187 134.87 96.142 136.062 98.358 132.997Z" fill="#FFBA4A"/>
<path d="M130.576 187.319C124.439 187.489 118.303 187.66 112.166 187.83C105.859 187.83 99.7219 188 93.2442 188C86.937 188 80.6298 187.83 74.3226 187.66H64.947H55.5715H55.2305V187.319L55.0601 181.018V180.507H55.5715C61.8787 180.337 68.0154 180.167 74.3226 180.167C80.6298 180.167 86.7665 179.997 93.0737 179.997C105.518 179.997 118.132 180.167 130.576 180.507H130.917V180.848L130.576 187.319ZM130.406 187.319L130.235 181.018L130.576 181.359C118.132 181.699 105.518 181.87 93.0737 181.87C86.7665 181.87 80.6298 181.87 74.3226 181.699C68.0154 181.699 61.8787 181.529 55.5715 181.359L56.0829 180.848L55.9124 187.149L55.5715 186.808H64.947H74.3226C80.4593 186.638 86.7665 186.468 92.9033 186.468C99.04 186.468 105.347 186.638 111.654 186.638C117.791 186.978 124.098 187.149 130.406 187.319Z" fill="black"/>
<path d="M126.826 181.018C121.371 181.188 115.916 181.359 110.461 181.359C105.006 181.529 99.381 181.529 93.7556 181.529C88.1303 181.529 82.5049 181.529 76.8796 181.359C71.2543 181.188 65.6289 181.018 60.0036 181.018H59.6626V180.677C59.6626 177.272 59.6626 174.036 59.6626 170.63L59.4922 160.583V160.072H60.0036C65.6289 159.902 71.0838 159.902 76.7091 159.732L93.4147 159.562H110.12L126.826 159.732H127.508V160.413L127.167 170.46L126.826 181.018ZM126.655 181.018L126.144 161.094L126.826 161.775L110.12 161.946H93.4147L76.7091 161.775C71.0838 161.775 65.6289 161.605 60.0036 161.435L60.515 160.924L60.3445 170.971C60.3445 174.377 60.3445 177.612 60.3445 181.018L60.0036 180.677C65.6289 180.677 71.0838 180.507 76.5387 180.337C81.9936 180.167 87.4484 180.167 93.0738 180.167L109.779 180.337C115.234 180.677 120.86 180.848 126.655 181.018Z" fill="black"/>
<path d="M115.575 176.59C111.995 176.761 108.416 176.931 104.665 177.101L93.4147 177.271C89.6644 177.271 85.9142 177.101 81.9935 177.101C78.2433 176.931 74.4931 176.931 70.7428 176.931H70.4019V176.59C70.4019 173.185 70.4019 169.949 70.2314 166.543V166.032H70.7428C78.2433 165.692 85.5733 165.692 93.0737 165.521C96.824 165.521 100.574 165.521 104.154 165.521C107.904 165.692 111.654 165.692 115.234 165.862H115.746V166.373C115.916 170.119 115.746 173.525 115.575 176.59ZM115.405 176.42C115.234 173.014 115.064 169.779 114.893 166.543L115.405 167.054C111.654 167.224 107.904 167.224 104.324 167.395C100.574 167.395 96.824 167.565 93.2442 167.395C85.7438 167.224 78.4138 167.224 70.9133 166.884L71.4247 166.373C71.2542 169.779 71.2542 173.014 71.2542 176.42L70.9133 176.079C74.6635 176.079 78.2433 175.909 81.9935 175.909C85.5733 175.739 89.3235 175.569 92.9033 175.739L103.983 175.909C107.734 176.25 111.484 176.25 115.405 176.42Z" fill="black"/>
<path d="M82.3345 169.949C84.2096 169.438 86.0847 169.268 87.9598 169.268C88.9826 169.438 89.8349 169.609 90.8577 169.779C91.8805 169.779 92.7328 169.779 93.7556 169.609C95.6307 169.268 97.5058 169.098 99.381 169.098C101.256 169.098 103.131 169.438 105.006 169.949V170.119C103.131 170.63 101.256 170.801 99.381 170.971C97.5058 170.971 95.6307 170.801 93.7556 170.46C92.7328 170.29 91.8805 170.29 90.8577 170.29C89.8349 170.29 88.9826 170.63 87.9598 170.801C86.0847 170.971 84.2096 170.801 82.3345 170.119V169.949Z" fill="black"/>
<path d="M86.7666 172.674C87.9599 172.163 89.1531 171.993 90.3464 171.993C90.8578 172.163 91.5396 172.333 92.051 172.503C92.5624 172.503 93.2443 172.503 93.7557 172.333C94.9489 171.993 96.1422 171.822 97.3354 171.822C98.5287 171.822 99.7219 172.163 100.915 172.674V172.844C99.7219 173.355 98.5287 173.525 97.3354 173.695C96.1422 173.695 94.9489 173.525 93.7557 173.185C93.2443 173.014 92.5624 173.014 92.051 173.014C91.5396 173.014 90.8578 173.355 90.3464 173.525C89.1531 173.525 87.9599 173.355 86.7666 172.674Z" fill="black"/>
<path d="M122.905 159.902C122.564 158.71 121.882 157.689 121.201 156.837C120.519 155.815 119.666 155.134 118.644 154.453C117.621 153.942 116.598 153.431 115.575 153.261C114.553 153.091 113.359 153.261 112.166 153.431C110.973 153.602 109.439 153.602 108.245 153.261C106.882 152.92 105.859 152.239 104.836 151.388C102.79 149.855 101.256 147.642 100.745 145.087L101.086 145.257C98.5288 145.257 96.1423 145.428 93.5853 145.428C91.0283 145.598 88.6418 145.598 86.0849 145.768L86.9372 145.087C86.4258 147.812 84.7211 150.026 82.3346 151.218C79.9481 152.239 77.5616 152.41 75.1751 152.75C72.9591 153.091 70.5726 153.261 69.0384 154.964C67.5042 156.667 66.3109 158.71 65.2881 160.754H65.1177C65.6291 158.37 66.6519 156.156 68.186 154.113C68.527 153.602 69.0384 153.091 69.5498 152.75C70.0612 152.41 70.743 152.069 71.2544 151.899C72.4477 151.388 73.6409 151.218 74.8342 151.047C77.2207 150.536 79.6072 150.366 81.4823 149.515C83.3574 148.663 84.8916 146.79 85.403 144.747L85.5735 144.065H86.2553C88.8123 144.065 91.1988 144.236 93.7558 144.406C96.3128 144.576 98.6993 144.576 101.256 144.576H101.427V144.747C101.938 147.131 103.472 149.004 105.518 150.196C106.541 150.877 107.563 151.218 108.757 151.558C109.779 151.728 110.973 151.728 112.166 151.558C113.359 151.388 114.723 151.218 116.087 151.388C117.45 151.728 118.644 152.239 119.666 152.921C121.542 154.964 122.735 157.348 122.905 159.902Z" fill="black"/>
<path d="M85.2325 143.384C84.8916 142.022 84.7211 140.659 84.7211 139.297C84.5506 137.935 84.5506 136.572 84.7211 135.21V134.188L85.5734 134.529C86.7667 135.04 87.9599 135.551 89.3237 135.891C90.6874 136.232 91.8806 136.232 93.2444 135.891L100.915 134.188L102.109 134.018V135.21C102.109 137.935 101.768 140.659 101.256 143.384H101.086C100.574 140.659 100.404 137.935 100.233 135.21L101.256 136.062C99.8925 136.402 98.6992 136.572 97.3355 136.743C95.9718 136.913 94.6081 136.913 93.2444 136.913C91.8806 136.913 90.5169 136.572 89.1532 136.402C87.7895 136.232 86.4258 136.232 85.062 135.891L85.9144 135.21C86.0848 136.572 85.9144 137.935 85.9144 139.297C85.7439 140.659 85.5734 142.022 85.403 143.384H85.2325Z" fill="black"/>
<path d="M99.8923 133.507C98.1877 131.123 97.8468 128.228 98.1877 125.504C98.5286 122.609 100.404 120.225 102.108 118.181C105.859 113.924 110.632 111.029 113.7 106.261C120.178 97.4058 126.314 88.0398 131.769 78.5036C134.497 73.7355 137.054 68.7971 139.27 63.8587C141.486 58.9203 142.85 53.471 144.043 48.192C146.6 37.2935 148.304 26.3949 149.668 15.4964V15.1558H150.009C151.373 14.8152 152.736 14.3043 153.93 13.4529C154.441 13.1123 154.953 12.6014 155.293 11.9203C155.293 11.75 155.464 11.5797 155.464 11.4094C155.464 11.2391 155.464 11.2391 155.464 11.2391C155.293 11.0688 155.123 10.7283 154.782 10.558C152.396 9.02536 149.498 8.17391 146.6 7.32246C140.974 5.61957 135.179 4.42754 129.212 3.57609C117.621 1.53261 105.688 0.681159 93.9261 0.851449C82.164 1.02174 70.2315 1.53261 58.4694 2.72464C52.5031 3.57609 46.7073 4.25725 40.9115 5.44928C39.5478 5.78986 38.0136 6.13043 36.6499 6.47101C35.2861 6.81159 33.9224 7.32246 32.7292 8.00362C32.3882 8.17391 32.2178 8.3442 32.0473 8.51449C32.0473 8.51449 32.0473 8.85507 32.0473 9.02536C32.0473 9.53623 32.3882 10.0471 32.7292 10.3877C33.5815 11.2391 34.9452 11.75 36.3089 11.9203H36.9908V12.6014C36.8203 18.221 37.1613 24.0109 37.8431 29.6304C38.525 35.25 39.5478 40.8696 41.2524 46.3188C42.7866 51.7681 45.0026 57.0471 47.3892 62.3261C49.7757 67.4348 52.3326 72.7138 54.8896 77.6522C57.6171 82.7609 60.3445 87.6993 63.2424 92.6377C64.7766 95.0217 66.3108 97.5761 67.8449 99.9601C69.3791 102.344 71.0838 104.728 72.9589 106.772C76.8796 110.859 81.8231 113.924 85.7438 118.181C86.7665 119.203 87.6189 120.395 88.3007 121.757C88.9826 123.12 89.3235 124.482 89.1531 126.014C88.9826 127.377 88.8121 128.909 88.3007 130.272C87.7893 131.634 86.937 132.996 85.5733 133.678V133.507C86.7666 132.826 87.6189 131.464 88.1303 130.272C88.6417 128.909 88.8121 127.547 88.9826 126.185C89.1531 123.29 87.2779 120.906 85.4028 118.862C81.4821 114.775 76.5387 111.71 72.4475 107.623C70.4019 105.409 68.8677 103.196 67.1631 100.812C65.4584 98.4275 63.9242 96.0435 62.3901 93.6594C59.3217 88.721 56.4238 83.7826 53.6964 78.8442C48.2415 68.7971 43.1275 58.4094 39.7182 47.3406C36.4794 36.2717 35.1157 24.692 35.6271 13.1123L36.3089 13.9638C34.7748 13.6232 33.2406 13.1123 31.8768 11.9203C31.195 11.4094 30.6836 10.3877 30.6836 9.36594C30.6836 8.85507 30.6836 8.51449 31.0245 7.83333C31.3655 7.32246 31.7064 7.15217 32.2178 6.98188C33.752 6.13043 35.1157 5.78986 36.6499 5.44928C38.184 5.1087 39.5478 4.76812 41.082 4.42754C46.8778 3.23551 52.844 2.55435 58.8103 2.04348C70.061 0.34058 81.9935 0 93.9261 0C105.859 0 117.621 1.02174 129.383 2.89493C135.179 3.91667 141.145 4.93841 146.77 6.6413C149.668 7.49275 152.566 8.3442 155.123 9.87681C155.464 10.0471 155.805 10.3877 155.975 10.7283C155.975 10.8986 156.146 10.8986 156.146 11.0688C156.146 11.2391 156.146 11.4094 156.146 11.5797C156.146 11.75 155.975 11.9203 155.975 12.0906C155.634 12.7717 154.953 13.4529 154.441 13.9638C153.248 14.8152 151.714 15.4964 150.35 16.0072L150.691 15.6667C149.498 26.7355 147.963 37.6341 145.747 48.5326C145.236 51.2572 144.554 53.9819 143.872 56.7065C143.531 58.0688 143.02 59.4312 142.679 60.7935L141.145 64.7101C138.929 69.8188 136.201 74.7572 133.474 79.5254C127.849 89.0616 121.712 98.4275 114.893 107.112C114.041 108.134 113.189 109.326 112.166 110.348C111.143 111.37 110.12 112.221 109.097 113.243C107.052 115.116 104.836 116.819 102.961 118.862C101.086 120.736 99.2105 123.12 98.8696 125.844C98.1877 128.228 98.5286 131.123 99.8923 133.507Z" fill="black"/>
<path d="M150.35 21.9673C152.396 18.9021 155.123 16.1774 158.191 14.1339C161.26 12.0905 165.01 10.8984 168.931 10.8984C172.681 10.8984 176.602 11.7499 179.841 13.7934C181.375 14.8151 182.909 16.1774 183.932 17.71C185.125 19.2426 185.807 21.1158 186.318 22.989C187.171 26.7354 187.171 30.4818 186.83 34.2281C186.489 37.9745 185.636 41.7209 184.443 45.1267C181.886 52.2789 176.772 58.239 171.147 63.0071C168.249 65.3912 165.351 67.605 162.283 69.8187L153.418 76.46C147.623 80.8876 141.656 85.4854 136.202 90.4238C130.576 95.1919 125.121 100.301 120.519 106.09C119.325 107.453 118.303 108.985 117.45 110.688C116.598 112.221 115.916 113.924 115.916 115.797C115.746 117.67 115.746 119.543 115.916 121.246C115.916 122.098 116.087 123.119 116.428 123.801C116.598 124.141 116.769 124.652 116.939 124.822C117.109 125.163 117.45 125.163 117.621 125.163L117.962 124.993L118.132 125.163C118.814 126.014 119.325 126.866 119.325 128.058C119.325 128.569 118.985 129.25 118.473 129.59C117.962 129.931 117.45 130.101 116.939 130.272C114.893 130.612 112.677 130.101 111.143 128.739C110.291 128.058 109.609 127.036 109.439 126.014C109.098 125.163 109.098 124.311 109.098 123.29C108.927 121.246 109.268 119.373 109.609 117.33C110.632 113.413 112.507 110.007 114.552 106.772C116.769 103.536 119.155 100.471 121.712 97.576C132.281 86.1665 144.043 76.1194 155.464 65.9021C158.362 63.3477 161.089 60.7934 163.987 58.0687C166.715 55.5144 169.101 52.6194 171.147 49.3839C173.192 46.1484 174.897 42.7426 176.261 39.1666C177.454 35.5905 178.306 31.8441 177.624 28.0977C177.284 26.2245 176.431 24.6919 175.238 23.3296C173.874 21.9673 172.34 20.7752 170.806 19.9238C169.101 19.0723 167.397 18.5615 165.521 18.7318C163.646 18.9021 161.942 19.5832 160.578 20.9455C159.214 22.3079 158.191 23.8405 157.339 25.5434C156.487 27.2463 155.634 28.9492 154.612 30.6521C153.418 32.1847 152.055 33.547 150.35 34.5687L149.157 35.4202L148.816 35.5905L148.475 35.7608C148.475 35.7608 148.305 35.931 148.475 35.7608C148.475 35.5905 148.305 35.5905 148.305 35.5905L148.986 35.2499L150.18 34.3984L150.35 34.2281H150.521L150.18 34.3984C150.009 34.5687 149.668 34.739 149.498 34.9093L149.327 34.739C149.498 34.5687 149.668 34.5687 149.839 34.3984L150.18 34.2281H150.35L150.18 34.3984L148.986 35.2499L148.475 35.7608C148.475 35.7608 148.134 35.7608 148.305 35.5905C148.475 35.4202 148.305 35.5905 148.475 35.4202L148.645 35.2499L148.986 35.0796L150.18 34.2281C151.714 33.2064 153.078 31.8441 154.1 30.1412C155.123 28.6086 155.805 26.7354 156.657 25.0325C157.51 23.3296 158.532 21.6267 159.896 20.0941C161.26 18.7318 163.305 17.8803 165.351 17.71C167.397 17.5397 169.442 18.0506 171.147 18.9021C172.851 19.7535 174.556 20.9455 175.92 22.3079C177.284 23.8405 178.306 25.7137 178.818 27.5868C179.5 31.5035 178.818 35.5905 177.454 39.3368C176.261 43.0832 174.556 46.6593 172.511 49.8948C170.465 53.3006 167.908 56.3658 165.181 59.0905C162.453 61.8151 159.555 64.3694 156.657 66.9238L139.44 82.4202C133.815 87.5289 128.19 92.8079 122.905 98.4274C120.348 101.322 117.962 104.217 115.746 107.282C113.7 110.688 111.825 114.094 110.802 117.67C110.291 119.543 110.12 121.417 110.12 123.29C110.12 124.141 110.12 125.333 110.291 126.014C110.461 126.866 110.973 127.547 111.655 128.058C113.018 129.25 114.893 129.59 116.598 129.42C117.45 129.25 118.132 128.909 118.132 128.058C118.132 127.377 117.621 126.355 117.28 125.674L117.791 125.844C117.109 126.014 116.428 125.674 116.087 125.333C115.746 124.822 115.575 124.482 115.405 123.971C115.064 122.949 115.064 122.098 114.893 121.076C114.723 119.203 114.893 117.33 115.064 115.456C115.234 113.583 115.916 111.71 116.769 110.177C117.621 108.475 118.814 106.942 120.007 105.58C122.394 102.685 124.951 99.96 127.508 97.4057C130.065 94.8513 132.792 92.297 135.69 89.9129C141.315 84.9745 146.941 80.3767 152.737 75.7789C158.532 71.181 164.499 66.7535 170.124 61.9854C175.749 57.2173 180.522 51.4274 182.909 44.6158C184.273 41.21 184.954 37.6339 185.295 34.0579C185.636 30.4818 185.807 26.7354 184.954 23.3296C184.443 21.6267 183.932 19.9238 182.909 18.3912C181.886 16.8586 180.693 15.6666 179.159 14.6448C176.261 12.6013 172.511 11.7499 168.931 11.7499C165.351 11.7499 161.771 12.7716 158.532 14.6448C155.294 16.3477 152.566 18.9021 150.35 21.9673Z" fill="black"/>
<path d="M34.7747 20.2643C32.3882 17.5396 29.4903 14.9853 26.2515 13.4527C23.0127 11.7498 19.2624 11.0686 15.8531 12.0904C12.2734 12.9418 9.03453 14.6447 6.47756 17.1991C3.92058 19.7534 2.3864 23.1592 1.70454 26.565C1.02268 30.1411 1.36361 33.7172 1.875 37.2933C2.3864 40.8693 3.57965 44.2751 5.45477 47.5106C9.03453 53.8114 13.978 59.2606 19.2624 64.3693C24.5468 69.478 30.3426 73.9056 36.1385 78.6737C41.7638 83.4418 47.3891 88.3802 52.6735 93.4889C55.401 96.0433 57.958 98.7679 60.3445 101.493C62.9014 104.217 65.2879 107.112 67.3335 110.177C69.3791 113.243 71.4247 116.478 71.9361 120.224C71.9361 121.246 71.9361 122.098 71.5952 123.119C71.2542 124.141 70.5724 124.822 70.061 125.503C69.5496 126.185 69.0382 127.036 68.1859 127.717C68.0154 127.887 67.8449 128.058 67.3335 128.058C67.1631 128.058 66.8221 127.887 66.6517 127.717C66.4812 127.547 66.4812 127.377 66.4812 127.206C66.3107 126.695 66.4812 126.185 66.4812 125.674L67.3335 125.844C67.1631 126.695 66.9926 127.547 67.1631 128.398C67.3335 129.25 68.0154 129.59 68.8677 129.761C70.5724 130.101 72.277 129.25 73.4703 128.058C75.8568 125.503 76.3682 121.416 76.0272 117.84C75.3454 114.264 73.4703 111.029 71.5952 107.793C69.5496 104.558 67.3335 101.663 64.947 98.7679C60.174 92.978 54.8896 87.6991 49.2643 82.7606C43.6389 77.8222 37.5022 73.2244 31.7064 68.4563C25.9106 63.6882 20.1147 58.7498 15.0008 52.7896C12.4438 49.8947 10.2278 46.8295 8.52314 43.2534C6.81849 39.8476 5.7957 35.9309 6.30709 32.0143C6.81849 28.0976 8.86407 24.5215 11.421 21.7969C12.7848 20.4346 14.1485 19.0722 15.8531 18.0505C16.7055 17.5396 17.7282 17.3693 18.751 17.1991C19.7738 17.1991 20.7966 17.3693 21.6489 17.7099C23.524 18.5614 24.8878 19.9237 26.2515 21.286C27.4447 22.8186 28.4675 24.3512 29.4903 26.0541C30.5131 27.757 31.3654 29.2896 32.3882 30.9925C32.8996 31.844 33.411 32.6954 34.0929 33.036L35.2861 33.7172L35.968 34.0578L36.3089 34.228C36.1385 34.5686 36.1385 34.228 36.1385 34.3983V34.0578V33.8875H36.3089C36.3089 33.8875 36.3089 33.7172 36.3089 34.0578H35.968L35.2861 33.7172L34.0929 33.036C33.2406 32.5251 32.7292 31.6737 32.2178 30.9925C31.195 29.4599 30.1722 27.757 29.1494 26.2244C28.1266 24.6918 27.1038 23.1592 25.9106 21.6266C24.7173 20.2643 23.3536 18.902 21.6489 18.3911C19.9443 17.7099 18.0692 17.8802 16.535 18.7317C15.0008 19.4128 13.6371 20.7751 12.4438 22.1375C10.0573 24.8621 8.18221 28.2679 7.67081 31.844C7.32988 35.4201 8.35267 39.1664 10.0573 42.402C11.762 45.6375 13.978 48.7027 16.535 51.4273C21.4785 57.0469 27.2743 61.9853 33.0701 66.7534C38.8659 71.5215 45.0026 75.9491 50.628 81.0577C56.2533 86.1664 61.7082 91.6157 66.4812 97.4056C68.8677 100.301 71.0838 103.366 73.1293 106.772C75.0045 110.007 76.8796 113.413 77.7319 117.329C78.0728 119.373 77.7319 121.246 77.391 123.119C76.8796 124.993 76.1977 126.866 74.6635 128.398C73.2998 129.931 71.0838 130.782 69.0382 130.442C68.5268 130.442 68.0154 130.101 67.504 129.761C66.9926 129.42 66.8221 128.909 66.6517 128.398C66.3107 127.377 66.4812 126.355 66.8221 125.333L67.6745 125.503C67.6745 125.844 67.504 126.355 67.6745 126.695C67.6745 126.866 67.6745 126.866 67.6745 126.866C67.6745 126.866 67.8449 126.866 68.0154 126.695C68.6973 126.185 69.2086 125.503 69.72 124.652C70.2314 123.971 70.9133 123.119 71.2542 122.438C71.5952 121.587 71.5952 120.735 71.5952 119.884C71.2542 116.308 69.2086 113.072 67.1631 110.007C62.9014 103.877 57.7875 98.5976 52.5031 93.4889C47.2187 88.3802 41.5933 83.6121 35.7975 79.0143C30.0017 74.4164 24.0354 69.9889 18.5806 65.0505C15.8531 62.4962 13.2962 59.9418 10.7392 57.0469C8.35267 54.152 5.96616 51.257 4.26151 47.8512C2.3864 44.6157 1.19314 40.8693 0.681749 37.123C0.170355 33.3766 -0.170575 29.6302 0.681749 25.8838C1.36361 22.1375 3.23872 18.5614 5.96616 16.007C8.52314 13.4527 11.9324 11.7498 15.6827 11.0686C19.4329 10.2172 23.3536 11.0686 26.5924 12.9418C29.8313 14.6447 32.7292 17.1991 34.7747 20.2643Z" fill="black"/>
<path d="M76.1978 106.261C78.9252 107.112 81.8231 107.623 84.5505 107.964C87.4484 108.304 90.1759 108.475 93.0738 108.304C95.9717 108.134 98.6991 107.793 101.597 107.623C104.495 107.453 107.222 107.112 110.12 106.601V106.772C107.393 108.134 104.665 108.815 101.767 109.326C98.8696 109.837 95.9717 109.837 93.0738 109.667C87.278 109.667 81.4822 108.645 76.1978 106.261Z" fill="black"/>
<path d="M41.9341 11.2392C42.6159 19.2428 43.9797 28.9493 47.389 39.5073C53.8666 59.942 64.4354 74.587 71.9359 83.6123C57.6169 59.6015 58.8101 49.0435 57.1055 35.25C57.1055 30.3116 57.2759 24.5218 58.2987 18.3913C58.8101 15.3261 59.3215 12.4312 60.0034 9.70654" fill="white"/>
<path d="M42.1047 15.1557C41.7638 18.7317 42.1047 22.1375 42.6161 25.7136C43.1275 29.1194 43.9798 32.6955 45.0026 35.931C47.0482 42.7426 49.7756 49.2136 53.0145 55.5144C56.2533 61.8151 59.8331 67.9455 63.7538 73.9057C67.6745 79.8658 71.9361 85.4854 76.5386 90.9346L75.6863 91.4455C72.6179 85.4854 69.72 79.3549 67.1631 73.0542C64.6061 66.7535 62.2196 60.4528 60.3445 53.9817C59.4921 50.7462 58.6398 47.3404 58.2989 43.9346C57.958 40.5288 57.9579 37.123 57.9579 33.7172C58.1284 26.9057 58.6398 20.2644 59.8331 13.623H60.0035C59.3217 20.2644 59.1512 27.0759 59.3217 33.7172C59.4921 37.123 59.4921 40.5288 60.0035 43.7644C60.174 45.4673 60.5149 46.9999 60.8559 48.7028C61.1968 50.2354 61.5377 51.9383 62.0491 53.4709C62.9014 56.7064 64.0947 59.7716 65.1175 63.0071C66.1403 66.2426 67.3335 69.3078 68.6972 72.3731C71.2542 78.6738 73.8112 84.8042 76.5386 90.9346L78.4137 95.1919L75.6863 91.6158C71.4247 85.9962 67.3335 80.0361 63.2424 74.2462C59.3217 68.4564 55.2305 62.4962 51.8212 56.1955C50.1166 53.1303 48.5824 49.8948 47.2187 46.489C45.8549 43.2535 44.6617 39.8477 43.8094 36.2716C42.7866 32.8658 42.2752 29.2897 41.7638 25.7136C41.5933 24.0107 41.4229 22.1375 41.4229 20.4346C41.4229 18.5615 41.4229 16.8586 42.1047 15.1557Z" fill="black"/>
<path d="M41.9341 11.0686C50.4573 10.0469 59.151 9.02517 67.6743 8.17372C76.1975 7.32227 84.8912 6.64111 93.585 6.64111C102.279 6.64111 110.972 7.32227 119.496 8.5143C123.757 9.02517 128.019 9.70633 132.28 10.5578C136.542 11.4092 140.804 12.0904 144.895 13.623C142.849 13.1121 140.633 12.7715 138.588 12.431C136.372 12.0904 134.326 11.7498 132.11 11.5795C127.848 11.0686 123.587 10.5578 119.325 10.2172C110.802 9.36575 102.108 8.34401 93.585 8.00343C85.0617 7.83314 76.368 8.5143 67.8447 9.02517C59.151 9.70633 50.6278 10.3875 41.9341 11.0686Z" fill="black"/>
</g>
<defs>
<clipPath id="clip0_44_480">
<rect width="187" height="188" fill="white"/>
</clipPath>
</defs>
</svg>
