<svg width="268" height="240" viewBox="0 0 268 240" fill="none" xmlns="http://www.w3.org/2000/svg">
<g clip-path="url(#clip0_5_131)">
<path d="M158.394 213.047C231.036 195.793 278.915 135.198 265.334 77.7047C251.754 20.2118 181.856 -12.4076 109.214 4.84715C36.571 22.1019 -11.308 82.6969 2.27269 140.19C15.8534 197.683 85.7511 230.302 158.394 213.047Z" fill="#FFBA4A"/>
<path d="M86.8531 11.762C88.5287 10.9219 89.9251 10.6418 91.3214 10.3618C92.7178 10.0817 94.1141 9.52163 95.5105 9.24158C98.3032 8.40144 101.375 7.84135 104.168 7.5613C110.033 6.72116 115.897 5.88102 122.041 5.88102C134.05 5.60097 146.058 7.00121 157.788 8.96153C169.517 10.6418 180.967 12.3221 192.697 13.4423C204.426 14.5625 216.155 15.6827 227.885 16.5228L232.074 16.8028L231.236 21.0035C228.164 38.6465 225.93 56.2894 224.813 74.2124C223.696 92.1354 223.416 110.058 224.813 127.981C225.93 145.904 228.722 163.827 232.632 181.19C236.542 198.833 242.127 215.916 248.551 232.719L249.947 236.359L246.316 235.519L196.886 222.637C180.409 218.156 163.932 213.956 147.455 209.475L150.247 209.195L89.0872 237.2L82.9433 240V232.999C82.9433 214.236 82.9433 195.753 83.2226 176.99C83.2226 158.226 83.7811 139.743 84.0604 121.26L84.6189 93.5356L85.4567 66.0911C85.736 47.888 86.2945 29.685 86.8531 11.762ZM87.6909 12.3221C88.2494 31.0852 89.0872 49.8484 89.3665 68.3314L90.2043 96.0561L90.7629 123.501C91.0421 141.704 91.6007 160.187 91.6007 178.39C91.8799 196.593 91.8799 214.796 91.8799 232.999L85.4567 228.798L147.175 201.634L148.572 201.074L149.968 201.354C166.445 206.114 182.643 211.155 198.84 216.196L247.713 231.319L245.479 233.839C239.614 216.756 234.866 199.393 230.677 181.75C228.722 173.069 226.767 164.107 225.371 155.146C223.696 146.184 222.578 137.223 221.461 128.261C219.227 110.338 218.389 92.1354 218.669 73.9324C218.948 55.7293 220.903 37.5263 224.254 19.6033L227.605 24.0841C215.876 22.9639 203.867 21.8437 192.138 20.1634C180.409 18.4831 168.679 16.8028 156.95 14.2824C151.085 13.1622 145.5 12.042 139.635 11.2019C133.77 10.3618 128.185 9.80167 122.32 9.52163C116.456 9.24158 110.591 9.52163 104.726 9.80167C101.934 10.0817 98.8617 10.3618 96.069 10.9219C94.6727 11.2019 93.2763 11.482 91.6007 11.762C90.4836 11.762 88.808 12.3221 87.6909 12.3221Z" fill="black"/>
<path d="M185.156 124.341C175.382 119.58 165.328 114.819 154.716 109.778H156.112L127.068 126.301L122.32 129.102L123.438 123.781L129.861 91.0152L130.419 92.4154L106.961 68.6115L105.843 67.4913L107.519 67.2112L140.473 61.6103L139.077 62.4504L153.04 31.9253L155.274 27.1646L157.508 31.9253L172.589 61.8903L170.355 60.4901L203.309 64.9709L209.174 65.811L204.705 69.7316L180.129 92.1354L180.688 90.7352C182.364 102.497 183.481 113.699 185.156 124.341ZM184.598 124.061C182.364 112.579 179.85 101.937 177.616 91.5753L177.337 90.7352L177.895 90.1751L200.795 65.811L202.471 70.5718L169.517 65.811L168.121 65.5309L167.562 64.4108L152.761 34.4458H157.229L141.869 64.1307L141.311 64.9709H140.473L107.24 69.1716L107.798 67.7713L132.374 90.4551L132.933 91.0152V91.8553L128.185 124.901L124.555 122.38L154.437 107.818L155.274 107.538L155.833 107.818C165.328 112.859 174.544 118.46 184.598 124.061Z" fill="black"/>
</g>
<defs>
<clipPath id="clip0_5_131">
<rect width="267.541" height="240" fill="white"/>
</clipPath>
</defs>
</svg>
