<svg width="298" height="240" viewBox="0 0 298 240" fill="none" xmlns="http://www.w3.org/2000/svg">
<g clip-path="url(#clip0_5_50)">
<path d="M166.787 228.059C248.256 214.865 306.171 153.679 296.144 91.3959C286.117 29.1127 211.945 -10.6822 130.476 2.5114C49.0067 15.705 -8.9087 76.891 1.11821 139.174C11.1451 201.457 85.3174 241.252 166.787 228.059Z" fill="#FFBA4A"/>
<path d="M11.233 131.004C11.4943 118.952 12.0167 106.638 14.3678 94.5851C15.674 88.5589 17.5026 82.5327 20.6375 77.2926C22.2049 74.6725 24.2947 72.3144 26.6458 70.2183C28.9969 68.1222 31.8705 66.5502 34.7441 65.5022C40.4912 63.1441 46.4996 61.572 52.508 60.524C58.5163 59.2139 64.5247 58.4279 70.5331 57.3799C82.5498 55.8078 94.8278 54.7598 106.845 53.9738C119.123 53.1877 131.139 53.1877 143.417 53.1877C149.426 53.1877 155.695 53.4498 161.704 53.7118C167.712 53.9738 173.72 54.2358 179.729 54.2358L216.04 55.2838C228.318 55.8078 240.596 57.1179 252.352 60.262C258.36 61.834 264.107 63.6681 269.593 66.5502C272.467 67.8602 275.079 69.4323 277.43 71.5284C279.781 73.3624 282.132 75.7205 283.961 78.3406C287.357 83.8428 288.402 90.131 289.186 96.1572C289.969 102.183 290.231 108.21 290.492 114.498C291.014 126.55 291.014 138.865 291.014 150.917C291.014 162.969 291.276 175.284 291.014 187.336C291.014 193.362 290.753 199.651 290.492 205.677C290.231 211.703 289.447 217.991 288.141 224.017C287.357 227.162 286.573 230.044 285.006 233.188C284.222 234.76 283.177 236.07 281.871 237.38C280.565 238.69 278.998 239.476 277.169 240C273.773 241.048 270.116 240.262 266.981 239.214C263.846 238.166 260.972 236.594 258.36 234.76C253.135 231.354 248.433 227.162 244.253 222.707C239.813 218.253 235.894 213.799 231.976 209.083C224.139 199.651 216.824 189.694 210.032 179.738L212.122 180.786H150.993L89.8644 180.524L92.2155 179.214C83.856 193.886 74.7128 208.035 63.4798 220.873C60.6062 224.017 57.7326 227.162 54.5978 230.044C51.463 232.926 47.8058 235.546 43.8872 237.642C39.9687 239.738 35.2665 241.048 30.5643 239.738C25.8621 238.69 22.4661 234.76 20.115 231.092C15.674 223.493 14.1066 214.847 12.8004 206.725C11.4943 198.341 10.9718 189.956 10.7106 181.572C10.7106 164.541 10.9718 147.773 11.233 131.004ZM11.7555 131.004C11.4943 147.773 11.4943 164.541 12.5392 181.31C13.0617 189.694 14.1066 198.079 15.4128 206.201C16.9802 214.323 18.8088 222.707 23.2498 229.52C25.3397 232.926 28.2132 235.546 31.8705 236.332C35.5278 237.118 39.185 236.07 42.5811 233.974C49.3732 230.044 55.3815 224.017 60.6062 217.729C65.8309 211.441 70.7943 204.629 75.2353 197.555C79.6763 190.48 84.1172 183.406 88.0357 176.332L88.8194 175.022H90.3868H151.516L212.644 175.546H213.95L214.734 176.594C221.265 186.55 228.318 196.507 236.155 205.939C243.731 215.109 251.829 224.279 261.495 231.092C263.846 232.664 266.458 234.236 269.071 235.284C271.683 236.332 274.295 236.594 276.908 236.07C279.259 235.546 281.087 233.712 282.655 231.354C283.961 228.996 285.006 226.114 285.528 223.231C288.141 211.703 288.663 199.389 289.186 187.336C289.708 175.284 289.708 162.969 289.708 150.917C289.708 138.865 289.708 126.55 289.447 114.498C289.186 108.472 288.663 102.445 287.88 96.4192C287.096 90.393 285.79 84.3668 282.655 79.3886C281.087 77.0305 278.998 74.9345 276.646 73.1004C274.295 71.2663 271.683 69.6943 269.071 68.6463C263.585 66.0262 257.838 64.4541 252.09 62.8821C240.335 60.262 228.318 59.2139 216.301 58.9519C204.285 58.9519 192.007 58.9519 179.99 58.6899C173.982 58.6899 167.973 58.4279 161.704 58.1659C155.695 57.9039 149.687 57.9039 143.679 57.9039C131.662 57.6419 119.384 57.9039 107.367 58.1659C95.3503 58.6899 83.3335 59.2139 71.3168 60.524C59.3 61.834 47.2833 63.1441 36.0502 67.3362C33.1767 68.3843 30.5643 69.6943 28.2132 71.5284C25.6009 73.3624 23.511 75.4585 21.6824 78.0786C18.2863 83.0567 16.4577 88.8209 15.1515 94.8471C12.5392 106.638 12.0167 118.69 11.7555 131.004Z" fill="black"/>
<path d="M123.825 115.808C123.825 127.598 119.645 139.913 111.286 148.821C103.187 157.991 90.6481 163.231 78.3701 162.969C72.3617 162.707 66.0921 161.397 60.6062 159.039C55.1203 156.419 50.1569 153.013 45.9771 148.559C37.6177 139.913 32.393 128.122 32.1318 116.07C31.6093 104.017 36.5727 91.441 45.1934 82.7947C53.8141 73.8864 66.0921 68.6462 78.3701 68.6462C84.6397 68.6462 90.6481 69.9563 96.3952 72.3144C102.142 74.6724 107.106 78.3406 111.286 83.0567C119.645 91.703 123.825 103.755 123.825 115.808ZM123.564 115.808C123.564 104.017 118.078 92.227 109.718 84.6288C101.097 76.7685 89.8644 72.3144 78.6313 72.3144C67.3983 72.3144 55.904 76.7685 47.8058 84.8908C39.7075 93.0131 34.7441 104.017 34.2216 115.808C33.9604 127.336 38.4014 139.389 47.0221 147.511C55.3816 155.895 67.1371 160.087 78.6313 159.825C90.1256 159.563 101.359 155.109 109.979 147.249C118.078 139.127 123.564 127.598 123.564 115.808Z" fill="black"/>
<path d="M273.25 117.904C273.25 129.694 269.071 142.009 260.711 150.917C252.613 160.087 240.074 165.327 227.796 165.065C221.787 164.803 215.518 163.493 210.032 161.135C204.546 158.515 199.583 155.109 195.403 150.655C187.043 142.009 181.819 130.218 181.557 118.166C181.035 106.113 185.998 93.5371 194.619 84.8908C203.24 75.9825 215.518 70.7423 227.796 70.7423C234.065 70.7423 240.074 72.0524 245.821 74.4104C251.568 76.7685 256.531 80.4366 260.711 85.1528C268.809 93.7991 273.25 105.851 273.25 117.904ZM272.728 117.904C272.728 106.113 267.242 94.3231 258.883 86.7248C250.262 78.8646 239.029 74.4104 227.796 74.4104C216.563 74.4104 205.068 78.8646 196.97 86.9869C188.872 95.1091 183.909 106.113 183.386 117.904C183.125 129.432 187.566 141.485 196.186 149.607C204.546 157.991 216.301 162.183 227.796 161.921C239.29 161.659 250.523 157.205 259.144 149.345C267.503 141.223 272.989 129.694 272.728 117.904Z" fill="black"/>
<path d="M171.892 129.694C165.361 130.218 158.569 130.48 151.516 130.48C148.119 130.48 144.462 130.742 141.066 130.48C137.67 130.48 134.013 130.218 130.617 129.956H130.094V129.432C130.356 125.764 130.356 121.834 130.356 118.166C130.356 114.498 130.356 110.568 130.094 106.9V106.376H130.878C137.67 106.114 144.723 105.852 151.516 105.852C158.308 105.59 165.361 105.852 172.153 105.852H173.198V106.9C173.198 110.83 172.937 114.76 172.675 118.428L171.892 129.694ZM171.631 129.432L171.108 117.904C170.847 114.236 170.847 110.568 170.586 106.9L171.631 107.948C164.838 108.21 157.785 108.21 150.993 107.948C144.201 107.948 137.148 107.686 130.356 107.424L131.139 106.638C130.878 110.306 130.878 114.236 130.878 117.904C130.878 121.572 130.878 125.502 131.139 129.17L130.617 128.908C134.013 128.646 137.409 128.646 140.805 128.384C144.201 128.384 147.597 128.384 150.993 128.384C157.524 128.908 164.316 129.17 171.631 129.432Z" fill="black"/>
<path d="M57.9939 57.6419C56.6878 53.1878 56.1653 48.7336 55.6428 44.0175L55.3816 42.4454H57.2102C59.5613 42.4454 61.9124 42.4454 64.2635 42.4454L71.3168 43.2314C76.019 43.7554 80.7213 43.2314 85.4235 42.7074C90.1257 42.1834 94.8279 42.1834 99.5301 41.9214C104.232 41.9214 108.934 42.1834 113.637 42.4454H115.204V43.7555C114.943 46.6375 114.682 49.7817 113.898 52.6637H113.637C113.114 49.7817 112.853 46.6375 112.331 43.7555L113.637 45.0655C108.934 45.5895 104.232 45.8515 99.5301 45.5895C94.8279 45.3275 90.1257 45.3275 85.4235 44.8035C80.7213 44.2795 76.019 43.7554 71.3168 44.2795L64.2635 45.0655C61.9124 45.3275 59.5613 45.3275 57.2102 45.0655L58.7776 43.4934C58.7776 47.9476 58.7776 52.6637 58.2552 57.1179L57.9939 57.6419Z" fill="black"/>
<path d="M189.656 52.9258C188.872 49.7817 188.611 46.3755 188.349 43.2314V41.9214H189.917C192.268 41.9214 194.619 41.9214 196.97 41.9214C199.321 41.9214 201.672 42.4454 204.024 42.7074C208.726 43.4934 213.167 43.7554 217.869 43.4934C222.571 43.2314 227.273 42.9694 231.714 43.2314C236.416 43.2314 241.119 43.4934 245.56 44.0175L247.127 44.2795V45.5895C246.866 49.2576 246.343 53.1878 245.821 56.8559H245.56C244.776 53.1878 244.515 49.2576 244.254 45.5895L245.56 47.1616C240.857 47.4236 236.155 47.1616 231.714 46.8996C227.012 46.6375 222.571 46.1135 217.869 45.3275C213.167 44.5415 208.726 44.2795 204.024 44.8035C201.672 45.0655 199.321 45.0655 196.97 45.0655C194.619 45.0655 192.268 44.8035 189.917 44.5415L191.484 43.2314C191.223 46.3755 190.962 49.7817 190.178 52.9258H189.656Z" fill="black"/>
<path d="M62.6961 115.284C62.6961 118.166 61.9124 121.31 60.0838 123.93C58.2551 126.55 54.5978 128.122 51.463 127.86C48.067 127.598 45.1934 125.764 43.1036 123.406C41.0137 121.048 39.4463 118.166 39.1851 115.022C38.9238 111.878 39.9688 108.21 42.3199 105.852C44.671 103.231 48.067 101.659 51.463 101.921C54.8591 101.921 58.2551 103.493 60.345 106.376C61.9124 109.258 62.6961 112.402 62.6961 115.284ZM62.4349 115.284C62.4349 112.402 60.6062 109.782 58.5163 108.21C56.1652 106.638 53.8141 105.852 51.463 106.114C49.1119 106.114 46.4996 106.9 44.671 108.734C42.8423 110.306 41.5362 112.664 41.2749 115.546C41.0137 118.166 41.7974 121.31 43.8873 123.144C45.9771 124.978 48.8507 125.502 51.463 125.24C54.0754 124.978 56.4265 124.192 58.5163 122.62C60.6062 121.048 62.4349 118.166 62.4349 115.284Z" fill="black"/>
<path d="M88.2969 93.0131C88.2969 96.1572 87.5132 99.3013 85.4234 102.183C83.3335 104.803 79.9375 106.638 76.2802 106.376C72.8841 106.114 69.7493 104.279 67.6595 101.921C65.5696 99.5633 64.0022 96.6812 63.741 93.2751C63.4797 89.869 64.5247 86.4629 66.8758 83.8428C69.2269 81.2227 72.6229 79.6506 76.2802 79.6506C79.9375 79.6506 83.3335 81.4847 85.4234 84.1048C87.5132 86.7249 88.2969 90.131 88.2969 93.0131ZM87.7745 93.0131C87.7745 89.869 85.9458 87.2489 83.5947 85.6768C81.2436 84.1048 78.8925 83.3188 76.2802 83.3188C73.6678 83.3188 71.3167 84.1048 69.2269 85.9388C67.3982 87.7729 66.0921 90.131 65.5696 93.0131C65.3084 95.8952 66.0921 98.7773 68.4432 100.873C70.533 102.969 73.6678 103.493 76.2802 103.231C78.8925 102.969 81.5049 102.183 83.5947 100.611C86.2071 99.0393 88.0357 96.1572 87.7745 93.0131Z" fill="black"/>
<path d="M87.7745 115.284C87.7745 112.402 88.5582 109.258 90.3869 106.638C92.2155 104.017 95.8728 102.445 99.0076 102.707C102.404 102.969 105.277 104.804 107.367 107.162C109.457 109.52 111.024 112.402 111.286 115.546C111.547 118.69 110.502 122.358 108.151 124.716C105.8 127.336 102.404 128.908 99.0076 128.646C95.6116 128.646 92.2155 127.074 90.1256 124.192C88.297 121.31 87.7745 118.166 87.7745 115.284ZM88.0358 115.284C88.0358 118.166 89.8644 120.786 91.9543 122.358C94.3054 123.93 96.6565 124.716 99.0076 124.454C101.359 124.454 103.971 123.668 105.8 121.834C107.628 120.262 108.934 117.904 109.196 115.022C109.457 112.402 108.673 109.258 106.583 107.424C104.494 105.59 101.62 105.066 99.0076 105.328C96.3953 105.59 94.0442 106.376 91.9543 107.948C89.8644 109.782 88.0358 112.402 88.0358 115.284Z" fill="black"/>
<path d="M87.7745 141.747C87.7745 144.891 86.9908 148.297 84.9009 151.179C82.811 154.061 79.1538 155.633 75.4965 155.371C71.8392 155.109 68.7044 153.013 66.6145 150.655C64.2634 148.297 62.696 145.153 62.4348 141.747C62.1736 138.341 63.2185 134.672 65.8308 132.052C68.1819 129.432 71.8392 127.598 75.4965 127.86C79.1538 127.86 82.811 129.694 84.9009 132.576C86.9908 135.196 87.7745 138.603 87.7745 141.747ZM87.5132 141.747C87.5132 138.603 85.6846 135.72 83.3335 133.886C80.9824 132.314 78.3701 131.266 75.4965 131.528C72.8841 131.528 70.2718 132.576 68.1819 134.41C66.0921 136.245 64.7859 138.865 64.5247 141.747C64.2634 144.629 65.3084 147.773 67.3982 149.869C69.7493 151.965 72.8841 152.489 75.4965 152.227C78.3701 151.965 80.9824 151.179 83.3335 149.345C85.6846 148.035 87.5132 144.891 87.5132 141.747Z" fill="black"/>
<path d="M197.493 107.162C203.762 106.9 210.554 106.376 217.608 106.114L216.563 107.162C216.302 100.611 216.04 94.3232 216.04 87.773V86.2009H217.608C223.355 86.2009 229.102 86.2009 234.849 86.2009H236.417V87.773C236.417 94.3232 235.894 100.611 235.894 107.162L234.849 106.114C241.641 106.376 248.694 106.638 255.487 106.638H256.009V107.162V116.856C256.009 120 256.27 123.406 256.27 126.55V127.336H255.225C248.956 127.598 242.947 127.86 236.678 127.86L238.245 126.288C238.506 133.1 238.506 139.913 238.506 146.725V148.559H236.678C230.147 148.559 223.616 148.821 217.085 148.821H214.995V146.987C214.995 140.175 214.995 133.362 215.257 126.55L216.824 128.122C210.293 127.86 203.501 127.86 196.97 127.598H195.925V126.55C196.709 119.738 197.231 113.188 197.493 107.162ZM197.754 107.424C198.015 114.236 198.538 120.524 198.799 126.55L197.754 125.502C204.285 125.24 211.077 124.978 217.608 124.978H219.175V126.812C219.436 133.625 219.436 140.437 219.436 147.249L217.346 145.153C223.877 145.153 230.408 145.153 236.939 145.415L235.11 147.249C235.11 140.437 235.372 133.625 235.372 126.812V125.24H236.939C243.209 125.24 249.217 125.502 255.487 125.764L254.442 126.812C254.442 123.668 254.703 120.262 254.703 117.118V107.424L255.225 107.948C248.433 107.948 241.38 107.948 234.588 108.472H233.543V107.424C233.282 100.873 233.02 94.5852 233.02 88.035L234.588 89.607C228.841 89.607 223.094 89.607 217.346 89.607L218.914 88.035C218.914 94.5852 218.653 100.873 218.391 107.424V108.472H217.346C211.338 108.21 204.807 107.686 197.754 107.424Z" fill="black"/>
</g>
<defs>
<clipPath id="clip0_5_50">
<rect width="297.284" height="240" fill="white"/>
</clipPath>
</defs>
</svg>
