<svg width="658" height="109" viewBox="0 0 658 109" fill="none" xmlns="http://www.w3.org/2000/svg">
<g clip-path="url(#clip0_101_2)">
<path d="M9.48881 101.888C9.48881 110.368 621.354 112.009 621.354 103.802C621.354 101.067 551.987 98.8784 551.987 92.0395C551.66 83.5593 658 76.9939 657.673 68.5137C657.346 60.8541 565.075 60.5805 563.766 47.997C563.112 41.1581 589.288 37.6018 589.288 33.2249C587.979 12.4347 22.5768 17.0851 22.2496 30.2158C22.2496 33.4985 58.2417 36.5076 57.5873 41.4316C57.2601 47.7234 0 48.5441 0 52.6474C0 57.2979 71.6569 60.0334 71.6569 66.5988C71.6569 71.5228 32.72 74.5319 32.72 80.5501C32.72 85.2006 59.2233 86.8419 59.2233 90.9453C59.5505 96.1428 9.48881 99.4255 9.48881 101.888Z" fill="#FFBA4A"/>
</g>
<g filter="url(#filter0_d_101_2)">
<path d="M149.37 69.0452C149.37 71.4028 148.287 73.41 146.12 75.0668C147.395 75.5765 148.096 75.8633 148.223 75.927C148.797 76.3093 149.083 76.9465 149.083 77.8386C149.083 79.113 148.606 80.483 147.65 81.9486C146.63 83.6053 145.515 84.4337 144.304 84.4337C143.667 84.4337 142.584 83.8921 141.055 82.8088C140.354 82.2991 139.302 81.5344 137.901 80.5149C129.489 75.2898 118.912 69.9373 106.168 64.4573C106.359 66.6875 106.709 69.3319 107.219 72.3905C107.346 73.0277 107.729 74.2703 108.366 76.1182C109.003 77.9023 109.322 79.1768 109.322 79.9414C109.322 82.1079 107.506 83.1912 103.874 83.1912C102.217 83.1912 101.07 82.9044 100.433 82.3309C99.8593 81.6937 99.5725 80.5468 99.5725 78.89C98.7441 79.2086 97.7246 79.3679 96.5139 79.3679C93.2642 79.3679 91.6393 78.444 91.6393 76.5961C91.6393 75.7677 91.7667 74.6526 92.0216 73.2507C92.3402 71.594 92.5314 70.4789 92.5951 69.9054C93.2323 62.5138 93.5509 55.0266 93.5509 47.4438C93.5509 39.0964 93.0093 32.2783 91.926 26.9895C89.0586 26.0974 87.6249 24.4088 87.6249 21.9237C87.6249 20.3944 88.2939 19.1519 89.6321 18.196C90.7791 17.3677 92.149 16.9216 93.7421 16.8579V16.4756C100.879 12.4612 107.697 10.454 114.196 10.454C115.216 10.454 118.37 10.8044 123.659 11.5054C125.953 11.7603 129.394 12.2382 133.982 12.9391C137.614 13.5763 140.8 14.8188 143.54 16.6667C149.402 20.6812 152.333 25.3646 152.333 30.7172C152.333 37.2804 148.733 42.8878 141.533 47.5394C136.307 50.9166 129.776 53.5292 121.938 55.3771L140.672 64.5529C141.819 64.8715 143.54 65.3812 145.834 66.0822C148.191 66.7831 149.37 67.7708 149.37 69.0452ZM145.738 31.2906C145.738 27.5311 142.934 24.7911 137.327 23.0707C138.092 25.046 138.474 27.0214 138.474 28.9967C138.474 35.3051 135.065 40.6576 128.247 45.0543C139.908 41.8046 145.738 37.2167 145.738 31.2906ZM131.879 26.9895C131.879 24.8867 130.668 23.1344 128.247 21.7325H126.335C119.326 21.7325 111.233 23.0707 102.058 25.7469C102.44 26.3842 102.631 27.1807 102.631 28.1365C102.631 28.71 102.536 29.6021 102.344 30.8127C102.217 31.9597 102.153 32.8199 102.153 33.3934C102.153 34.413 102.472 37.2485 103.109 41.9001C116.363 41.3267 125.029 38.4911 129.107 33.3934C130.955 31.0995 131.879 28.9648 131.879 26.9895ZM140.386 73.2507C132.612 68.0894 122.639 62.8324 110.469 57.4799L108.557 57.671C118.306 62.5775 128.916 67.7708 140.386 73.2507ZM187.794 93.9918C185.054 93.9918 182.505 93.2272 180.147 91.6979C177.853 90.1686 176.26 88.1295 175.368 85.5807C172.501 84.2426 169.283 81.7893 165.715 78.2209C161.764 74.2065 159.789 70.8931 159.789 68.2805C159.789 67.1973 160.235 66.0184 161.127 64.744C162.083 63.4059 163.07 62.7368 164.09 62.7368C164.918 62.7368 165.906 63.7245 167.053 65.6998C169.156 69.2682 171.29 71.8807 173.457 73.5375C173.775 66.9742 174.986 63.6926 177.089 63.6926C180.147 63.6926 181.677 65.2219 181.677 68.2805C181.677 69.1726 181.549 70.4789 181.294 72.1993C181.039 73.8561 180.912 75.1305 180.912 76.0226C180.912 76.5323 180.944 77.0103 181.008 77.4563C182.919 78.0935 185.022 78.4121 187.316 78.4121C194.962 78.4121 201.08 75.927 205.667 70.9568C207.515 68.9814 208.439 67.261 208.439 65.7954C208.439 65.1582 208.344 64.6803 208.153 64.3617C206.56 61.4943 202.45 59.3596 195.823 57.9578C191.617 57.1931 185.341 55.9187 176.993 54.1345C169.92 52.3503 164.791 48.8457 161.605 43.6206C160.139 41.1992 159.406 38.5548 159.406 35.6874C159.406 29.6976 162.21 24.7911 167.817 20.9679C172.788 17.527 178.395 15.8065 184.64 15.8065C189.291 15.8065 194.453 16.5393 200.124 18.0049C207.77 19.9802 211.594 22.5928 211.594 25.8425C211.594 27.0532 211.339 28.2639 210.829 29.4746C210.192 31.0039 209.363 31.7686 208.344 31.7686C207.834 32.4695 207.229 32.8199 206.528 32.8199C206.337 32.8199 204.329 31.8004 200.506 29.7614C196.683 27.6586 193.911 26.6072 192.191 26.6072C189.005 26.6072 185.723 27.786 182.346 30.1437C178.714 32.6925 176.898 35.4962 176.898 38.5548C176.898 40.5302 178.236 42.0276 180.912 43.0471C182.951 43.8118 185.149 44.1941 187.507 44.1941C189.928 44.1941 193.497 43.8755 198.212 43.2383C202.991 42.5374 206.591 42.1869 209.013 42.1869C213.919 42.1869 217.902 43.3339 220.96 45.6278C224.401 48.1766 226.122 51.8406 226.122 56.6196C226.122 64.2024 221.63 72.3268 212.645 80.9928C203.724 89.6588 195.44 93.9918 187.794 93.9918ZM218.571 57.0975C218.571 53.7841 214.907 52.1273 207.579 52.1273C212.422 54.8673 215.162 58.595 215.799 63.3103C217.647 60.188 218.571 58.1171 218.571 57.0975ZM171.927 29.2834C168.614 31.3225 166.957 33.4572 166.957 35.6874C166.957 37.153 167.786 38.5548 169.442 39.8929V38.9371C169.442 35.6237 170.271 32.4058 171.927 29.2834ZM320.269 59.0092C321.289 59.0092 322.085 59.7101 322.659 61.1119C323.105 62.1952 323.328 63.3422 323.328 64.5529C323.328 67.6115 322.149 69.1726 319.791 69.2363C319.473 70.9568 318.708 71.9763 317.497 72.2949H313.578C311.157 72.2949 300.771 74.8119 282.419 79.8458C281.973 79.9733 280.922 80.483 279.265 81.3751C277.863 82.076 276.812 82.4265 276.111 82.4265C274.518 82.4265 273.721 80.6105 273.721 76.9784C273.721 75.4491 273.849 74.4614 274.104 74.0154C274.422 73.5056 275.25 73.0596 276.589 72.6772L276.302 72.0082L275.25 72.1038C274.486 72.1038 273.626 71.9763 272.67 71.7214C272.67 72.1038 272.702 72.6772 272.765 73.4419C272.829 74.1428 272.861 74.6844 272.861 75.0668C272.861 77.1696 271.65 78.2209 269.229 78.2209C267.891 78.2209 266.616 77.9342 265.406 77.3607C263.94 76.6598 263.207 75.7358 263.207 74.5889C263.207 73.8242 263.462 72.7728 263.972 71.4347C264.673 69.6505 265.055 68.5354 265.119 68.0894C268.815 50.821 270.663 37.6627 270.663 28.6144C270.663 27.9772 270.567 27.0214 270.376 25.7469C270.185 24.4725 270.089 23.5167 270.089 22.8795C270.089 21.9874 270.217 21.2546 270.471 20.6812C269.834 17.9412 269.516 16.2844 269.516 15.7109C269.516 13.4807 271.045 12.3656 274.104 12.3656C276.78 12.3656 278.532 13.2258 279.36 14.9463C279.679 14.8826 280.03 14.8507 280.412 14.8507C284.108 14.8507 285.956 16.2207 285.956 18.9607C285.956 19.7253 285.733 20.8405 285.286 22.306C284.904 23.7716 284.713 24.8549 284.713 25.5558C284.649 27.4674 284.617 29.4746 284.617 31.5774V57.2887C284.617 62.5138 284.936 66.4645 285.573 69.1407C296.597 67.2928 306.187 64.9033 314.343 61.9722C314.725 61.8447 315.713 61.2712 317.306 60.2517C318.581 59.4233 319.568 59.0092 320.269 59.0092ZM384.117 59.8694C384.882 59.8694 383.13 60.1243 378.86 60.634C379.434 62.7368 380.039 64.5847 380.676 66.1777C380.74 66.3689 381.441 67.6752 382.779 70.0966C383.671 71.7533 384.117 73.1233 384.117 74.2065C384.117 76.373 382.715 77.6793 379.912 78.1254C378.637 78.9537 377.235 79.3679 375.706 79.3679C373.54 79.3679 372.202 78.1891 371.692 75.8314C371.437 74.7482 371.086 72.7728 370.64 69.9054C370.003 68.3124 369.111 65.891 367.964 62.6412C362.548 63.6608 354.455 65.2219 343.687 67.3247C342.731 69.3 341.329 72.2949 339.481 76.3093C339.099 78.0935 338.27 80.6742 336.996 84.0514C336.55 84.9435 335.753 85.3895 334.606 85.3895C333.332 85.3895 331.994 84.9116 330.592 83.9558C328.999 82.9363 328.202 81.8212 328.202 80.6105C328.202 80.3556 330.21 76.8828 334.224 70.1921C333.651 70.1921 333.077 69.9054 332.504 69.3319C331.994 68.6947 331.611 68.2487 331.357 67.9938C330.528 68.1849 330.018 68.2805 329.827 68.2805C327.724 68.2805 326.673 66.4645 326.673 62.8324C326.673 60.6022 327.342 59.264 328.68 58.818C329.381 58.5631 330.974 58.4357 333.459 58.4357H334.797C340.724 47.6031 345.248 38.6185 348.37 31.4818C346.458 30.5897 345.503 29.0286 345.503 26.7983C345.503 25.3965 345.949 24.1858 346.841 23.1663C347.733 22.083 348.848 21.5414 350.186 21.5414C350.887 21.5414 351.588 21.6688 352.289 21.9237C352.544 20.5856 352.99 18.6421 353.627 16.0933C354.328 13.5444 355.602 12.27 357.45 12.27C358.916 12.27 360.318 12.8435 361.656 13.9905C363.058 15.1375 363.695 16.4119 363.567 17.8137C364.332 17.6226 365.129 17.527 365.957 17.527C367.614 17.527 368.729 18.0367 369.302 19.0563C369.621 19.6298 369.844 20.9042 369.971 22.8795C370.099 24.7911 370.194 25.9381 370.258 26.3204C371.979 35.1139 373.89 43.3339 375.993 50.9803C376.503 50.8529 377.873 50.2794 380.103 49.2599C381.76 48.4952 383.13 48.1129 384.213 48.1129C385.615 48.1129 386.698 48.782 387.463 50.1201C387.909 49.9927 388.323 49.929 388.705 49.929C390.043 49.929 391.063 50.4706 391.764 51.5538C392.465 52.6371 392.815 53.8796 392.815 55.2815C392.815 58.4038 391.063 59.965 387.558 59.965C386.411 59.965 385.838 59.965 385.838 59.965C384.308 59.9012 383.735 59.8694 384.117 59.8694ZM364.619 53.6566C362.452 48.3041 360.349 42.8878 358.31 37.4078C356.909 39.2557 355.22 42.3143 353.245 46.5836C352.289 48.8138 350.791 52.1273 348.752 56.524C353.85 55.8231 359.139 54.8673 364.619 53.6566ZM448.635 71.7214C448.635 72.6772 448.858 74.0791 449.304 75.927C449.813 77.7112 450.068 79.0812 450.068 80.037C450.068 81.3751 449.463 82.2035 448.252 82.5221C448.252 83.1593 448.38 84.1151 448.635 85.3895C448.953 86.7277 449.112 87.7153 449.112 88.3525C449.112 90.1367 448.22 91.22 446.436 91.6023C446.564 92.9404 445.99 94.3423 444.716 95.8079C443.441 97.3372 442.135 98.1018 440.797 98.1018C439.522 98.1018 438.025 96.4451 436.305 93.1316C435.412 91.3474 434.648 90.0093 434.011 89.1172C427.384 79.3679 419.833 68.9814 411.358 57.9578C412.186 64.3298 412.951 69.9691 413.652 74.8756L414.608 82.1398C414.735 82.8407 415.117 84.0195 415.755 85.6763C416.392 87.3967 416.71 88.703 416.71 89.5951C416.71 91.8253 414.926 92.9404 411.358 92.9404C409.701 92.9404 408.554 92.6218 407.917 91.9846C407.28 91.3474 406.961 90.2004 406.961 88.5437C406.197 88.8623 405.209 89.0216 403.998 89.0216C400.685 89.0216 399.028 88.0977 399.028 86.2498C399.028 85.4214 399.155 84.2744 399.41 82.8088C399.729 81.3433 399.92 80.2919 399.984 79.6547C400.494 72.7728 400.748 65.668 400.748 58.3401C400.748 53.7522 400.621 49.3236 400.366 45.0543C399.219 44.0348 397.945 42.8878 396.543 41.6134C395.141 40.0841 394.44 38.6185 394.44 37.2167C394.44 35.9423 394.918 34.6997 395.874 33.489C396.83 32.2146 397.913 31.4818 399.124 31.2906C399.888 30.2711 401.131 29.6976 402.851 29.5702C402.341 28.1046 402.087 27.0851 402.087 26.5116C402.087 25.046 402.596 23.7079 403.616 22.4972C404.699 21.2228 405.974 20.5856 407.439 20.5856C408.968 20.5856 410.211 21.4458 411.167 23.1663C411.804 25.0779 412.951 27.8816 414.608 31.5774C417.284 36.2927 426.014 51.0441 440.797 75.8314C441.052 74.2384 441.179 72.0719 441.179 69.3319C441.179 55.8231 440.415 44.2578 438.885 34.636C438.758 33.9988 438.375 32.7244 437.738 30.8127C437.229 29.2197 436.974 28.009 436.974 27.1807C436.974 24.7593 438.662 23.5486 442.039 23.5486C445.417 23.5486 447.105 24.823 447.105 27.3718C447.105 27.0532 446.85 28.6781 446.341 32.2465C447.679 32.2465 448.921 32.5969 450.068 33.2979C451.279 33.9988 451.884 34.9865 451.884 36.2609C451.884 37.0892 451.629 38.2681 451.12 39.7974C450.61 41.3267 450.323 42.4418 450.259 43.1427C449.941 46.4562 449.622 51.5857 449.304 58.5312L448.635 71.7214ZM428.562 69.1407C422.318 58.0533 416.137 47.7943 410.02 38.3636L409.637 44.0985C413.588 49.5148 419.896 57.8622 428.562 69.1407ZM533.702 46.488C533.064 46.6155 531.089 47.0934 527.776 47.9218V53.0831C529.942 53.7841 531.025 55.4727 531.025 58.1489C531.025 60.6978 529.974 62.3226 527.871 63.0236C527.871 62.3864 527.903 63.374 527.967 65.9866C527.967 65.9866 527.967 66.9424 527.967 68.854C527.967 69.4275 528.158 70.2877 528.54 71.4347C528.923 72.5179 529.114 73.3463 529.114 73.9198C529.114 74.4296 528.827 74.78 528.254 74.9712C528.763 75.481 529.018 76.0544 529.018 76.6917C529.018 77.3289 528.763 77.9023 528.254 78.4121C528.891 79.6865 529.209 80.5149 529.209 80.8972C529.209 82.1716 527.361 82.8088 523.666 82.8088C520.926 82.8088 519.556 81.9486 519.556 80.2281C519.556 79.7821 519.588 79.2086 519.651 78.5077C519.078 77.9342 518.791 77.3289 518.791 76.6917C518.791 76.1819 519.014 75.6403 519.46 75.0668C519.269 73.8561 518.982 71.6259 518.6 68.3761C514.331 70.224 509.265 71.9763 503.402 73.6331C496.776 75.481 491.614 76.4049 487.918 76.4049C480.654 76.4049 474.314 74.4933 468.898 70.67C462.781 66.4008 459.722 60.7933 459.722 53.8478C459.722 50.3431 460.678 46.9978 462.589 43.8118C463.099 43.2383 463.768 42.2825 464.597 40.9443C464.979 40.116 465.68 38.7141 466.699 36.7388C469.503 31.896 474.378 27.3718 481.323 23.1663C486.23 20.2351 492.474 17.7181 500.057 15.6154C507.704 13.5126 514.394 12.4612 520.129 12.4612C522.423 12.4612 523.57 14.2772 523.57 17.9093C523.57 19.5023 523.188 20.6174 522.423 21.2546C521.913 24.1858 520.225 25.6514 517.357 25.6514C515.063 25.6514 513.502 24.5363 512.674 22.306L511.718 22.4016C513.12 23.1663 513.821 24.6956 513.821 26.9895C513.821 29.156 512.992 30.2711 511.336 30.3348C493.94 31.2906 481.483 35.2732 473.964 42.2825C472.944 44.5127 472.434 46.6792 472.434 48.782C472.434 54.0708 474.983 57.9896 480.081 60.5385C484.095 62.5775 489.002 63.597 494.8 63.597C501.109 63.597 508.468 62.1315 516.879 59.2003C516.306 56.7152 515.637 54.2301 514.872 51.745L507.13 54.0389C506.748 54.1664 505.919 54.6443 504.645 55.4727C503.371 56.2373 502.542 56.6196 502.16 56.6196C501.332 56.6196 500.726 55.9506 500.344 54.6124C499.77 54.7399 498.464 55.3134 496.425 56.3329C494.45 57.3524 493.239 57.8622 492.793 57.8622C491.391 57.8622 490.69 56.0143 490.69 52.3185C490.69 50.4706 490.945 49.2917 491.455 48.782C492.028 48.2722 493.207 48.0173 494.991 48.0173H495.947C495.883 47.3164 495.852 46.5518 495.852 45.7234C495.852 43.5569 496.266 42.3143 497.094 41.9957C497.986 41.9957 499.516 41.8683 501.682 41.6134C510.922 40.2115 519.524 37.7264 527.489 34.1581C527.807 34.0306 528.668 33.4572 530.07 32.4376C531.153 31.673 532.045 31.2906 532.746 31.2906C534.275 31.2906 535.04 33.2023 535.04 37.0255C535.804 36.5157 536.346 36.2609 536.665 36.2609C537.493 36.2609 538.162 37.0255 538.672 38.5548C539.054 39.7018 539.245 40.8169 539.245 41.9001C539.245 44.1304 538.799 45.5004 537.907 46.0101C537.397 46.3287 535.996 46.488 533.702 46.488Z" fill="black"/>
</g>
<defs>
<filter id="filter0_d_101_2" x="82.1874" y="10.454" width="462.495" height="98.5228" filterUnits="userSpaceOnUse" color-interpolation-filters="sRGB">
<feFlood flood-opacity="0" result="BackgroundImageFix"/>
<feColorMatrix in="SourceAlpha" type="matrix" values="0 0 0 0 0 0 0 0 0 0 0 0 0 0 0 0 0 0 127 0" result="hardAlpha"/>
<feOffset dy="5.4375"/>
<feGaussianBlur stdDeviation="2.71875"/>
<feComposite in2="hardAlpha" operator="out"/>
<feColorMatrix type="matrix" values="0 0 0 0 0 0 0 0 0 0 0 0 0 0 0 0 0 0 0.25 0"/>
<feBlend mode="normal" in2="BackgroundImageFix" result="effect1_dropShadow_101_2"/>
<feBlend mode="normal" in="SourceGraphic" in2="effect1_dropShadow_101_2" result="shape"/>
</filter>
<clipPath id="clip0_101_2">
<rect width="658" height="90" fill="white" transform="translate(0 19)"/>
</clipPath>
</defs>
</svg>
