<svg width="617" height="109" viewBox="0 0 617 109" fill="none" xmlns="http://www.w3.org/2000/svg">
<path d="M0 85.151C276.575 87.1925 582.926 88.7235 582.926 84.6407C582.926 82.5993 517.85 80.0475 517.85 73.668C517.543 65.7575 617.306 59.6332 616.999 51.7227C616.692 44.5777 530.128 44.3225 528.9 32.5843C528.286 26.2049 552.844 22.122 552.844 18.8047C551.923 7.06654 260.306 11.9149 0 18.5496V85.151Z" fill="#FFBA4A"/>
<g filter="url(#filter0_d_101_2)">
<path d="M94.3702 69.0452C94.3702 71.4028 93.287 73.41 91.1205 75.0668C92.3949 75.5765 93.0958 75.8633 93.2233 75.927C93.7968 76.3093 94.0835 76.9465 94.0835 77.8386C94.0835 79.113 93.6056 80.483 92.6498 81.9486C91.6302 83.6053 90.5151 84.4337 89.3044 84.4337C88.6672 84.4337 87.584 83.8921 86.0547 82.8088C85.3538 82.2991 84.3024 81.5344 82.9005 80.5149C74.4894 75.2898 63.9117 69.9373 51.1676 64.4573C51.3588 66.6875 51.7092 69.3319 52.219 72.3905C52.3464 73.0277 52.7288 74.2703 53.366 76.1182C54.0032 77.9023 54.3218 79.1768 54.3218 79.9414C54.3218 82.1079 52.5057 83.1912 48.8737 83.1912C47.2169 83.1912 46.0699 82.9044 45.4327 82.3309C44.8593 81.6937 44.5725 80.5468 44.5725 78.89C43.7441 79.2086 42.7246 79.3679 41.5139 79.3679C38.2642 79.3679 36.6393 78.444 36.6393 76.5961C36.6393 75.7677 36.7667 74.6526 37.0216 73.2507C37.3402 71.594 37.5314 70.4789 37.5951 69.9054C38.2323 62.5138 38.5509 55.0266 38.5509 47.4438C38.5509 39.0964 38.0093 32.2783 36.926 26.9895C34.0586 26.0974 32.6249 24.4088 32.6249 21.9237C32.6249 20.3944 33.2939 19.1519 34.6321 18.196C35.7791 17.3677 37.149 16.9216 38.7421 16.8579V16.4756C45.8788 12.4612 52.6969 10.454 59.1964 10.454C60.2159 10.454 63.3701 10.8044 68.6589 11.5054C70.9529 11.7603 74.3938 12.2382 78.9817 12.9391C82.6138 13.5763 85.7998 14.8188 88.5398 16.6667C94.4021 20.6812 97.3333 25.3646 97.3333 30.7172C97.3333 37.2804 93.733 42.8878 86.5326 47.5394C81.3075 50.9166 74.7761 53.5292 66.9385 55.3771L85.6724 64.5529C86.8193 64.8715 88.5398 65.3812 90.8337 66.0822C93.1914 66.7831 94.3702 67.7708 94.3702 69.0452ZM90.7382 31.2906C90.7382 27.5311 87.9344 24.7911 82.327 23.0707C83.0917 25.046 83.474 27.0214 83.474 28.9967C83.474 35.3051 80.0649 40.6576 73.2468 45.0543C84.9077 41.8046 90.7382 37.2167 90.7382 31.2906ZM76.8789 26.9895C76.8789 24.8867 75.6682 23.1344 73.2468 21.7325H71.3352C64.3259 21.7325 56.2334 23.0707 47.0576 25.7469C47.4399 26.3842 47.6311 27.1807 47.6311 28.1365C47.6311 28.71 47.5355 29.6021 47.3444 30.8127C47.2169 31.9597 47.1532 32.8199 47.1532 33.3934C47.1532 34.413 47.4718 37.2485 48.109 41.9001C61.3629 41.3267 70.0289 38.4911 74.1071 33.3934C75.955 31.0995 76.8789 28.9648 76.8789 26.9895ZM85.3856 73.2507C77.6117 68.0894 67.6394 62.8324 55.4688 57.4799L53.5571 57.671C63.3064 62.5775 73.9159 67.7708 85.3856 73.2507ZM132.794 93.9918C130.054 93.9918 127.505 93.2272 125.147 91.6979C122.853 90.1686 121.26 88.1295 120.368 85.5807C117.501 84.2426 114.283 81.7893 110.715 78.2209C106.764 74.2065 104.789 70.8931 104.789 68.2805C104.789 67.1973 105.235 66.0184 106.127 64.744C107.083 63.4059 108.07 62.7368 109.09 62.7368C109.918 62.7368 110.906 63.7245 112.053 65.6998C114.156 69.2682 116.29 71.8807 118.457 73.5375C118.775 66.9742 119.986 63.6926 122.089 63.6926C125.147 63.6926 126.677 65.2219 126.677 68.2805C126.677 69.1726 126.549 70.4789 126.294 72.1993C126.039 73.8561 125.912 75.1305 125.912 76.0226C125.912 76.5323 125.944 77.0103 126.008 77.4563C127.919 78.0935 130.022 78.4121 132.316 78.4121C139.962 78.4121 146.08 75.927 150.667 70.9568C152.515 68.9814 153.439 67.261 153.439 65.7954C153.439 65.1582 153.344 64.6803 153.153 64.3617C151.56 61.4943 147.45 59.3596 140.823 57.9578C136.617 57.1931 130.341 55.9187 121.993 54.1345C114.92 52.3503 109.791 48.8457 106.605 43.6206C105.139 41.1992 104.406 38.5548 104.406 35.6874C104.406 29.6976 107.21 24.7911 112.817 20.9679C117.788 17.527 123.395 15.8065 129.64 15.8065C134.291 15.8065 139.453 16.5393 145.124 18.0049C152.77 19.9802 156.594 22.5928 156.594 25.8425C156.594 27.0532 156.339 28.2639 155.829 29.4746C155.192 31.0039 154.363 31.7686 153.344 31.7686C152.834 32.4695 152.229 32.8199 151.528 32.8199C151.337 32.8199 149.329 31.8004 145.506 29.7614C141.683 27.6586 138.911 26.6072 137.191 26.6072C134.005 26.6072 130.723 27.786 127.346 30.1437C123.714 32.6925 121.898 35.4962 121.898 38.5548C121.898 40.5302 123.236 42.0276 125.912 43.0471C127.951 43.8118 130.149 44.1941 132.507 44.1941C134.928 44.1941 138.497 43.8755 143.212 43.2383C147.991 42.5374 151.591 42.1869 154.013 42.1869C158.919 42.1869 162.902 43.3339 165.96 45.6278C169.401 48.1766 171.122 51.8406 171.122 56.6196C171.122 64.2024 166.63 72.3268 157.645 80.9928C148.724 89.6588 140.44 93.9918 132.794 93.9918ZM163.571 57.0975C163.571 53.7841 159.907 52.1273 152.579 52.1273C157.422 54.8673 160.162 58.595 160.799 63.3103C162.647 60.188 163.571 58.1171 163.571 57.0975ZM116.927 29.2834C113.614 31.3225 111.957 33.4572 111.957 35.6874C111.957 37.153 112.786 38.5548 114.442 39.8929V38.9371C114.442 35.6237 115.271 32.4058 116.927 29.2834ZM265.269 59.0092C266.289 59.0092 267.085 59.7101 267.659 61.1119C268.105 62.1952 268.328 63.3422 268.328 64.5529C268.328 67.6115 267.149 69.1726 264.791 69.2363C264.473 70.9568 263.708 71.9763 262.497 72.2949H258.578C256.157 72.2949 245.771 74.8119 227.419 79.8458C226.973 79.9733 225.922 80.483 224.265 81.3751C222.863 82.076 221.812 82.4265 221.111 82.4265C219.518 82.4265 218.721 80.6105 218.721 76.9784C218.721 75.4491 218.849 74.4614 219.104 74.0154C219.422 73.5056 220.25 73.0596 221.589 72.6772L221.302 72.0082L220.25 72.1038C219.486 72.1038 218.626 71.9763 217.67 71.7214C217.67 72.1038 217.702 72.6772 217.765 73.4419C217.829 74.1428 217.861 74.6844 217.861 75.0668C217.861 77.1696 216.65 78.2209 214.229 78.2209C212.891 78.2209 211.616 77.9342 210.406 77.3607C208.94 76.6598 208.207 75.7358 208.207 74.5889C208.207 73.8242 208.462 72.7728 208.972 71.4347C209.673 69.6505 210.055 68.5354 210.119 68.0894C213.815 50.821 215.663 37.6627 215.663 28.6144C215.663 27.9772 215.567 27.0214 215.376 25.7469C215.185 24.4725 215.089 23.5167 215.089 22.8795C215.089 21.9874 215.217 21.2546 215.471 20.6812C214.834 17.9412 214.516 16.2844 214.516 15.7109C214.516 13.4807 216.045 12.3656 219.104 12.3656C221.78 12.3656 223.532 13.2258 224.36 14.9463C224.679 14.8826 225.03 14.8507 225.412 14.8507C229.108 14.8507 230.956 16.2207 230.956 18.9607C230.956 19.7253 230.733 20.8405 230.286 22.306C229.904 23.7716 229.713 24.8549 229.713 25.5558C229.649 27.4674 229.617 29.4746 229.617 31.5774V57.2887C229.617 62.5138 229.936 66.4645 230.573 69.1407C241.597 67.2928 251.187 64.9033 259.343 61.9722C259.725 61.8447 260.713 61.2712 262.306 60.2517C263.581 59.4233 264.568 59.0092 265.269 59.0092ZM329.117 59.8694C329.882 59.8694 328.13 60.1243 323.86 60.634C324.434 62.7368 325.039 64.5847 325.676 66.1777C325.74 66.3689 326.441 67.6752 327.779 70.0966C328.671 71.7533 329.117 73.1233 329.117 74.2065C329.117 76.373 327.715 77.6793 324.912 78.1254C323.637 78.9537 322.235 79.3679 320.706 79.3679C318.54 79.3679 317.202 78.1891 316.692 75.8314C316.437 74.7482 316.086 72.7728 315.64 69.9054C315.003 68.3124 314.111 65.891 312.964 62.6412C307.548 63.6608 299.455 65.2219 288.687 67.3247C287.731 69.3 286.329 72.2949 284.481 76.3093C284.099 78.0935 283.27 80.6742 281.996 84.0514C281.55 84.9435 280.753 85.3895 279.606 85.3895C278.332 85.3895 276.994 84.9116 275.592 83.9558C273.999 82.9363 273.202 81.8212 273.202 80.6105C273.202 80.3556 275.21 76.8828 279.224 70.1921C278.651 70.1921 278.077 69.9054 277.504 69.3319C276.994 68.6947 276.611 68.2487 276.357 67.9938C275.528 68.1849 275.018 68.2805 274.827 68.2805C272.724 68.2805 271.673 66.4645 271.673 62.8324C271.673 60.6022 272.342 59.264 273.68 58.818C274.381 58.5631 275.974 58.4357 278.459 58.4357H279.797C285.724 47.6031 290.248 38.6185 293.37 31.4818C291.458 30.5897 290.503 29.0286 290.503 26.7983C290.503 25.3965 290.949 24.1858 291.841 23.1663C292.733 22.083 293.848 21.5414 295.186 21.5414C295.887 21.5414 296.588 21.6688 297.289 21.9237C297.544 20.5856 297.99 18.6421 298.627 16.0933C299.328 13.5444 300.602 12.27 302.45 12.27C303.916 12.27 305.318 12.8435 306.656 13.9905C308.058 15.1375 308.695 16.4119 308.567 17.8137C309.332 17.6226 310.129 17.527 310.957 17.527C312.614 17.527 313.729 18.0367 314.302 19.0563C314.621 19.6298 314.844 20.9042 314.971 22.8795C315.099 24.7911 315.194 25.9381 315.258 26.3204C316.979 35.1139 318.89 43.3339 320.993 50.9803C321.503 50.8529 322.873 50.2794 325.103 49.2599C326.76 48.4952 328.13 48.1129 329.213 48.1129C330.615 48.1129 331.698 48.782 332.463 50.1201C332.909 49.9927 333.323 49.929 333.705 49.929C335.043 49.929 336.063 50.4706 336.764 51.5538C337.465 52.6371 337.815 53.8796 337.815 55.2815C337.815 58.4038 336.063 59.965 332.558 59.965C331.411 59.965 330.838 59.965 330.838 59.965C329.308 59.9012 328.735 59.8694 329.117 59.8694ZM309.619 53.6566C307.452 48.3041 305.349 42.8878 303.31 37.4078C301.909 39.2557 300.22 42.3143 298.245 46.5836C297.289 48.8138 295.791 52.1273 293.752 56.524C298.85 55.8231 304.139 54.8673 309.619 53.6566ZM393.635 71.7214C393.635 72.6772 393.858 74.0791 394.304 75.927C394.813 77.7112 395.068 79.0812 395.068 80.037C395.068 81.3751 394.463 82.2035 393.252 82.5221C393.252 83.1593 393.38 84.1151 393.635 85.3895C393.953 86.7277 394.112 87.7153 394.112 88.3525C394.112 90.1367 393.22 91.22 391.436 91.6023C391.564 92.9404 390.99 94.3423 389.716 95.8079C388.441 97.3372 387.135 98.1018 385.797 98.1018C384.522 98.1018 383.025 96.4451 381.305 93.1316C380.412 91.3474 379.648 90.0093 379.011 89.1172C372.384 79.3679 364.833 68.9814 356.358 57.9578C357.186 64.3298 357.951 69.9691 358.652 74.8756L359.608 82.1398C359.735 82.8407 360.117 84.0195 360.755 85.6763C361.392 87.3967 361.71 88.703 361.71 89.5951C361.71 91.8253 359.926 92.9404 356.358 92.9404C354.701 92.9404 353.554 92.6218 352.917 91.9846C352.28 91.3474 351.961 90.2004 351.961 88.5437C351.197 88.8623 350.209 89.0216 348.998 89.0216C345.685 89.0216 344.028 88.0977 344.028 86.2498C344.028 85.4214 344.155 84.2744 344.41 82.8088C344.729 81.3433 344.92 80.2919 344.984 79.6547C345.494 72.7728 345.748 65.668 345.748 58.3401C345.748 53.7522 345.621 49.3236 345.366 45.0543C344.219 44.0348 342.945 42.8878 341.543 41.6134C340.141 40.0841 339.44 38.6185 339.44 37.2167C339.44 35.9423 339.918 34.6997 340.874 33.489C341.83 32.2146 342.913 31.4818 344.124 31.2906C344.888 30.2711 346.131 29.6976 347.851 29.5702C347.341 28.1046 347.087 27.0851 347.087 26.5116C347.087 25.046 347.596 23.7079 348.616 22.4972C349.699 21.2228 350.974 20.5856 352.439 20.5856C353.968 20.5856 355.211 21.4458 356.167 23.1663C356.804 25.0779 357.951 27.8816 359.608 31.5774C362.284 36.2927 371.014 51.0441 385.797 75.8314C386.052 74.2384 386.179 72.0719 386.179 69.3319C386.179 55.8231 385.415 44.2578 383.885 34.636C383.758 33.9988 383.375 32.7244 382.738 30.8127C382.229 29.2197 381.974 28.009 381.974 27.1807C381.974 24.7593 383.662 23.5486 387.039 23.5486C390.417 23.5486 392.105 24.823 392.105 27.3718C392.105 27.0532 391.85 28.6781 391.341 32.2465C392.679 32.2465 393.921 32.5969 395.068 33.2979C396.279 33.9988 396.884 34.9865 396.884 36.2609C396.884 37.0892 396.629 38.2681 396.12 39.7974C395.61 41.3267 395.323 42.4418 395.259 43.1427C394.941 46.4562 394.622 51.5857 394.304 58.5312L393.635 71.7214ZM373.562 69.1407C367.318 58.0533 361.137 47.7943 355.02 38.3636L354.637 44.0985C358.588 49.5148 364.896 57.8622 373.562 69.1407ZM478.702 46.488C478.064 46.6155 476.089 47.0934 472.776 47.9218V53.0831C474.942 53.7841 476.025 55.4727 476.025 58.1489C476.025 60.6978 474.974 62.3226 472.871 63.0236C472.871 62.3864 472.903 63.374 472.967 65.9866C472.967 65.9866 472.967 66.9424 472.967 68.854C472.967 69.4275 473.158 70.2877 473.54 71.4347C473.923 72.5179 474.114 73.3463 474.114 73.9198C474.114 74.4296 473.827 74.78 473.254 74.9712C473.763 75.481 474.018 76.0544 474.018 76.6917C474.018 77.3289 473.763 77.9023 473.254 78.4121C473.891 79.6865 474.209 80.5149 474.209 80.8972C474.209 82.1716 472.361 82.8088 468.666 82.8088C465.926 82.8088 464.556 81.9486 464.556 80.2281C464.556 79.7821 464.588 79.2086 464.651 78.5077C464.078 77.9342 463.791 77.3289 463.791 76.6917C463.791 76.1819 464.014 75.6403 464.46 75.0668C464.269 73.8561 463.982 71.6259 463.6 68.3761C459.331 70.224 454.265 71.9763 448.402 73.6331C441.776 75.481 436.614 76.4049 432.918 76.4049C425.654 76.4049 419.314 74.4933 413.898 70.67C407.781 66.4008 404.722 60.7933 404.722 53.8478C404.722 50.3431 405.678 46.9978 407.589 43.8118C408.099 43.2383 408.768 42.2825 409.597 40.9443C409.979 40.116 410.68 38.7141 411.699 36.7388C414.503 31.896 419.378 27.3718 426.323 23.1663C431.23 20.2351 437.474 17.7181 445.057 15.6154C452.704 13.5126 459.394 12.4612 465.129 12.4612C467.423 12.4612 468.57 14.2772 468.57 17.9093C468.57 19.5023 468.188 20.6174 467.423 21.2546C466.913 24.1858 465.225 25.6514 462.357 25.6514C460.063 25.6514 458.502 24.5363 457.674 22.306L456.718 22.4016C458.12 23.1663 458.821 24.6956 458.821 26.9895C458.821 29.156 457.992 30.2711 456.336 30.3348C438.94 31.2906 426.483 35.2732 418.964 42.2825C417.944 44.5127 417.434 46.6792 417.434 48.782C417.434 54.0708 419.983 57.9896 425.081 60.5385C429.095 62.5775 434.002 63.597 439.8 63.597C446.109 63.597 453.468 62.1315 461.879 59.2003C461.306 56.7152 460.637 54.2301 459.872 51.745L452.13 54.0389C451.748 54.1664 450.919 54.6443 449.645 55.4727C448.371 56.2373 447.542 56.6196 447.16 56.6196C446.332 56.6196 445.726 55.9506 445.344 54.6124C444.77 54.7399 443.464 55.3134 441.425 56.3329C439.45 57.3524 438.239 57.8622 437.793 57.8622C436.391 57.8622 435.69 56.0143 435.69 52.3185C435.69 50.4706 435.945 49.2917 436.455 48.782C437.028 48.2722 438.207 48.0173 439.991 48.0173H440.947C440.883 47.3164 440.852 46.5518 440.852 45.7234C440.852 43.5569 441.266 42.3143 442.094 41.9957C442.986 41.9957 444.516 41.8683 446.682 41.6134C455.922 40.2115 464.524 37.7264 472.489 34.1581C472.807 34.0306 473.668 33.4572 475.07 32.4376C476.153 31.673 477.045 31.2906 477.746 31.2906C479.275 31.2906 480.04 33.2023 480.04 37.0255C480.804 36.5157 481.346 36.2609 481.665 36.2609C482.493 36.2609 483.162 37.0255 483.672 38.5548C484.054 39.7018 484.245 40.8169 484.245 41.9001C484.245 44.1304 483.799 45.5004 482.907 46.0101C482.397 46.3287 480.996 46.488 478.702 46.488Z" fill="black"/>
</g>
<defs>
<filter id="filter0_d_101_2" x="27.1874" y="10.454" width="462.495" height="98.5228" filterUnits="userSpaceOnUse" color-interpolation-filters="sRGB">
<feFlood flood-opacity="0" result="BackgroundImageFix"/>
<feColorMatrix in="SourceAlpha" type="matrix" values="0 0 0 0 0 0 0 0 0 0 0 0 0 0 0 0 0 0 127 0" result="hardAlpha"/>
<feOffset dy="5.4375"/>
<feGaussianBlur stdDeviation="2.71875"/>
<feComposite in2="hardAlpha" operator="out"/>
<feColorMatrix type="matrix" values="0 0 0 0 0 0 0 0 0 0 0 0 0 0 0 0 0 0 0.25 0"/>
<feBlend mode="normal" in2="BackgroundImageFix" result="effect1_dropShadow_101_2"/>
<feBlend mode="normal" in="SourceGraphic" in2="effect1_dropShadow_101_2" result="shape"/>
</filter>
</defs>
</svg>
