<svg width="216" height="71" viewBox="0 0 216 71" fill="none" xmlns="http://www.w3.org/2000/svg">
<path d="M111.517 25.7035L121.803 25.1586C122.04 26.5513 122.46 27.5807 123.173 28.3376C124.306 29.5032 125.877 30.0785 127.941 30.0785C129.458 30.0785 130.682 29.7908 131.504 29.1702C132.289 28.6858 132.746 27.9137 132.746 27.0963C132.746 26.3242 132.308 25.5673 131.577 25.0829C130.791 24.5076 128.964 23.9172 126.059 23.4025C121.328 22.5245 117.929 21.3589 115.938 19.8754C113.947 18.4826 112.814 16.439 112.887 14.2742C112.887 12.7907 113.435 11.292 114.458 10.0658C115.628 8.67312 117.235 7.56804 119.154 6.96251C121.218 6.22074 124.123 5.82715 127.758 5.82715C132.216 5.82715 135.614 6.50837 137.953 7.90108C140.291 9.26351 141.698 11.4585 142.137 14.471L131.979 14.9555C131.705 13.6536 131.157 12.715 130.261 12.1095C129.366 11.4888 128.197 11.2012 126.662 11.2012C125.42 11.2012 124.47 11.4283 123.849 11.8521C123.264 12.2457 122.881 12.821 122.917 13.4719C122.917 13.9563 123.228 14.4105 123.703 14.6981C124.214 15.0917 125.42 15.4399 127.338 15.7729C132.07 16.6207 135.432 17.4533 137.496 18.3313C139.561 19.2093 141.059 20.2689 141.954 21.5406C142.886 22.8424 143.361 24.326 143.324 25.8398C143.324 27.6564 142.703 29.4729 141.442 30.9868C140.145 32.5763 138.355 33.8025 136.254 34.5442C134.025 35.3465 131.211 35.7704 127.85 35.7704C121.912 35.7704 117.802 34.8319 115.5 32.9244C113.198 31.017 111.791 28.6101 111.517 25.7035ZM2.44811 35.286V6.34185H20.4618C23.7869 6.34185 26.3629 6.56892 28.1167 7.05334C29.8341 7.50748 31.3687 8.44605 32.3735 9.70252C33.5062 11.0952 34.0543 12.715 34.0178 14.3953C34.1274 17.2413 32.3735 19.9662 29.3591 21.3892C28.1898 21.9341 26.8927 22.3277 25.5773 22.5245C26.5456 22.7516 27.5321 23.1452 28.3908 23.5993C29.0485 24.0535 29.5966 24.5682 30.1081 25.1283C30.6927 25.6733 31.2043 26.2939 31.6245 26.9449L36.8678 35.3314H24.5907L18.7993 26.4302C18.0502 25.2948 17.4291 24.553 16.8445 24.1897C16.0589 23.7356 15.1271 23.5085 14.1954 23.5085H13.2636V35.2557H2.44811V35.286ZM13.2819 18.0588H17.8493C18.8176 17.9982 19.7676 17.862 20.6993 17.6652C21.3936 17.5744 22.033 17.2413 22.4532 16.7569C23.5128 15.5913 23.3484 13.9412 22.0695 12.9421C21.3753 12.4577 20.0051 12.2003 18.0502 12.2003H13.2819V18.0588ZM0 60.0823L10.2857 59.5373C10.5232 60.93 10.9434 61.9594 11.6559 62.7163C12.7521 63.882 14.3598 64.5026 16.4243 64.5026C17.9406 64.5026 19.1647 64.215 19.9868 63.5943C20.7724 63.0796 21.2291 62.3379 21.2291 61.5204C21.2291 60.7484 20.7907 59.9915 20.0599 59.507C19.2743 58.9318 17.4474 58.3414 14.506 57.8267C9.77417 56.9487 6.37605 55.7831 4.38467 54.2995C2.3933 52.9068 1.26059 50.8632 1.33367 48.6984C1.33367 47.2149 1.88176 45.7162 2.90485 44.49C4.07409 43.0973 5.68181 41.9922 7.6001 41.3867C9.66455 40.6449 12.5694 40.2513 16.205 40.2513C20.6628 40.2513 24.0609 40.9325 26.3994 42.3252C28.7379 43.7179 30.1081 45.8827 30.5466 48.8952L20.3887 49.3796C20.1147 48.0777 19.5666 47.1392 18.6714 46.5336C17.8127 45.913 16.607 45.6254 15.0723 45.6556C13.83 45.6556 12.88 45.8827 12.2588 46.3368C11.6377 46.7304 11.2905 47.3057 11.3271 47.9566C11.3271 48.4411 11.6377 48.8952 12.1127 49.1828C12.6242 49.5764 13.83 49.9246 15.7483 50.2576C20.4801 51.1054 23.8417 51.938 25.9061 52.816C27.9706 53.694 29.4687 54.7537 30.3639 56.0253C31.2956 57.3271 31.7706 58.8107 31.7706 60.2942C31.7706 62.1108 31.1129 63.882 29.8889 65.4109C28.5917 67.0004 26.8013 68.2266 24.7003 68.9684C22.4715 69.7707 19.658 70.1946 16.2964 70.1946C10.3588 70.1946 6.24816 69.256 3.94621 67.3486C1.58944 65.3958 0.310581 63.004 0 60.0823Z" fill="black"/>
<path d="M51.9584 57.8114L61.422 60.173C60.9105 62.141 59.8509 64.0333 58.4076 65.6834C57.0739 67.1366 55.32 68.272 53.3287 69.0138C51.3007 69.7556 48.7247 70.1492 45.6007 70.1492C41.8189 70.1492 38.6765 69.695 36.3015 68.7867C33.8717 67.8784 31.8072 66.2586 30.0533 63.9576C28.2995 61.6566 27.4408 58.7197 27.4408 55.1168C27.4408 50.318 28.9572 46.6394 32.0447 44.081C35.1322 41.5226 39.4621 40.2207 45.0891 40.2207C49.5103 40.2207 52.945 40.9625 55.4845 42.4158C57.9874 43.8993 59.8691 46.1701 61.1115 49.2129L51.5748 50.9538C51.3373 50.2725 50.9902 49.5913 50.5152 49.0161C49.9305 48.3348 49.1815 47.8201 48.2863 47.4265C47.3911 47.0329 46.368 46.8816 45.3632 46.8816C42.8968 46.8816 41.0333 47.6839 39.7362 49.3491C38.7679 50.545 38.2563 52.4525 38.2563 55.0411C38.2563 58.2504 38.841 60.4455 40.0102 61.6414C41.1795 62.8374 42.8237 63.4278 44.9795 63.4278C47.0439 63.4278 48.6151 62.9433 49.6748 62.0047C50.7161 61.0208 51.5017 59.628 51.9584 57.8114ZM74.0462 40.7203H84.8252V50.8478H96.6273V40.7203H107.498V69.6647H96.6273V57.9477H84.8252V69.6647H74.0462V40.7203Z" fill="black"/>
<path d="M106 55.1924C106 50.4693 107.607 46.7755 110.768 44.1566C113.929 41.5377 118.386 40.2056 124.05 40.2056C129.878 40.2056 134.336 41.5075 137.496 44.0961C140.657 46.6847 142.228 50.3179 142.228 54.9804C142.228 58.3865 141.534 61.1266 140.164 63.3065C138.83 65.4409 136.765 67.197 134.226 68.3626C131.613 69.5585 128.361 70.1792 124.488 70.1792C120.542 70.1792 117.29 69.6645 114.714 68.62C112.065 67.5149 109.873 65.8043 108.429 63.7001C106.822 61.4142 106 58.5985 106 55.1924ZM116.797 55.2227C116.797 58.1292 117.455 60.2485 118.752 61.5353C120.049 62.7918 121.839 63.4427 124.105 63.4427C126.407 63.4427 128.215 62.822 129.494 61.5656C130.791 60.3091 131.412 58.0686 131.412 54.8291C131.412 52.1042 130.755 50.1059 129.421 48.8646C128.087 47.6081 126.297 46.9875 124.032 46.9875C122.04 46.9269 120.122 47.6384 118.788 48.8949C117.455 50.1514 116.797 52.2858 116.797 55.2227ZM153.281 55.1924C153.281 50.4693 154.889 46.7755 158.049 44.1566C161.21 41.5377 165.668 40.2056 171.331 40.2056C177.159 40.2056 181.653 41.5075 184.778 44.0961C187.902 46.6847 189.509 50.3179 189.509 54.9804C189.509 58.3865 188.815 61.1266 187.445 63.3065C186.111 65.4409 184.047 67.197 181.507 68.3626C178.895 69.5585 175.643 70.1792 171.77 70.1792C167.823 70.1792 164.572 69.6645 161.996 68.62C159.346 67.5149 157.154 65.8043 155.711 63.7001C154.103 61.4142 153.281 58.5985 153.281 55.1924ZM164.06 55.2227C164.06 58.1292 164.718 60.2485 166.015 61.5353C167.312 62.7918 169.102 63.4427 171.368 63.4427C173.67 63.4427 175.478 62.822 176.757 61.5656C178.054 60.3091 178.676 58.0686 178.676 54.8291C178.676 52.1042 178.018 50.1059 176.684 48.8646C175.351 47.6081 173.56 46.9875 171.295 46.9875C169.303 46.9269 167.348 47.6384 166.051 48.8949C164.736 50.1816 164.06 52.2858 164.06 55.2227Z" fill="black"/>
<path d="M188.377 40.7207H199.156V62.5497H216V69.6797H188.34V40.7207H188.377Z" fill="black"/>
<path d="M176.477 39.0616C187.331 32.2843 190.675 20.7931 183.947 13.3952C177.22 5.99735 162.967 5.49429 152.113 12.2716C141.259 19.0489 137.914 30.5401 144.642 37.938C151.37 45.3358 165.623 45.8389 176.477 39.0616Z" stroke="black" stroke-width="0.8555" stroke-miterlimit="10"/>
<path d="M153.318 23.5249L157.227 21.2541L162.032 26.9159C162.854 27.8242 163.475 28.793 163.95 29.8678C164.225 30.6702 164.151 31.5482 163.75 32.3354C163.238 33.3043 162.416 34.1217 161.32 34.697C160.023 35.4388 158.945 35.8627 157.995 35.9989C157.099 36.1352 156.149 35.9989 155.291 35.681C154.359 35.2874 153.537 34.7424 152.916 34.0309L156.277 31.4422C156.551 31.8056 156.898 32.1235 157.3 32.3808C157.574 32.5473 157.885 32.6382 158.232 32.6382C158.506 32.6382 158.78 32.5473 158.981 32.4111C159.365 32.2143 159.639 31.8358 159.602 31.4422C159.493 30.8973 159.219 30.3371 158.78 29.9133L153.318 23.5249ZM165.047 27.1278L168.609 24.7965C168.993 25.1901 169.504 25.4777 170.052 25.6442C170.838 25.841 171.66 25.7048 172.318 25.2809C172.793 25.0236 173.177 24.6602 173.341 24.2061C173.578 23.6308 173.177 22.9799 172.482 22.7831C172.373 22.7528 172.245 22.7225 172.135 22.7225C171.66 22.6922 170.838 22.8588 169.632 23.2675C167.641 23.9487 166.07 24.2061 164.9 24.1153C163.768 24.0244 162.708 23.54 162.087 22.7225C161.612 22.1775 161.393 21.5266 161.338 20.8756C161.338 20.1339 161.575 19.3921 162.087 18.7714C162.836 17.8934 163.731 17.1516 164.827 16.5763C166.472 15.6377 167.915 15.1836 169.157 15.1836C170.4 15.1836 171.587 15.668 172.665 16.6672L169.157 18.9682C168.463 18.2264 167.129 18.0599 166.234 18.6503L166.125 18.7411C165.741 18.9379 165.467 19.2255 165.302 19.5889C165.193 19.8462 165.266 20.1339 165.467 20.3609C165.631 20.5275 165.85 20.6486 166.125 20.6486C166.435 20.6788 166.983 20.5577 167.769 20.255C169.724 19.5737 171.203 19.1801 172.227 19.059C173.085 18.9228 173.98 18.9985 174.803 19.2861C175.552 19.5435 176.173 19.9976 176.593 20.5426C177.141 21.1935 177.452 21.9656 177.488 22.7831C177.525 23.6308 177.251 24.4332 176.703 25.1447C176.008 26.0227 175.095 26.7645 174.053 27.3397C171.898 28.5659 170.144 29.0807 168.737 28.899C167.202 28.7173 165.942 28.0664 165.047 27.1278Z" fill="black"/>
</svg>
