<svg width="100%" height="100%" viewBox="0 0 238 208" fill="none" xmlns="http://www.w3.org/2000/svg">
<g clip-path="url(#clip0_101_68)">
<path d="M119.446 197.065C157.968 197.065 189.197 166.689 189.197 129.219C189.197 91.749 157.968 61.3735 119.446 61.3735C80.9234 61.3735 49.6948 91.749 49.6948 129.219C49.6948 166.689 80.9234 197.065 119.446 197.065Z" fill="#68D4BB"/>
<path d="M119.223 188.361C153.438 188.361 181.174 160.583 181.174 126.318C181.174 92.0525 153.438 64.2749 119.223 64.2749C85.0082 64.2749 57.2716 92.0525 57.2716 126.318C57.2716 160.583 85.0082 188.361 119.223 188.361Z" fill="white"/>
<path d="M104.292 59.1416V44.8583H91.3671C91.3671 44.8583 88.6929 39.5021 91.3671 36.3777C94.0413 33.2532 115.435 29.236 119.223 31.0214C122.788 32.8068 121.897 42.6266 121.897 42.6266L112.092 43.0729L114.32 56.9098" fill="#FFBA4A"/>
<path d="M130.811 50.2149C130.811 50.2149 145.964 20.9788 172.929 35.0389C199.893 49.099 183.626 78.5582 183.626 78.5582L130.811 50.2149Z" fill="#FFBA4A"/>
<path d="M87.8015 54.9013C87.8015 54.9013 65.7397 31.4678 43.4551 52.8927C21.1704 74.3176 43.4551 99.5365 43.4551 99.5365L87.8015 54.9013Z" fill="#FFBA4A"/>
<path d="M180.951 168.498C180.951 168.498 191.871 186.129 188.305 190.592C184.74 195.056 170.478 179.434 170.478 179.434" fill="#FFBA4A"/>
<path d="M84.9045 191.485C84.9045 191.485 77.7734 209.339 71.088 206.661C64.4026 203.983 71.088 182.335 71.088 182.335" fill="#FFBA4A"/>
<path d="M117.257 117.018C118.479 116.876 118.255 106.24 116.756 93.2611C115.257 80.2821 113.051 69.8754 111.828 70.017C110.606 70.1586 110.83 80.795 112.329 93.774C113.828 106.753 116.034 117.16 117.257 117.018Z" fill="#FFBA4A"/>
<path d="M108.603 155.546C113.711 146.687 116.728 138.855 115.342 138.054C113.957 137.253 108.693 143.786 103.586 152.645C98.4779 161.505 95.4606 169.336 96.8462 170.137C98.2318 170.938 103.496 164.406 108.603 155.546Z" fill="#FFBA4A"/>
<path d="M118.554 133.906C122.124 133.906 125.017 131.408 125.017 128.326C125.017 125.245 122.124 122.747 118.554 122.747C114.985 122.747 112.092 125.245 112.092 128.326C112.092 131.408 114.985 133.906 118.554 133.906Z" fill="#FFBA4A"/>
<path d="M181.62 32.8069C183.958 32.8069 185.854 30.9084 185.854 28.5665C185.854 26.2246 183.958 24.3262 181.62 24.3262C179.281 24.3262 177.386 26.2246 177.386 28.5665C177.386 30.9084 179.281 32.8069 181.62 32.8069Z" fill="#FFBA4A"/>
<path d="M36.9925 51.1075C38.9617 51.1075 40.5581 49.5087 40.5581 47.5366C40.5581 45.5645 38.9617 43.9658 36.9925 43.9658C35.0234 43.9658 33.427 45.5645 33.427 47.5366C33.427 49.5087 35.0234 51.1075 36.9925 51.1075Z" fill="#FFBA4A"/>
<path d="M177.609 126.988C177.609 143.279 171.592 159.571 160.227 171.846C154.655 177.872 147.524 182.782 139.948 186.129C132.371 189.477 123.903 191.039 115.434 190.816C107.189 190.593 98.9439 188.807 91.3671 185.46C83.7903 182.112 77.1049 177.202 71.3109 171.4C65.5169 165.597 60.8371 158.679 57.7173 151.091C54.5974 143.503 52.5918 135.468 52.5918 126.988C52.1461 110.473 58.6087 93.7343 70.4195 81.6828C76.2135 75.6571 83.3446 70.9704 91.1442 67.6228C98.9439 64.2751 107.412 62.7129 115.657 62.7129C124.126 62.7129 132.371 64.4983 140.17 67.8459C147.97 71.1936 154.878 76.1034 160.449 82.1292C171.815 94.4039 177.609 110.696 177.609 126.988ZM177.163 126.988C177.163 118.953 175.38 110.919 172.037 103.554C168.695 96.1893 164.015 89.7172 158.221 84.361C146.633 73.6485 131.034 67.3996 115.434 67.6228C99.8352 67.6228 84.4588 73.8717 73.0937 84.8073C61.9514 95.7429 55.0431 111.142 54.8203 127.211C54.3746 143.056 60.8371 159.348 72.2023 170.507C83.5675 181.889 99.8352 187.691 115.434 187.245C131.257 187.022 146.633 180.773 158.221 170.061C164.015 164.704 168.695 158.009 172.037 150.644C175.603 143.056 177.163 135.022 177.163 126.988Z" fill="black"/>
<path d="M185.854 129.666C185.854 138.816 184.071 147.743 180.728 156.224C177.386 164.704 172.26 172.515 165.798 178.988C159.335 185.46 151.536 190.816 143.067 194.387C134.599 197.957 125.24 199.52 116.103 199.52C106.966 199.297 97.8296 197.288 89.3614 193.717C80.8933 190.146 73.3165 185.013 66.8539 178.541C60.3914 172.292 55.0431 164.704 51.2547 156.447C47.6891 148.189 45.4607 139.039 45.2378 129.889C45.015 120.739 46.5749 111.365 50.3633 102.885C53.9288 94.4038 59.2772 86.5927 65.9625 80.1206C72.6479 73.6485 80.4476 68.5154 89.1386 64.9446C97.8296 61.3738 106.966 59.8116 116.326 59.5884C125.685 59.5884 134.822 61.3738 143.513 64.9446C151.981 68.5154 159.781 73.8716 166.243 80.3437C172.706 86.8158 177.831 94.627 181.174 103.108C184.071 111.588 185.854 120.739 185.854 129.666ZM185.408 129.666C185.408 120.739 183.403 111.812 179.614 103.554C175.826 95.5197 170.478 88.1549 163.792 82.3523C150.644 70.524 133.262 64.0519 115.88 64.0519C98.4981 64.0519 81.1161 70.7472 68.4139 82.7987C62.1742 88.8244 56.8258 95.9661 53.2603 104C49.6948 112.035 47.6891 120.739 47.4663 129.666C47.2434 138.593 48.8034 147.52 52.3689 155.554C55.7116 163.812 61.0599 171.176 67.5225 177.425C80.4476 189.7 98.4981 195.949 115.88 195.503C133.485 195.279 150.644 188.584 163.792 176.756C170.255 170.953 175.826 163.588 179.614 155.554C183.403 147.743 185.408 138.593 185.408 129.666Z" fill="black"/>
<path d="M100.504 59.5881C100.281 57.1332 100.058 54.9014 100.058 52.4465C99.8353 49.9916 99.8353 47.7598 99.8353 45.3049L100.727 46.1976C96.4926 46.1976 92.2585 46.4208 87.8016 46.1976H87.1331L86.9102 45.7512C86.0188 43.7426 85.5731 41.5109 86.0188 39.2791C86.2417 38.1632 86.9102 37.0474 87.8016 36.3778C88.693 35.7083 89.8072 35.262 90.6986 34.8156C94.7099 33.4765 98.7211 32.3607 102.732 31.468C104.738 31.0216 106.744 30.5753 108.972 30.3521C110.086 30.1289 110.978 30.1289 112.092 30.1289C112.538 30.1289 113.206 30.1289 113.652 30.1289H114.543L115.435 30.3521C116.772 31.0216 117.663 32.1375 118.109 33.2534C118.554 34.3692 118.777 35.4851 119 36.601C119.223 38.8328 119.446 40.8414 119.223 43.0731V44.189H118.109C115.212 44.6353 111.869 44.6353 108.749 44.6353L109.641 43.5195C110.309 48.2062 110.755 52.6697 110.978 57.3564H110.755C109.641 52.8929 108.749 48.2062 107.858 43.7426L107.635 42.8499H108.749C112.092 42.6268 115.212 42.4036 118.554 42.1804L117.44 43.2963C117.44 41.2877 117.44 39.2791 117.217 37.2705C116.994 35.4851 116.326 33.2534 115.212 32.807C114.989 32.807 114.766 32.807 114.766 32.5838H114.097C113.652 32.5838 113.206 32.5838 112.538 32.5838C111.646 32.5838 110.532 32.5838 109.418 32.5838C107.412 32.5838 105.406 32.807 103.178 33.0302C99.1668 33.4765 94.9327 34.3693 91.1443 35.7083C90.2529 36.1547 89.1387 36.601 88.4702 37.0474C87.8016 37.7169 87.3559 38.6096 87.3559 39.5023C87.1331 41.2877 87.8016 43.5195 88.693 45.0817L87.8016 44.6353C92.0357 44.4122 96.2698 44.4122 100.727 44.6353H101.618V45.528C101.618 47.983 101.395 50.2147 101.395 52.6697C101.395 55.1246 101.172 57.3564 100.95 59.8113H100.504V59.5881Z" fill="black"/>
<path d="M127.245 50.8845C128.137 48.8759 129.251 47.0905 130.365 45.3051C131.479 43.5197 133.039 41.9575 134.376 40.3952C137.273 37.2708 140.839 34.8158 144.85 33.0304C145.964 32.5841 146.856 32.1377 147.97 31.9145L151.09 31.245C153.318 31.0218 155.547 30.7987 157.552 31.245C158.667 31.4682 159.781 31.4682 160.672 31.6914L163.792 32.5841C165.798 33.2536 167.581 34.3695 169.586 35.2622C173.152 37.4939 176.717 39.9489 179.391 43.2965C180.06 44.1892 180.729 44.8587 181.174 45.9746C181.62 46.8673 182.288 47.76 182.734 48.6527L183.848 51.554C184.071 52.6699 184.294 53.5626 184.74 54.6785C186.523 63.1592 184.517 71.863 180.729 79.6742L180.283 80.5669L179.391 80.1206C170.478 75.4339 161.564 70.7472 152.65 65.6141L139.725 58.2493L127.245 50.8845ZM127.245 50.6613L140.839 57.3566L154.21 64.0519C163.124 68.5154 171.592 73.2021 180.283 77.8888L178.946 78.3351C180.729 74.7643 182.288 70.7472 183.18 66.9532C184.071 62.936 184.517 58.6957 183.848 54.6785C183.403 50.6613 181.397 46.6441 178.723 43.5197C178.054 42.8502 177.386 41.9575 176.717 41.2879L174.266 39.2793C173.597 38.6098 172.483 38.1635 171.592 37.4939L168.918 35.9317C166.912 35.2622 165.129 34.3695 163.124 33.6999C161.118 33.2536 159.112 32.5841 157.107 32.5841C153.096 32.1377 149.084 32.8072 145.296 34.3695C137.942 37.7171 131.925 43.966 127.245 50.6613Z" fill="black"/>
<path d="M84.236 55.5708C77.9963 50.2146 70.1967 46.1975 61.9514 45.5279C57.9402 45.3048 53.7061 45.9743 50.1406 47.7597C49.6949 47.9829 49.2492 48.206 48.8035 48.4292L47.2435 49.0987L44.5694 50.661C43.0095 52 41.2267 53.1159 39.6668 54.6781C38.3297 56.2404 36.5469 57.5794 35.4327 59.3648C34.7641 60.2575 34.3185 61.1502 33.6499 62.0429L32.7585 64.7211C31.1986 68.5151 30.5301 72.7554 30.9758 76.9957C31.4214 81.2361 32.5357 85.2533 34.3185 88.8241C36.1012 92.6181 38.3297 96.1889 41.0038 99.3133H39.4439C46.575 91.9485 53.7061 84.5837 61.2829 77.4421L72.648 66.5065L84.236 55.5708ZM84.4589 55.5708L73.9851 66.7296L63.2885 78.1116C55.9346 85.6996 48.3578 93.2876 40.781 100.652L39.8896 101.545L39.2211 100.652C33.8728 93.7339 30.3072 85.6996 29.8615 76.9957C29.6387 72.7554 30.5301 68.2919 32.09 64.4979L33.4271 61.5966C33.8728 60.7039 34.5413 59.8112 35.2098 58.9185C36.3241 56.9099 37.884 55.5708 39.2211 53.7854C40.5582 52.2232 42.3409 50.8842 43.9009 49.3219L46.575 47.5365L47.9121 46.6438C48.3578 46.4206 48.8035 46.1975 49.472 45.9743C53.4832 43.9657 57.9402 43.2962 62.1743 43.7425C66.6312 43.9657 70.6424 45.5279 74.4308 47.5365C76.2136 48.6524 78.2192 49.7683 79.7791 51.1073C81.339 52.4464 82.899 53.7854 84.4589 55.5708Z" fill="black"/>
<path d="M191.871 99.9829C195.214 101.545 198.333 104 200.562 107.125C203.013 110.249 204.35 113.82 204.796 117.837C205.242 121.631 205.019 125.425 204.35 129.219C203.682 133.013 202.345 136.584 200.339 139.708C201.676 136.137 202.345 132.567 202.79 128.996C203.236 125.425 203.236 121.854 202.79 118.283C202.345 114.713 201.23 111.365 199.225 108.464C197.219 105.116 194.768 102.215 191.871 99.9829Z" fill="black"/>
<path d="M212.596 104C213.71 104.223 214.601 105.339 215.27 106.232C215.938 107.124 216.607 108.24 217.053 109.356C217.944 111.588 218.39 113.82 218.835 116.275C219.058 118.73 219.058 121.185 218.39 123.416C217.721 125.648 216.83 128.103 215.047 129.665C215.938 127.433 216.384 125.202 216.607 123.193C216.83 120.961 216.83 118.73 216.607 116.498C216.384 114.266 215.938 112.034 215.493 109.803C215.27 108.687 214.824 107.571 214.378 106.678C214.155 105.785 213.487 104.67 212.596 104Z" fill="black"/>
<path d="M230.869 108.018C232.206 109.133 233.32 110.696 233.989 112.258C234.88 113.82 235.326 115.606 235.549 117.614C235.549 119.623 234.88 121.408 234.212 122.97C233.32 124.533 232.429 126.095 230.869 127.211C231.537 125.425 231.983 123.863 232.429 122.301C232.875 120.739 233.32 119.176 233.32 117.614C233.32 116.052 232.875 114.49 232.429 112.927C231.983 111.142 231.315 109.58 230.869 108.018Z" fill="black"/>
<path d="M177.609 169.167C180.283 172.069 182.288 175.416 183.848 178.987C184.517 180.773 184.963 182.781 185.408 184.79C185.631 185.683 185.854 186.798 186.077 187.691C186.3 188.584 186.3 189.7 186.077 190.816C185.854 191.262 185.631 191.931 185.185 192.378C184.74 192.824 184.071 193.047 183.403 193.047C182.066 193.047 181.174 192.824 180.06 192.378C178.054 191.485 176.494 190.369 174.935 189.253C171.815 186.798 169.363 183.674 167.135 180.549L167.358 180.326C170.478 182.558 173.375 185.013 176.494 187.468C178.054 188.584 179.391 189.7 180.951 190.592C181.62 191.039 182.511 191.262 183.18 191.485C183.848 191.485 184.517 191.262 184.74 190.592C185.408 189.03 185.185 187.022 184.517 185.236C183.848 183.451 182.957 181.665 182.066 180.103C180.283 176.309 178.723 172.961 177.609 169.167Z" fill="black"/>
<path d="M81.339 192.155C80.8933 194.163 80.2248 196.172 79.5563 197.957C78.6649 199.743 77.7735 201.528 76.4364 203.09C75.0993 204.652 73.5394 205.992 71.7566 207.107C70.8652 207.554 69.751 208 68.6368 208C67.5225 208 66.4083 207.554 65.7398 206.661C64.1798 204.876 63.957 202.644 63.7342 200.635C63.5113 198.627 63.7342 196.618 63.957 194.61C64.6255 190.592 65.7398 186.798 67.5225 183.004H67.7454C67.2997 187.022 66.6312 190.816 66.1855 194.833C65.9626 196.841 65.7398 198.627 65.7398 200.635C65.7398 202.421 65.7398 204.429 66.6312 205.992C67.0768 206.661 67.7454 207.331 68.6368 207.331C69.5282 207.554 70.4195 207.107 71.3109 206.661C72.8709 205.545 73.9851 203.76 74.8765 202.198C76.8821 198.85 78.8877 195.502 81.339 192.155Z" fill="black"/>
<path d="M35.6555 158.009C32.9813 155.554 30.9757 152.429 29.1929 149.082C27.633 145.734 26.0731 142.386 25.4045 138.592C24.736 134.798 25.1817 131.004 26.0731 127.434C26.9645 123.863 28.3015 120.292 30.3072 117.391C29.1929 120.961 28.3015 124.309 27.8558 127.88C27.4101 131.451 27.1873 135.022 27.8558 138.369C28.0787 140.155 28.5244 141.717 29.1929 143.502C29.6386 145.288 30.3072 146.85 30.9757 148.412C32.0899 151.76 33.6498 155.107 35.6555 158.009Z" fill="black"/>
<path d="M21.3933 158.009C19.6106 155.777 18.2735 153.322 16.9364 150.867C15.5993 148.412 14.4851 145.734 13.5937 143.056C13.148 141.717 12.9252 140.155 12.9252 138.592C12.9252 137.03 13.148 135.691 13.5937 134.129C14.4851 131.451 15.8222 128.773 17.6049 126.764C16.4907 129.442 15.8222 131.897 15.1536 134.575C14.7079 137.253 14.7079 139.708 15.5993 142.163C16.2679 144.841 17.3821 147.296 18.2735 149.974C19.6106 152.876 20.502 155.331 21.3933 158.009Z" fill="black"/>
<path d="M5.12552 158.009C3.78844 156.893 2.67421 155.331 1.78283 153.768C0.89144 152.206 0.2229 150.421 0.2229 148.412C0.2229 146.627 0.2229 144.841 0.445747 143.056C0.668593 141.271 0.89144 139.485 1.33713 137.7C1.78283 139.485 2.00567 141.271 2.22852 143.056C2.22852 144.841 2.22852 146.627 2.22852 148.412C2.22852 149.974 2.67421 151.537 3.34275 153.322C3.78844 154.661 4.45698 156.446 5.12552 158.009Z" fill="black"/>
<path d="M108.526 94.4035C108.081 90.3863 107.635 86.3691 107.189 82.352C106.966 80.3434 106.743 78.3348 106.521 76.3262C106.521 75.2103 106.521 74.3176 106.521 73.2017C106.521 72.7554 106.521 72.0859 106.521 71.6395C106.521 71.4163 106.521 70.97 106.743 70.7468C106.743 70.5236 106.743 70.5236 106.966 70.0773C107.189 69.8541 107.189 69.4077 108.081 69.1846C108.972 69.1846 109.195 69.6309 109.418 69.6309C109.64 69.8541 109.64 70.0773 109.863 70.0773C110.086 70.3004 110.086 70.5236 110.309 70.97C110.532 71.4163 110.755 72.0859 110.978 72.5322C111.2 73.4249 111.646 74.5408 111.869 75.4335C112.315 77.4421 112.76 79.4507 113.206 81.4592C114.097 85.4764 114.766 89.4936 115.212 93.5108C115.88 97.5279 116.326 101.545 116.772 105.562C116.994 107.571 116.994 109.579 117.217 111.588C117.217 112.704 117.217 113.597 117.217 114.712C117.217 115.159 117.217 115.828 116.994 116.498C116.994 116.721 116.772 117.167 116.772 117.614C116.772 117.837 116.549 118.06 116.326 118.506C116.326 118.73 116.103 118.953 115.88 119.176C115.657 119.399 115.657 119.399 115.434 119.622C115.212 119.846 114.766 119.846 114.543 119.846C114.32 119.846 113.875 119.846 113.652 119.846C113.206 119.846 113.206 119.622 112.983 119.622C112.537 119.399 112.537 119.176 112.315 119.176C111.423 118.73 111.423 118.506 111.423 118.283C111.2 117.837 111.2 117.614 110.978 117.391C110.755 116.721 110.532 116.275 110.532 115.828C110.309 114.712 110.086 113.82 109.863 112.704C109.64 110.695 109.418 108.687 109.418 106.678C109.195 102.438 108.972 98.4206 108.526 94.4035ZM108.972 94.4035C109.418 98.4206 110.532 102.215 111.646 106.232C112.092 108.24 112.76 110.026 113.429 112.034C113.652 112.927 114.097 113.82 114.32 114.712C114.543 115.159 114.543 115.605 114.766 115.828C114.766 116.052 114.989 116.052 114.989 116.275C114.989 116.275 114.989 116.275 114.543 116.052C114.32 116.052 114.32 116.052 114.097 115.828C113.875 115.828 113.652 115.828 113.429 115.828C113.206 115.828 112.983 115.828 112.76 116.052C112.537 116.275 112.537 116.275 112.315 116.275C112.092 116.498 112.092 116.498 112.092 116.721C112.092 116.944 112.092 116.721 112.092 116.721C112.092 116.721 112.092 116.498 112.092 116.275C112.092 115.828 112.092 115.382 112.092 114.936C112.092 114.043 112.092 113.15 112.092 112.034C112.092 110.026 112.092 108.017 112.092 106.232C112.092 102.215 111.869 98.1974 111.423 94.4035C110.978 90.3863 110.755 86.3691 110.086 82.5751C109.863 80.5665 109.418 78.558 109.195 76.7726C108.972 75.8799 108.749 74.764 108.526 73.8713C108.303 73.4249 108.303 72.9786 108.081 72.5322C108.081 72.309 107.858 72.0859 107.858 72.0859V71.8627C107.858 71.8627 107.858 72.0859 108.526 72.0859C109.195 72.0859 108.972 71.6395 109.195 71.8627C109.195 71.8627 109.195 71.8627 109.195 72.0859C109.195 72.309 108.972 72.5322 108.972 72.7554C108.972 73.2017 108.749 73.6481 108.749 74.0944C108.749 74.9871 108.526 76.103 108.526 76.9957C108.526 79.0043 108.303 81.0129 108.303 83.0215C108.303 86.3691 108.526 90.3863 108.972 94.4035Z" fill="black"/>
<path d="M100.281 153.322C98.7211 156 97.1611 158.902 96.0469 161.803C95.6012 163.365 94.9327 164.704 94.487 166.266C94.2641 166.936 94.0413 167.829 94.0413 168.498C94.0413 168.945 94.0413 169.168 94.0413 169.614V169.837L93.8184 169.614C93.8184 169.614 93.5956 169.391 93.5956 169.614L93.8184 169.391C94.0413 169.168 94.2641 168.945 94.487 168.721C94.9327 168.275 95.3784 167.605 96.0469 166.936C96.9383 165.82 97.8297 164.481 98.7211 163.142C100.504 160.464 102.064 157.786 103.401 155.108C104.961 152.206 106.298 149.528 107.412 146.627C108.081 145.288 108.526 143.726 108.972 142.387C109.195 141.717 109.418 141.048 109.641 140.378C109.641 140.155 109.863 139.708 109.863 139.485C109.863 139.485 109.863 139.262 109.863 139.485C109.863 139.485 109.863 139.708 110.086 139.708C110.309 139.932 110.532 140.378 110.755 140.378C110.978 140.601 111.423 140.601 111.646 140.601C111.869 140.601 111.869 140.601 111.869 140.601C112.092 140.601 111.869 140.601 111.869 140.601C111.646 140.824 111.423 140.824 111.2 141.048C110.755 141.494 110.086 141.94 109.641 142.387C108.526 143.502 107.412 144.618 106.298 145.734C104.069 147.966 102.064 150.644 100.281 153.322ZM99.8353 153.099C101.395 150.198 102.732 147.296 104.292 144.395C104.961 143.056 105.852 141.494 106.744 140.155C107.189 139.485 107.635 138.816 108.303 138.146C108.526 137.923 108.972 137.477 109.418 137.03C109.863 136.807 109.863 136.584 110.532 136.584C110.755 136.584 110.978 136.361 111.423 136.361C111.869 136.361 112.538 136.584 112.983 136.807C113.429 137.03 113.875 137.477 114.097 137.923C114.32 138.146 114.32 138.369 114.32 138.816C114.543 139.485 114.32 139.485 114.32 139.932C114.32 140.601 114.32 141.048 114.097 141.494C113.875 142.387 113.652 143.279 113.429 144.172C112.76 145.734 112.092 147.296 111.423 148.636C109.863 151.537 108.303 154.438 106.521 157.116C104.738 159.794 102.955 162.472 100.95 165.151C100.058 166.49 98.9439 167.829 97.8297 168.945C97.1611 169.614 96.7154 170.06 96.0469 170.73C95.824 170.953 95.3784 171.399 94.9327 171.623C94.7098 171.846 94.487 171.846 94.0413 172.069C93.8184 172.069 93.5956 172.069 93.3727 172.292C93.1499 172.292 92.7042 172.292 92.4814 172.069C92.2585 171.846 92.0357 171.623 91.8128 171.399C91.8128 171.176 91.59 170.953 91.59 170.73C91.59 170.284 91.59 170.06 91.59 169.837C91.59 169.391 91.8128 168.945 91.8128 168.498C92.0357 167.605 92.2585 166.936 92.7042 166.043C93.3727 164.481 94.0413 163.142 94.9327 161.803L99.8353 153.099Z" fill="black"/>
<path d="M121.674 128.773C121.674 130.335 121.451 132.344 120.337 133.906C119.223 135.691 116.994 136.584 114.989 136.138C112.983 135.915 111.423 134.575 110.086 133.236C108.749 132.121 107.635 130.558 107.412 128.55C106.966 126.541 107.635 124.309 109.195 122.747C110.755 121.185 112.76 120.292 114.989 120.515C116.103 120.515 116.994 120.739 118.109 121.185C119 121.631 119.891 122.301 120.337 123.193C121.451 125.425 121.451 127.211 121.674 128.773ZM121.229 128.773C121.229 127.211 119.891 126.095 118.554 125.872C117.217 125.648 116.103 125.648 115.212 125.648C112.983 125.648 110.978 126.541 110.086 128.996C109.641 130.112 110.086 131.897 111.423 132.567C112.538 133.46 114.32 133.013 115.435 132.79C116.549 132.567 117.663 132.344 119 132.121C119.669 131.674 121.229 130.335 121.229 128.773Z" fill="black"/>
<path d="M157.998 122.97C158.221 122.078 158.667 121.408 159.112 121.185C159.558 120.739 160.004 120.515 160.672 120.739C161.341 120.962 162.009 121.408 162.455 121.408C163.124 121.408 163.569 120.962 164.015 120.515C164.461 119.846 164.906 119.4 165.352 119.176C165.798 118.953 166.243 118.507 166.912 118.507C168.026 118.507 169.14 118.73 170.7 119.846L170.923 120.292C170.255 121.854 169.363 122.747 168.249 123.194C167.803 123.417 167.135 123.417 166.689 123.417C166.021 123.417 165.575 123.194 164.906 122.97C164.238 122.747 163.569 122.524 163.124 122.97C162.678 123.194 162.232 124.086 161.787 124.533C161.341 124.979 160.672 124.979 160.227 124.756C159.558 124.533 158.89 124.309 158.221 123.64L157.998 122.97Z" fill="black"/>
<path d="M123.903 166.266C124.794 166.489 125.24 166.936 125.685 167.382C125.908 167.828 126.131 168.275 126.131 168.721C125.908 169.167 125.24 169.837 125.24 170.283C125.24 170.73 125.463 171.176 125.908 171.622C126.354 172.069 126.8 172.515 127.022 172.961C127.245 173.408 127.468 173.854 127.468 174.3C127.468 175.193 127.022 176.309 125.685 177.425H125.24C123.68 176.755 123.011 175.863 122.566 174.97C122.343 174.524 122.566 174.077 122.566 173.631C122.566 173.185 122.788 172.738 123.234 172.069C123.68 171.622 123.68 170.953 123.457 170.506C123.234 170.06 122.566 169.614 122.12 169.391C121.674 168.944 121.897 168.498 122.12 168.052C122.343 167.605 122.566 166.936 123.457 166.489L123.903 166.266Z" fill="black"/>
<path d="M75.545 133.906C75.0993 134.798 74.6536 135.245 74.208 135.691C73.7623 135.914 73.0937 136.361 72.648 136.137C71.9795 135.914 71.3109 135.468 70.8653 135.245C70.1967 135.245 69.751 135.468 69.3053 136.137C68.8596 136.584 68.4139 137.03 67.7454 137.253C67.2997 137.476 66.6312 137.923 66.1855 137.923C65.0713 137.923 63.957 137.7 62.3971 136.361V135.914C63.2885 134.352 64.1799 133.459 65.2941 133.236C65.7398 133.013 66.4083 133.013 67.0769 133.236C67.7454 133.236 68.1911 133.459 68.8596 133.682C69.5282 133.906 69.9739 134.129 70.6424 133.906C71.0881 133.682 71.5338 132.79 71.9795 132.343C72.4252 131.897 73.0937 132.12 73.5394 132.12C74.208 132.343 74.6537 132.567 75.545 133.236V133.906Z" fill="black"/>
<path d="M31.4214 56.4637C36.9925 51.3307 42.118 46.1976 47.0206 40.6182C49.4719 37.9401 51.9233 35.0388 54.1517 32.1375C56.3802 29.2362 58.3858 26.1118 61.06 23.2105C63.5113 20.3092 66.6311 17.8543 69.5281 15.3993C72.4251 13.1676 75.545 10.9358 78.8877 8.92723C85.3502 5.13324 92.4813 2.00878 100.058 0.669723C107.635 -0.669333 115.657 -0.222981 123.011 2.00878C126.8 3.12466 130.365 4.46371 133.931 6.24912C137.496 8.03453 140.616 10.2663 143.736 12.7212C155.101 22.3178 167.581 30.129 180.951 36.8242L180.506 37.2706C166.021 33.2534 152.204 25.8886 140.393 16.5152C137.496 14.2835 134.599 12.2749 131.479 10.4895C128.36 8.92723 125.017 7.365 121.451 6.24912C114.543 4.01736 107.412 2.90148 100.058 3.34783C92.7042 3.79419 85.5731 6.24912 79.3334 10.2663C76.2135 12.2749 73.5394 14.7298 70.8652 17.4079C68.191 20.086 65.7397 22.7641 63.7341 25.6654C61.5057 28.5667 59.5 31.6912 57.0487 34.5925C54.5974 37.4938 52.1461 40.395 49.4719 43.0732C44.1236 48.4294 38.1068 53.1161 31.6442 56.9101L31.4214 56.4637Z" fill="black"/>
<path d="M182.511 29.2361C182.511 30.352 182.288 31.6911 181.62 32.807C180.951 33.9228 179.391 34.5924 178.054 34.5924C176.717 34.3692 175.603 33.4765 174.712 32.5838C173.82 31.6911 173.375 30.5752 173.152 29.2361C172.483 26.558 175.157 23.6567 178.054 23.6567C179.391 23.6567 180.951 24.3263 181.62 25.6653C182.288 26.7812 182.511 28.1203 182.511 29.2361ZM182.288 29.2361C182.288 28.1203 181.397 27.2276 180.729 26.7812C179.837 26.3348 178.946 26.1117 178.277 26.1117C176.717 26.1117 175.157 27.2276 174.712 29.2361C174.489 30.1288 174.712 31.2447 175.603 31.9143C176.494 32.5838 177.609 32.5838 178.277 32.5838C179.169 32.3606 179.837 32.1374 180.729 31.6911C181.62 31.2447 182.288 30.352 182.288 29.2361Z" fill="black"/>
<path d="M36.9926 47.983C36.9926 48.8757 36.9926 49.9916 36.324 50.8843C35.6555 52.0001 34.5413 52.4465 33.427 52.4465C32.3128 52.2233 31.4214 51.5538 30.7529 50.6611C30.0843 49.9916 29.6386 49.0989 29.4158 47.983C28.7473 45.7512 30.9757 43.0731 33.6499 43.2963C34.987 43.2963 36.1012 43.9658 36.7697 45.0817C36.9926 45.9744 36.9926 47.0903 36.9926 47.983ZM36.7697 47.983C36.7697 47.0903 36.1012 46.1976 35.4327 45.9744C34.7641 45.7512 34.0956 45.528 33.427 45.528C32.09 45.528 30.9757 46.4207 30.53 47.983C30.3072 48.6525 30.53 49.7684 31.1986 50.2147C31.8671 50.8843 32.7585 50.6611 33.427 50.6611C34.0956 50.4379 34.7641 50.4379 35.4327 49.9916C36.1012 49.7684 36.7697 48.8757 36.7697 47.983Z" fill="black"/>
</g>
<defs>
<clipPath id="clip0_101_68">
<rect width="238" height="208" fill="white"/>
</clipPath>
</defs>
</svg>
