<svg width="279" height="248" viewBox="0 0 279 248" fill="none" xmlns="http://www.w3.org/2000/svg">
<g clip-path="url(#clip0_5_75)">
<path d="M90.6576 218.92C136.86 251.365 202.143 238.004 236.469 189.078C270.796 140.153 261.168 74.1897 214.966 41.7454C168.763 9.30123 103.481 22.662 69.154 71.5875C34.8273 120.513 44.4548 186.476 90.6576 218.92Z" fill="#FFBA4A"/>
<path d="M18.5315 63.8009H18.7889H19.0463H19.3036H19.8184L21.1053 63.5437L23.6791 63.0291L28.5694 62.2573L38.6072 60.7138C45.2991 59.6847 51.991 58.9129 58.6829 58.1412C72.0668 56.5976 85.4506 55.054 98.8344 53.7677C125.602 51.4524 152.627 49.3943 179.652 50.1661C186.344 50.4233 193.293 50.6806 199.985 51.4524C203.331 51.9669 206.677 52.2242 210.023 52.9959C213.369 53.7677 216.715 54.5395 220.061 56.3403C220.833 56.8549 221.605 57.3694 222.377 57.8839C223.15 58.6557 223.664 59.4275 224.179 60.1993C225.209 61.7428 225.981 63.0291 227.01 64.5727C228.554 67.6598 230.099 70.747 231.128 73.8341C233.445 80.2656 235.504 86.6972 237.048 93.386C238.85 99.8175 239.879 106.506 241.166 113.195C242.196 119.884 243.225 126.573 243.483 133.262C243.997 139.95 243.997 146.896 243.483 153.585C243.225 156.93 242.453 160.531 241.424 163.876C241.166 164.647 240.909 165.676 240.394 166.448L239.879 167.735L239.365 169.021C238.85 169.793 238.078 170.564 237.305 171.079C236.533 171.851 235.761 172.108 234.989 172.623C231.9 174.423 228.554 175.452 225.466 176.739C222.12 177.768 219.031 178.797 215.685 179.569C208.994 181.369 202.559 182.656 195.867 183.942C182.483 186.257 169.099 188.315 155.716 189.859C128.948 192.946 101.923 195.004 74.898 194.747C68.2061 194.49 61.2568 194.232 54.5649 193.461C52.7632 193.203 51.2189 192.946 49.4172 192.689C47.6156 192.432 46.0713 191.917 44.2696 191.403C43.4975 191.145 42.4679 190.888 41.6958 190.374L40.4089 189.859C39.8941 189.602 39.3794 189.345 39.122 189.087C38.6072 188.83 38.0925 188.573 37.8351 188.315L36.8056 187.286C36.0334 186.515 35.5187 185.743 35.0039 184.971C32.9448 181.884 31.4006 178.54 30.371 175.195C29.3415 171.851 28.312 168.506 27.5398 165.162C25.9955 158.473 24.966 151.784 23.9365 145.096C21.1053 131.203 20.0758 117.826 19.561 104.448C19.3036 97.7594 19.0463 91.0706 18.7889 84.1246L18.5315 74.0914V68.9461V66.3735V65.0872V64.5727V64.3154C18.5315 64.0582 18.5315 64.0582 18.5315 63.8009ZM19.0463 64.0582C19.0463 64.3154 19.3036 64.3154 19.0463 64.0582V64.5727V65.0872V66.3735L19.3036 68.9461L19.561 74.0914L20.5905 84.1246L22.3922 104.191C23.6791 117.569 25.4808 130.946 27.5398 144.066C28.5694 150.755 29.8563 157.187 31.6579 163.618C32.4301 166.705 33.4596 170.05 34.4891 172.88C35.5186 175.967 37.0629 178.797 38.6072 181.112C39.122 181.627 39.3794 182.398 39.8941 182.656L40.6663 183.427L41.4384 183.942L42.2106 184.457L43.2401 184.714C44.0122 184.971 44.527 185.228 45.2991 185.486C46.8434 185.743 48.3877 186.257 49.932 186.515C51.4763 186.772 53.0206 187.029 54.8222 187.286C61.2568 188.058 67.9487 188.315 74.6406 188.315C88.0244 188.573 101.408 188.058 114.792 187.286C128.176 186.515 141.56 185.486 154.943 184.199C168.327 182.913 181.711 181.369 194.838 179.311C201.529 178.282 207.964 176.996 214.656 175.71C218.002 174.938 221.09 174.166 224.436 173.394C227.525 172.365 230.871 171.336 233.445 170.05C234.989 169.278 236.019 168.506 236.791 167.477L237.563 166.706L238.078 165.676C238.592 164.905 238.85 164.39 239.107 163.618C240.137 160.531 240.909 157.444 241.424 154.1C242.196 147.668 242.196 140.722 241.938 134.291C241.166 120.913 239.107 107.535 235.761 94.6723C233.96 88.2408 231.9 81.8092 229.327 75.6349C228.04 72.5478 226.495 69.4607 224.951 66.8881C224.179 65.3445 223.15 64.0582 222.377 62.7719L221.348 61.2283C221.09 60.971 220.833 60.7138 220.576 60.4565C220.061 59.942 219.546 59.6847 218.774 59.4275C216.2 58.1412 212.854 57.3694 209.508 56.8549C206.162 56.3403 203.074 56.0831 199.728 55.8258C193.036 55.3113 186.344 55.3113 179.652 55.3113C166.268 55.3113 152.884 55.8258 139.501 56.3403C126.117 56.5976 112.733 57.3694 99.3492 58.3984C85.9653 59.1702 72.5815 60.1993 59.1977 61.2283L39.122 62.7719L29.0841 63.5437L23.9365 63.8009L21.3627 64.0582H20.0758H19.561H19.0463C19.0463 64.3154 19.0463 64.3154 19.0463 64.0582Z" fill="black"/>
<path d="M74.3832 193.718C71.0373 198.606 67.434 202.979 63.5732 207.353C61.7716 209.411 59.7125 211.726 57.6535 213.784C55.5944 215.842 53.5354 217.9 51.4763 219.959C47.3582 223.817 42.468 227.419 38.8647 231.535C38.0925 232.564 36.8056 233.851 36.5482 234.622C36.5482 234.622 36.5482 235.137 37.063 235.394C37.5777 235.651 38.0925 236.166 38.6073 236.423C41.1811 237.452 44.0123 237.967 46.5861 238.481C47.873 238.739 49.4173 238.739 50.7042 238.481C51.2189 238.481 51.9911 238.224 52.5059 238.224C53.0206 238.224 53.278 237.71 52.7632 238.224C54.3075 235.909 55.8518 233.336 57.6535 231.021C60.9994 226.39 64.3454 221.502 67.6913 216.871C74.898 207.867 82.3621 199.12 90.8556 191.145L91.3704 191.403C85.9654 201.693 79.5309 211.469 72.839 220.73C69.493 225.361 65.8897 229.734 62.029 234.365C60.2273 236.681 58.4256 238.739 56.3666 241.054C54.8223 242.598 53.7928 242.598 52.7632 242.855C51.7337 242.855 50.9616 242.855 50.1894 242.855C48.6451 242.598 47.1009 242.34 45.5566 241.826C42.7254 241.054 39.8942 240.025 37.3204 238.481C36.5482 237.967 36.0335 237.71 35.2613 237.195C35.0039 236.938 34.7466 236.681 34.2318 236.166C33.9744 235.651 33.717 234.88 33.9744 234.365C34.7466 232.822 35.7761 231.793 36.5482 230.506C40.1516 225.876 43.4975 220.988 47.1008 216.614C48.9025 214.299 50.9616 212.241 53.0206 210.183C55.0797 208.124 57.1387 206.066 59.4551 204.266C63.8306 200.407 68.2061 196.805 73.0963 193.461L74.3832 193.718Z" fill="black"/>
<path d="M120.969 191.403C122.256 196.548 123.028 201.436 123.8 206.581C124.058 209.154 124.315 211.726 124.572 214.042C124.83 216.614 125.087 219.187 125.087 221.502C125.345 226.647 124.83 231.793 125.602 236.681C125.859 237.967 126.117 239.253 126.632 240.282C126.889 240.797 127.146 241.311 127.404 241.826C127.661 242.34 128.176 242.598 127.918 242.598C127.661 242.598 128.433 242.598 128.691 242.598C128.948 242.598 129.463 242.598 129.72 242.598C130.492 242.598 131.007 242.598 131.779 242.598C133.066 242.855 134.353 243.112 135.64 243.369C136.927 243.627 138.214 243.884 139.243 243.884C139.501 243.884 139.758 243.884 139.758 243.884H140.015C140.015 243.884 140.015 243.884 139.758 243.884C139.758 243.884 139.501 243.884 139.501 244.141C139.501 244.398 139.243 244.141 139.243 244.141L138.986 236.938C138.214 232.05 137.699 226.905 137.184 221.759C136.412 211.726 136.155 201.436 137.184 191.145H137.699C140.787 201.178 142.332 211.212 143.619 221.245C144.133 226.39 144.391 231.278 144.648 236.423C144.648 237.71 144.648 238.996 144.648 240.282V242.34V243.369C144.648 243.884 144.391 244.398 144.391 244.913C144.133 245.427 143.876 246.199 143.361 246.714C143.104 246.971 142.847 247.228 142.332 247.485C142.074 247.743 141.56 247.743 141.302 248C140.015 248.257 138.986 248 138.471 247.743C136.927 247.228 135.897 246.714 134.61 246.199C133.581 245.685 132.294 245.17 131.264 244.913C130.75 244.656 130.235 244.656 129.463 244.656C129.205 244.656 128.948 244.656 128.691 244.656C128.433 244.656 128.433 244.656 127.404 244.656C126.117 244.141 125.859 243.369 125.345 242.855C125.087 242.083 124.83 241.568 124.572 241.054C124.058 239.768 123.8 238.481 123.543 237.195C122.256 232.307 120.712 227.162 119.682 222.274C119.167 219.701 118.91 217.129 118.91 214.556C118.653 211.983 118.653 209.411 118.653 206.838C118.653 201.693 118.91 196.548 119.94 191.403H120.969Z" fill="black"/>
<path d="M177.336 191.145C181.196 194.232 184.542 197.577 187.888 200.921C191.234 204.266 194.58 207.867 197.669 211.469C200.757 215.071 203.331 219.187 206.162 223.046C208.736 227.162 211.567 231.021 214.913 234.365L214.141 234.108C217.487 234.365 220.833 234.108 223.922 233.336C225.466 233.079 227.01 232.564 228.04 231.793C228.555 231.535 228.812 231.021 228.812 231.021C228.812 231.021 228.812 231.021 228.555 230.763C228.04 229.734 226.753 228.448 225.723 227.162C224.694 225.876 223.664 224.846 222.377 223.56L215.428 216.357C210.795 211.469 206.42 206.581 202.044 201.436C197.669 196.291 193.551 191.145 189.433 185.743L189.947 185.228C195.61 189.087 200.757 193.203 205.905 197.834C211.053 202.208 215.943 206.838 220.318 211.983C222.635 214.556 224.694 217.129 227.01 219.701C228.04 220.988 229.069 222.274 230.099 223.817C231.128 225.361 232.158 226.647 232.93 228.705C233.445 229.992 233.702 231.793 232.673 233.336C231.643 234.622 230.614 235.137 229.584 235.651C227.525 236.423 225.723 236.423 224.179 236.423C220.576 236.423 217.23 236.166 213.884 235.909H213.369L213.112 235.651C210.023 231.793 206.677 228.448 203.331 225.104C199.728 221.759 196.382 218.415 193.293 214.813C190.205 211.212 187.374 207.353 184.542 203.494C181.711 199.635 179.137 195.519 176.821 191.403L177.336 191.145Z" fill="black"/>
<path d="M41.6958 149.983C40.6663 139.95 39.6368 129.66 38.6073 119.627C38.0925 114.481 37.5777 109.593 37.3204 104.448C37.063 99.3028 37.063 94.1576 37.3204 89.2697H39.122C40.1515 94.4149 40.6663 99.3028 41.1811 104.448C41.4385 109.593 41.4385 114.739 41.6958 119.627C41.9532 129.917 42.2106 139.95 42.2106 150.241L41.6958 149.983Z" fill="black"/>
<path d="M43.2401 97.5021L41.9532 98.0166L38.0925 89.2697L35.5187 98.5311L33.9744 98.0166L37.8351 84.8962L43.2401 97.5021Z" fill="black"/>
<path d="M53.0205 164.133L92.3998 162.075L131.779 160.274C144.906 159.759 158.032 158.988 171.158 158.73C184.285 158.473 197.411 158.473 210.538 158.988V160.017C197.411 161.303 184.285 162.075 171.158 162.589C158.032 163.104 144.906 163.104 131.779 163.361L92.3998 164.133L53.0205 164.647V164.133Z" fill="black"/>
<path d="M202.044 164.39L201.529 163.104L210.28 159.502L201.272 156.415L201.787 155.129L214.656 159.245L202.044 164.39Z" fill="black"/>
<path d="M57.396 159.245C62.5436 151.784 68.7208 145.353 75.4127 139.178C78.7586 136.091 82.362 133.261 85.9653 130.689C89.826 128.116 93.6867 125.801 98.3196 124.257C100.636 123.485 102.952 122.971 105.526 122.971C108.1 122.971 110.674 123.228 112.99 124.515C115.307 125.801 116.851 127.344 118.395 129.145C119.94 130.946 121.484 132.747 122.513 134.548C125.087 138.407 126.374 142.78 127.918 146.896C128.691 148.954 129.977 150.755 131.522 151.784C133.066 152.813 135.125 153.585 137.184 153.585C141.045 154.357 144.906 152.556 148.766 150.755C152.627 148.697 156.23 146.382 159.576 143.809C166.526 138.664 172.96 132.747 179.137 126.573C191.749 114.481 203.331 101.104 214.141 86.9543L214.656 87.2116C211.053 95.444 206.42 103.162 201.015 110.365C195.867 117.826 189.947 124.515 183.77 131.203C177.336 137.635 170.386 143.552 162.922 148.44C159.062 151.012 155.201 153.328 150.825 155.129C148.509 155.9 146.45 156.672 143.876 157.187C142.589 157.444 141.56 157.444 140.273 157.444C138.986 157.444 137.699 157.187 136.669 156.929C134.353 156.415 132.037 155.386 129.977 153.842C128.176 152.041 126.889 149.983 126.117 147.668L123.8 141.237C123.028 139.178 121.999 137.378 120.712 135.577C119.425 133.776 117.881 132.232 116.336 130.946C114.792 129.66 112.733 128.116 111.189 127.602C109.387 126.83 107.585 126.83 105.526 127.344C103.467 127.602 101.666 128.373 99.8639 129.145C92.1425 132.49 84.9358 137.635 77.9865 142.78C71.0372 148.183 64.3453 153.842 57.396 159.502V159.245Z" fill="black"/>
<path d="M114.792 52.4814C113.505 49.9087 112.99 47.0789 112.733 44.5063C112.476 41.9336 112.476 39.1038 112.99 36.5312C113.763 33.9585 114.792 31.3859 116.079 28.5561C116.336 27.7843 116.594 27.2697 117.108 26.498C117.366 26.2407 117.623 25.7262 118.138 25.4689C118.395 25.4689 118.653 25.2117 118.91 25.2117H119.425H119.682C120.969 25.2117 121.999 24.9544 123.286 24.4399L125.087 23.6681C125.602 23.4108 126.117 23.1536 127.661 23.1536C128.433 23.1536 129.72 23.6681 130.235 24.4399C131.007 25.4689 131.007 25.7262 131.007 26.2407C131.264 27.0125 131.264 27.527 131.522 28.2988C132.037 30.8714 132.809 33.444 132.809 36.2739C133.066 41.6764 133.066 46.8216 131.522 52.4814H131.007C128.433 47.3361 127.146 42.1909 126.374 37.0457C125.859 34.4731 125.859 31.9005 125.859 29.3278V27.527C125.859 27.527 125.859 27.0125 126.117 27.527C126.374 28.0415 127.146 28.0415 127.146 28.0415C127.146 28.0415 126.374 27.7843 125.859 27.7843H123.8C122.256 27.7843 120.969 27.527 119.425 27.2697C118.91 26.7552 118.138 28.0415 117.881 29.0706C117.366 31.3859 117.881 34.2158 118.138 36.7884C118.395 39.361 117.881 41.9336 117.623 44.5063C117.108 47.0789 116.594 49.6515 115.564 52.4814H114.792Z" fill="black"/>
<path d="M45.299 166.448C47.2891 166.448 48.9024 164.836 48.9024 162.847C48.9024 160.857 47.2891 159.245 45.299 159.245C43.3089 159.245 41.6957 160.857 41.6957 162.847C41.6957 164.836 43.3089 166.448 45.299 166.448Z" fill="black"/>
<path d="M49.1598 162.847C49.1598 163.876 49.1598 164.905 48.645 165.934C48.1303 166.963 46.8434 167.735 45.5565 167.477C44.2695 167.22 43.4974 166.448 42.7253 165.676C41.9531 164.905 41.4384 163.876 41.181 162.847C40.6662 160.531 42.7253 157.959 45.2991 157.959C46.586 157.959 47.8729 158.73 48.3876 159.759C49.1598 160.788 49.1598 162.075 49.1598 162.847ZM48.9024 162.847C48.9024 161.818 48.1303 161.046 47.3581 160.788C46.586 160.531 46.0712 160.531 45.2991 160.531C44.0122 160.531 42.9826 161.303 42.4679 162.847C42.2105 163.618 42.4679 164.647 43.24 165.162C44.0122 165.676 44.7843 165.676 45.5565 165.419C46.3286 165.162 46.8434 165.162 47.6155 164.905C48.1303 164.647 48.9024 163.876 48.9024 162.847Z" fill="black"/>
<path d="M63.5732 159.245C63.8306 160.788 63.8306 162.332 64.088 163.876C64.088 164.647 64.3454 165.419 64.088 166.191C64.088 166.963 63.8306 167.735 63.5732 168.506C63.3159 167.735 63.0585 166.963 63.0585 166.191C63.0585 165.419 63.0585 164.647 63.0585 163.876C63.0585 162.332 63.3159 160.788 63.5732 159.245Z" fill="black"/>
<path d="M81.5898 166.448C81.3324 165.676 80.8177 164.904 80.5603 164.133C80.3029 163.875 80.3029 163.361 80.0455 163.104C80.0455 162.589 80.0455 162.332 80.3029 161.817C80.8177 162.075 80.8177 162.589 81.0751 162.846C81.3324 163.104 81.0751 163.618 81.3324 164.133C81.5898 164.904 81.5898 165.676 81.5898 166.448Z" fill="black"/>
<path d="M101.923 166.705C101.923 165.419 101.923 164.133 101.923 162.847C101.923 162.332 101.923 161.56 101.923 161.046C102.18 160.531 102.18 159.759 102.695 159.245C102.953 160.017 102.952 160.531 102.952 161.046C102.952 161.56 102.695 162.332 102.695 162.847C102.695 164.133 102.438 165.419 101.923 166.705Z" fill="black"/>
<path d="M119.167 159.245C119.425 160.017 119.425 160.788 119.682 161.818C119.682 162.332 119.94 162.589 119.682 163.104C119.682 163.618 119.425 163.876 119.167 164.39C118.91 163.876 118.653 163.618 118.653 163.104C118.653 162.589 118.653 162.332 118.653 161.818C118.653 161.046 118.91 160.274 119.167 159.245Z" fill="black"/>
<path d="M163.18 157.444C163.437 158.473 163.437 159.759 163.694 160.788C163.694 161.303 163.952 161.817 163.694 162.332C163.694 162.846 163.437 163.361 163.18 163.876C162.922 163.361 162.665 162.846 162.665 162.332C162.665 161.817 162.665 161.303 162.665 160.788C162.665 159.502 162.922 158.473 163.18 157.444Z" fill="black"/>
<path d="M141.302 164.647C140.788 163.618 140.273 162.846 139.758 161.817C139.501 161.303 139.243 161.046 139.243 160.531C139.243 160.017 138.986 159.502 139.243 158.988C139.758 159.245 140.015 159.759 140.273 160.274C140.53 160.788 140.53 161.303 140.788 161.817C141.045 162.589 141.302 163.618 141.302 164.647Z" fill="black"/>
<path d="M183.513 163.876C183.255 162.846 183.255 161.56 182.998 160.531C182.998 160.017 182.741 159.502 182.998 158.988C182.998 158.473 183.255 157.958 183.513 157.444C183.77 157.958 184.028 158.473 184.028 158.988C184.028 159.502 184.028 160.017 184.028 160.531C184.028 161.817 183.77 162.846 183.513 163.876Z" fill="black"/>
<path d="M39.8942 142.78C40.9237 142.523 41.6958 142.523 42.7254 142.266C43.2401 142.266 43.7549 142.008 44.0123 142.266C44.527 142.266 45.0418 142.523 45.2992 142.78C44.7844 143.037 44.2696 143.295 44.0123 143.295C43.4975 143.295 42.9827 143.295 42.7254 143.295C41.6958 143.037 40.9237 143.037 39.8942 142.78Z" fill="black"/>
<path d="M42.4679 131.975C41.6957 132.49 40.9236 132.747 40.4088 133.004C40.1515 133.261 39.6367 133.519 39.3793 133.519C38.8646 133.519 38.6072 133.519 38.0924 133.261C38.3498 132.747 38.6072 132.747 39.1219 132.49C39.3793 132.232 39.8941 132.232 40.4088 132.232C40.9236 131.975 41.6957 131.718 42.4679 131.975Z" fill="black"/>
<path d="M38.0924 121.942C38.8646 121.942 39.6367 121.942 40.6662 122.199C41.181 122.199 41.4384 122.199 41.9531 122.456C42.2105 122.714 42.7253 122.971 42.9827 123.228C42.2105 123.485 41.6957 123.485 41.4384 123.485C40.9236 123.485 40.6662 123.228 40.4088 122.971C39.3793 122.714 38.6072 122.456 38.0924 121.942Z" fill="black"/>
<path d="M42.468 108.05C41.4384 109.079 40.1515 110.108 39.122 110.88C38.6072 111.394 38.0925 111.909 37.3203 112.166C36.5482 112.938 36.0334 113.195 35.0039 113.195C35.5187 112.423 36.0334 111.909 36.5482 111.394C37.063 110.88 37.8351 110.622 38.3499 110.108C39.6368 109.593 41.1811 108.822 42.468 108.05Z" fill="black"/>
<path d="M35.5187 101.618C36.5482 101.361 37.5777 101.361 38.6072 101.104C39.122 101.104 39.6368 100.846 40.1515 101.104C40.6663 101.104 41.1811 101.361 41.6958 101.618C41.1811 101.876 40.6663 102.133 40.1515 102.133C39.6368 102.133 39.122 102.133 38.6072 102.133C37.8351 102.133 36.5482 101.876 35.5187 101.618Z" fill="black"/>
<path d="M193.293 106.506C194.58 103.934 196.382 101.876 198.184 99.8175C199.985 97.7594 201.787 95.7013 203.846 93.9005C205.905 92.0997 208.221 90.5561 210.538 89.0125C212.854 87.4689 214.656 85.4109 216.458 83.3528L218.259 81.2947L218.002 84.1246C217.487 87.469 217.745 90.8133 217.23 94.1577C216.715 97.5021 216.458 100.847 215.685 104.191C214.913 107.535 214.141 110.622 213.112 113.967C212.082 117.311 210.795 120.398 209.251 123.486H208.736C208.479 119.884 208.736 116.539 208.994 113.195C209.251 109.851 209.766 106.506 210.538 103.162C211.31 99.8175 212.082 96.7304 213.112 93.386C213.884 90.0416 215.428 86.9544 216.458 83.61L218.002 84.3818C215.943 86.1826 213.884 87.9835 212.34 90.2988C210.538 92.3569 208.994 94.9295 207.192 96.7304C205.39 98.7884 203.074 100.332 201.015 102.133C198.956 103.676 196.639 105.477 194.065 106.764L193.293 106.506Z" fill="black"/>
</g>
<defs>
<clipPath id="clip0_5_75">
<rect width="278.744" height="248" fill="white"/>
</clipPath>
</defs>
</svg>
