<svg width="352" height="240" viewBox="0 0 352 240" fill="none" xmlns="http://www.w3.org/2000/svg">
<g clip-path="url(#clip0_5_15)">
<path d="M269.46 207.343C324.895 161.973 337.694 86.0147 298.047 37.6856C258.401 -10.6436 181.323 -13.0424 125.888 32.3278C70.4537 77.698 57.6548 153.656 97.3012 201.986C136.948 250.315 214.026 252.713 269.46 207.343Z" fill="#FFBA4A"/>
<path d="M19.5023 95.9L42.2549 75.6711L65.2575 54.9427L88.5102 33.9646L112.513 13.4859L113.513 12.4869L115.013 13.2362C118.764 15.7336 123.514 17.4817 128.265 18.4807C133.015 19.4797 137.766 19.4797 142.766 18.9802C152.768 18.231 163.019 17.232 173.27 17.9812C178.521 18.4807 183.521 19.2299 188.522 20.9781C193.522 22.7263 198.273 25.2237 202.523 27.9708C211.024 33.7148 218.525 40.9573 225.026 48.949L223.276 48.4495C233.777 44.9531 245.028 44.2039 255.779 46.4516C266.531 48.6992 276.282 53.9438 285.033 60.1872C293.784 66.6805 301.785 73.9229 309.536 81.1654C317.286 88.4079 327.288 93.4026 337.539 94.6514L339.539 94.9011L338.289 96.3995L287.283 154.839L236.027 213.528L233.777 216.025L232.027 213.028C225.526 202.539 218.525 192.05 211.274 182.06C204.023 172.071 196.273 162.081 187.522 153.59C183.021 149.344 178.27 145.848 173.02 143.6C167.269 141.353 161.519 140.104 155.268 138.855C143.266 136.608 130.765 135.858 118.264 136.108H116.263L116.013 134.11C115.263 125.12 111.513 115.629 104.262 110.135C100.762 107.388 96.2611 105.64 91.7606 104.641C87.01 103.642 82.2595 102.643 77.5089 101.894C68.0078 100.395 58.2567 99.3964 48.5056 98.3974L34.0039 97.1488L26.7531 96.6493L23.0027 96.3995L21.2525 96.1498C21.0024 96.1498 20.5024 96.3995 19.5023 95.9ZM20.0023 95.9C20.2523 95.6503 21.0024 95.9 21.5025 95.9H23.2527H27.0031L34.254 96.1498L48.7556 96.899C58.5067 97.3985 68.2579 98.1477 78.009 99.3964C82.7595 99.8959 87.7601 100.645 92.5106 101.644C97.2612 102.643 102.512 104.141 106.512 107.388C110.763 110.385 114.013 114.631 116.263 119.376C118.514 124.121 119.764 128.866 120.264 134.11L118.014 132.112C130.765 131.613 143.266 132.362 156.018 134.36C162.269 135.359 168.519 136.857 174.52 139.105C176.02 139.605 177.52 140.354 179.021 141.103C179.771 141.602 180.521 141.852 181.271 142.352L183.271 143.85C186.021 145.598 188.272 147.846 190.772 150.094C200.023 159.084 207.774 168.824 215.275 179.063C222.776 189.303 229.526 199.792 236.027 210.78L232.027 210.281L284.033 152.591L336.289 95.4006L337.039 97.1488C326.037 95.4006 316.036 90.156 308.035 82.6638C300.284 75.1716 292.534 67.6794 283.783 61.6857C275.032 55.4422 265.531 50.6971 255.029 48.4495C244.778 46.4516 233.777 47.7003 224.026 51.1966L223.026 51.4464L222.276 50.6971C215.775 43.2049 208.274 36.462 200.023 31.2174C195.772 28.4703 191.522 26.4724 186.771 24.9739C182.271 23.4755 177.27 22.7263 172.52 22.2268C162.769 21.4776 152.768 22.7263 142.516 23.4755C137.516 23.7252 132.015 23.7252 126.765 22.7263C121.514 21.4776 116.763 19.7294 112.013 16.7325H114.513L91.2605 36.462L67.5078 55.9417L43.505 75.6711L20.0023 95.9Z" fill="black"/>
<path d="M337.539 105.14C341.789 107.638 346.29 110.135 350.54 112.633L351.29 113.132L350.54 113.881C341.789 124.37 332.538 134.61 323.537 144.849C314.536 155.088 305.285 165.328 296.034 175.317C277.532 195.546 258.03 214.776 239.527 234.755L239.027 235.255L238.527 235.005C227.776 228.512 216.775 222.268 205.774 216.025L172.52 197.294C161.519 191.051 150.517 184.807 139.516 178.564L106.762 159.584L107.012 159.833C98.2613 156.087 89.5103 152.591 81.0093 148.845C72.2583 145.099 63.7573 141.353 55.0063 137.607L29.0033 126.119L3.25037 114.381L0 113.132L3.25037 112.383L17.002 108.886L30.7535 105.39L31.0036 105.89L17.502 110.135L4.00046 114.631L4.25049 112.383L30.5035 122.872L56.7565 133.361C65.5075 136.857 74.2585 140.603 83.0095 144.1C91.7605 147.596 100.512 151.342 109.013 155.088H109.263H109.513L142.016 174.568C152.768 181.061 163.519 187.555 174.52 194.298L206.774 214.277C217.525 220.77 228.526 227.263 239.277 233.756L238.277 234.006C256.779 213.777 274.281 192.549 292.784 172.57C302.035 162.581 311.536 152.591 320.787 142.601C330.288 132.862 339.789 122.872 349.29 113.132L349.54 114.381C345.54 111.634 341.289 108.886 337.289 105.89L337.539 105.14Z" fill="black"/>
<path d="M218.275 53.4443C215.525 57.4402 212.524 61.1863 209.524 64.9324C206.274 68.4287 203.023 72.1748 199.523 75.1717C196.022 78.4183 192.022 81.1654 188.522 84.4121C185.021 87.6587 181.771 91.155 178.52 94.9011C177.02 96.6493 175.27 98.6472 173.27 100.146C171.52 101.894 169.519 103.143 167.519 104.641C163.519 107.638 159.768 110.385 155.518 112.882C147.267 117.877 138.766 122.123 129.515 125.619L129.265 125.12C136.766 118.876 144.767 113.632 152.517 108.387C160.518 103.392 168.769 98.6472 176.27 92.9032C180.021 89.9063 183.521 86.9095 186.771 83.4131C190.022 79.9168 192.772 75.9209 196.022 72.4246C199.273 68.9282 202.523 65.4318 206.274 62.1852C209.774 58.9386 213.525 55.9417 217.525 53.1946L218.275 53.4443Z" fill="black"/>
<path d="M31.0035 113.132C48.2555 119.376 65.0074 126.119 81.7594 133.611C90.0103 137.357 98.2613 141.353 106.762 145.099L113.013 147.846C115.013 148.845 117.263 149.594 119.264 150.843C123.264 153.09 127.265 155.088 131.265 157.336C147.267 165.827 163.269 174.568 179.271 183.808C195.272 192.799 210.774 202.039 226.276 211.779V212.029C210.024 203.788 194.022 195.047 178.02 186.056C162.019 177.065 146.267 168.075 130.515 158.585C115.263 148.345 97.7612 142.352 81.0093 135.609C64.0073 128.616 47.2554 121.373 31.0035 113.132Z" fill="black"/>
<path d="M218.275 73.1737C225.026 72.6742 231.777 72.9239 238.527 74.1726C241.778 74.6721 245.278 75.6711 248.528 77.1695C249.279 77.4193 250.029 77.9187 251.029 78.4182C251.779 78.9177 252.529 79.1674 253.279 79.9167L254.529 80.6659L255.529 81.4151C256.279 81.9146 256.779 82.4141 257.53 82.9135C260.28 84.9115 263.03 86.6596 265.78 88.4078L274.031 93.9021C279.532 97.6482 285.033 101.394 290.283 105.39C284.033 103.142 277.782 100.146 272.031 97.1487C266.031 94.1518 260.28 90.6555 254.779 86.9094C254.029 86.4099 253.279 85.9104 252.779 85.4109L251.779 84.6617L250.779 83.9125C250.279 83.413 249.529 83.1633 248.779 82.6638C248.028 82.1643 247.528 81.9146 246.778 81.6648C244.028 80.1664 241.028 79.1674 237.777 78.1685C231.277 76.1706 224.776 74.6721 218.275 73.1737Z" fill="black"/>
<path d="M197.773 97.6482C203.273 97.3984 208.774 99.1466 213.525 101.894C218.275 104.641 222.526 108.637 225.276 113.382C221.025 109.885 217.025 106.639 212.274 103.892C207.774 101.644 202.773 99.6461 197.773 97.6482Z" fill="black"/>
<path d="M244.528 169.823C240.278 165.078 236.027 160.583 231.527 156.087C227.026 151.842 222.276 147.846 217.275 144.1C212.274 140.354 207.024 137.107 201.773 133.861C196.273 130.864 190.772 128.117 185.021 125.369C191.522 126.119 197.773 127.867 203.523 130.364C209.524 132.862 215.025 136.108 220.275 140.104C225.526 144.1 230.276 148.345 234.277 153.34C238.527 158.335 242.028 163.829 244.528 169.823Z" fill="black"/>
<path d="M150.767 49.6982C157.268 49.4484 164.019 51.1966 170.02 54.1935C176.02 57.1904 181.271 61.6857 184.771 67.18C179.771 62.9344 174.52 59.1883 168.769 56.1914C163.269 53.4443 157.268 51.4463 150.767 49.6982Z" fill="black"/>
<path d="M82.7595 70.9261C88.2602 70.1769 93.7608 70.4266 99.2614 71.4256C104.762 72.1748 110.013 73.923 115.263 75.9209C120.264 78.1686 125.514 80.666 129.515 85.411C133.265 89.9063 135.516 95.4006 135.516 100.895C133.265 95.9001 130.265 91.4048 126.515 88.1582C124.514 86.6597 122.514 85.1613 120.264 83.9126C118.014 82.6639 115.763 81.6649 113.263 80.666C108.512 78.668 103.512 76.9199 98.2613 75.4214C93.2607 73.4235 88.2602 72.1748 82.7595 70.9261Z" fill="black"/>
<path d="M120.514 139.604C121.514 140.853 121.764 142.352 121.764 143.6C121.764 144.849 121.514 146.347 120.514 147.596C119.514 146.347 119.264 144.849 119.264 143.6C119.514 142.352 119.514 140.853 120.514 139.604Z" fill="black"/>
<path d="M159.018 143.6C159.268 147.846 159.768 151.842 160.018 156.087C160.018 158.085 160.518 160.333 160.268 162.331C160.018 164.329 159.768 166.576 159.268 168.574H159.018C158.268 166.576 158.018 164.329 157.768 162.331C157.518 160.333 158.018 158.085 158.018 156.087C158.018 151.842 158.268 147.846 159.018 143.6Z" fill="black"/>
<path d="M176.77 162.581C177.77 164.578 178.02 166.576 178.02 168.574C178.02 170.572 177.77 172.57 176.77 174.568C175.77 172.57 175.52 170.572 175.52 168.574C175.77 166.576 176.02 164.578 176.77 162.581Z" fill="black"/>
<path d="M202.023 177.315C203.023 179.313 203.273 181.561 203.273 183.559C203.273 185.557 203.023 187.804 202.023 189.802C201.023 187.804 200.773 185.557 200.773 183.559C200.773 181.561 201.023 179.563 202.023 177.315Z" fill="black"/>
<path d="M31.0035 99.1467C31.7536 100.895 32.0036 102.893 32.0036 104.641C32.0036 106.389 31.7536 108.387 31.0035 110.135C30.2534 108.387 30.0034 106.389 30.0034 104.641C30.0034 102.893 30.2534 100.895 31.0035 99.1467Z" fill="black"/>
<path d="M59.2568 103.142C59.5068 105.39 60.0069 107.638 60.2569 109.885C60.2569 110.884 60.757 112.133 60.5069 113.132C60.2569 114.131 60.0069 115.38 59.5068 116.379H59.2568C58.5067 115.38 58.2567 114.131 58.0067 113.132C57.7566 112.133 58.2567 110.884 58.2567 109.885C58.5067 107.638 58.7567 105.39 59.2568 103.142Z" fill="black"/>
<path d="M101.262 135.609C101.012 131.863 100.512 128.366 100.512 124.62C100.512 122.872 100.012 120.874 100.262 119.126C100.512 117.378 100.762 115.38 101.262 113.632H101.512C102.262 115.38 102.512 117.378 102.512 119.126C102.762 120.874 102.262 122.872 102.262 124.62C102.012 128.366 101.762 131.863 101.262 135.609Z" fill="black"/>
</g>
<defs>
<clipPath id="clip0_5_15">
<rect width="351.29" height="240" fill="white"/>
</clipPath>
</defs>
</svg>
