<svg width="15" height="19" viewBox="0 0 15 19" fill="none" xmlns="http://www.w3.org/2000/svg">
<path d="M12.9844 4.23438C13.6562 4.54688 13.9922 4.89844 13.9922 5.28906C13.9922 5.46094 13.6875 6.00781 13.0781 6.92969C11.9062 9.16406 10.8672 11.4219 9.96094 13.7031C10.4766 13.9688 10.7344 14.375 10.7344 14.9219C10.7344 15.2656 10.625 15.5547 10.4062 15.7891C10.2031 16.0078 9.9375 16.1172 9.60938 16.1172C9.45312 16.1172 9.28125 16.0859 9.09375 16.0234C9.04688 16.3516 8.96094 16.8281 8.83594 17.4531C8.71094 18.0781 8.41406 18.3906 7.94531 18.3906C7.58594 18.3906 7.22656 18.25 6.86719 17.9688C6.52344 17.6875 6.35938 17.375 6.375 17.0312C6.17188 17.0781 5.97656 17.1016 5.78906 17.1016C5.28906 17.1016 4.97656 16.8516 4.85156 16.3516C4.39844 13.0078 3.33594 9.28125 1.66406 5.17188C1.63281 5.09375 1.44531 4.75781 1.10156 4.16406C0.851562 3.72656 0.726562 3.39844 0.726562 3.17969C0.726562 2.69531 1.05469 2.39063 1.71094 2.26562C2.02344 2.04687 2.35156 1.9375 2.69531 1.9375C3.19531 1.9375 3.52344 2.15625 3.67969 2.59375C3.74219 2.96875 3.875 3.53125 4.07812 4.28125C4.45312 5.25 5.57812 7.89844 7.45312 12.2266C8 11.5234 9.39844 8.35156 11.6484 2.71094C11.7266 2.39844 11.8359 1.94531 11.9766 1.35156C12.1328 0.757812 12.3906 0.460938 12.75 0.460938C13.0625 0.460938 13.4141 0.585938 13.8047 0.835938C14.1953 1.08594 14.3906 1.35938 14.3906 1.65625C14.3906 1.71875 14.1797 2.11719 13.7578 2.85156C13.3359 3.57031 13.0781 4.03125 12.9844 4.23438Z" fill="#68D4BB"/>
</svg>
