<svg width="307" height="248" viewBox="0 0 307 248" fill="none" xmlns="http://www.w3.org/2000/svg">
<g clip-path="url(#clip0_34_96)">
<path d="M153.5 245.605C238.276 245.605 307 192.114 307 126.129C307 60.1438 238.276 6.65234 153.5 6.65234C68.7243 6.65234 0 60.1438 0 126.129C0 192.114 68.7243 245.605 153.5 245.605Z" fill="#FFBA4A"/>
<path d="M213.727 151.408C213.727 170.833 206.532 190.258 192.941 204.893C186.279 212.077 177.751 217.931 168.69 221.923C159.629 225.914 149.503 227.777 139.376 227.511C129.516 227.245 119.655 225.116 110.595 221.125C101.534 217.133 93.5391 211.279 86.6102 204.361C79.6814 197.442 74.0851 189.193 70.3542 180.146C66.6233 171.099 64.2248 161.519 64.2248 151.408C63.6918 131.717 71.4201 111.76 85.5443 97.3906C92.4731 90.2061 101.001 84.6181 110.328 80.6267C119.655 76.6352 129.782 74.7726 139.642 74.7726C149.769 74.7726 159.629 76.9013 168.957 80.8928C178.284 84.8842 186.545 90.7382 193.207 97.9228C206.799 112.558 213.994 131.983 213.727 151.408ZM213.194 151.408C213.194 141.828 211.063 132.249 207.065 123.468C203.068 114.687 197.471 106.97 190.543 100.584C176.685 87.8112 158.03 80.3606 139.376 80.6267C120.721 80.6267 102.333 88.0773 88.7422 101.116C75.4175 114.155 67.1563 132.515 66.8898 151.674C66.6233 170.3 74.0851 189.725 87.9427 203.03C101.534 216.601 120.988 223.519 139.642 222.987C158.563 222.721 176.951 215.27 190.809 202.498C197.738 196.112 203.334 188.129 207.332 179.348C211.329 170.567 213.194 160.987 213.194 151.408Z" fill="black"/>
<path d="M223.588 154.601C223.588 165.511 221.456 176.155 217.458 186.266C213.461 196.378 207.332 205.691 199.603 213.408C191.875 221.124 182.548 227.511 172.421 231.768C162.294 236.026 151.102 237.888 140.175 237.888C129.249 237.622 118.323 235.227 108.196 230.97C98.0694 226.712 89.0087 220.592 81.2804 212.876C73.5521 205.425 67.1562 196.378 62.6258 186.532C58.362 176.687 55.697 165.777 55.4305 154.867C54.8975 143.691 57.0295 132.781 61.2934 122.403C65.5573 112.292 71.9531 102.979 79.9479 95.2618C87.9427 87.5451 97.2699 81.4249 107.663 77.1674C118.056 72.9099 128.983 71.0472 140.175 70.7811C151.368 70.7811 162.294 72.9099 172.687 77.1674C182.814 81.4249 192.141 87.8112 199.87 95.5279C207.598 103.245 213.727 112.558 217.725 122.67C221.456 133.047 223.588 143.957 223.588 154.601ZM223.055 154.601C223.055 143.957 220.656 133.313 216.126 123.468C211.595 113.888 205.2 105.373 197.205 98.4549C181.482 84.3519 160.695 76.6352 139.909 76.6352C119.122 76.6352 98.3359 84.618 83.1458 98.9871C75.684 106.172 69.2882 114.687 65.0243 124.266C60.7604 133.846 58.3619 144.223 58.0955 154.867C57.829 165.511 59.6944 176.155 63.9583 185.734C67.9557 195.579 74.3515 204.361 82.0798 211.811C97.5364 226.446 119.122 233.897 139.909 233.365C160.962 233.099 181.482 225.116 197.205 211.013C204.933 204.094 211.595 195.313 216.126 185.734C220.923 176.155 223.055 165.245 223.055 154.601Z" fill="black"/>
<path d="M121.521 71.0473C121.254 68.1203 120.988 65.4593 120.988 62.5323C120.721 59.6053 120.721 56.9443 120.721 54.0173L121.787 55.0816C116.724 55.0816 111.661 55.3477 106.331 55.0816H105.531L105.265 54.5495C104.199 52.1546 103.666 49.4937 104.199 46.8327C104.465 45.5023 105.265 44.1718 106.331 43.3735C107.397 42.5752 108.729 42.043 109.795 41.5108C114.592 39.9143 119.389 38.5838 124.186 37.5194C126.584 36.9872 128.983 36.455 131.648 36.1889C132.98 35.9229 134.046 35.9229 135.378 35.9229C135.911 35.9229 136.711 35.9229 137.244 35.9229H138.31L139.376 36.1889C140.975 36.9872 142.041 38.3177 142.574 39.6482C143.107 40.9786 143.373 42.3091 143.64 43.6396C143.906 46.3005 144.173 48.6954 143.906 51.3563V52.6868H142.574C139.109 53.219 135.112 53.219 131.381 53.219L132.447 51.8885C133.247 57.4765 133.78 62.7984 134.046 68.3864H133.78C132.447 63.0645 131.381 57.4765 130.315 52.1546L130.049 51.0902H131.381C135.378 50.8241 139.109 50.558 143.107 50.2919L141.774 51.6224C141.774 49.2276 141.774 46.8327 141.508 44.4379C141.241 42.3091 140.442 39.6482 139.109 39.116C138.843 39.116 138.576 39.116 138.576 38.8499H137.777C137.244 38.8499 136.711 38.8499 135.911 38.8499C134.845 38.8499 133.513 38.8499 132.181 38.8499C129.782 38.8499 127.384 39.116 124.719 39.3821C119.922 39.9143 114.859 40.7126 110.328 42.5752C109.262 43.1074 107.93 43.6396 107.13 44.1718C106.331 44.9701 105.798 46.0344 105.798 47.0988C105.531 49.2276 106.331 51.8885 107.397 53.7512L106.331 53.219C111.394 52.9529 116.457 52.9529 121.787 53.219H122.853V54.2834C122.853 57.2104 122.587 59.8713 122.587 62.7984C122.32 65.4593 122.054 68.3864 121.521 71.0473Z" fill="black"/>
<path d="M153.5 60.6696C154.566 58.2748 155.898 56.146 157.231 54.0173C158.563 51.8885 160.429 50.0258 162.028 48.1632C165.492 44.4379 169.756 41.5108 174.553 39.3821C175.885 38.8499 176.951 38.3177 178.284 38.0516L182.015 37.2533C184.68 36.9872 187.345 36.7211 189.743 37.2533C191.076 37.5194 192.408 37.5194 193.474 37.7855L197.205 38.8499C199.603 39.6482 201.735 40.9786 204.134 42.043C208.398 44.7039 212.661 47.631 215.859 51.6224C216.659 52.6868 217.458 53.4851 217.991 54.8155C218.524 55.8799 219.324 56.9443 219.857 58.0087L221.189 61.4679C221.456 62.7984 221.722 63.8627 222.255 65.1932C224.387 75.3048 221.989 85.6825 217.458 94.9958L216.925 96.0602L215.859 95.528C205.2 89.94 194.54 84.352 183.88 78.2318L168.424 69.4507L153.5 60.6696ZM153.766 60.4035L170.023 68.3864L186.012 76.3692C196.672 81.6911 206.799 87.2791 217.192 92.8671L215.593 93.3992C217.725 89.1417 219.59 84.352 220.656 79.8284C221.722 75.0387 222.255 69.9829 221.456 65.1932C220.923 60.4035 218.524 55.6138 215.326 51.8885C214.527 51.0902 213.727 50.0258 212.928 49.2276L209.997 46.8327C209.197 46.0344 207.865 45.5022 206.799 44.7039L203.601 42.8413C201.202 42.043 199.07 40.9786 196.672 40.1803C194.273 39.6482 191.875 38.8499 189.477 38.8499C184.68 38.3177 179.883 39.116 175.352 40.9786C166.292 44.97 159.096 52.4207 153.766 60.4035Z" fill="black"/>
<path d="M102.067 66.2575C94.605 59.8713 85.2778 55.0816 75.4175 54.2833C70.6207 54.0172 65.5573 54.8155 61.2934 56.9442C60.7604 57.2103 60.2274 57.4764 59.6944 57.7425L57.829 58.5408L54.6311 60.4035C52.7656 62 50.6337 63.3305 48.7682 65.1932C47.1693 67.0558 45.0373 68.6524 43.7049 70.7811C42.9054 71.8455 42.3724 72.9099 41.5729 73.9743L40.5069 77.1674C38.6415 81.691 37.842 86.7468 38.375 91.8026C38.908 96.8584 40.2405 101.648 42.3724 105.906C44.5043 110.429 47.1693 114.687 50.3672 118.412H48.5017C57.0295 109.631 65.5573 100.85 74.6181 92.3348L88.2092 79.2962L102.067 66.2575ZM102.333 66.2575L89.8082 79.5623L77.0165 93.1331C68.2222 102.18 59.1615 111.228 50.1007 120.009L49.0347 121.073L48.2352 120.009C41.8394 111.76 37.5755 102.18 37.0425 91.8026C36.776 86.7468 37.842 81.4249 39.7075 76.9013L41.3064 73.4421C41.8394 72.3777 42.6389 71.3133 43.4384 70.249C44.7708 67.8541 46.6363 66.2575 48.2352 64.1288C49.8342 62.2661 51.9662 60.6696 53.8316 58.8069L57.0295 56.6781L58.6285 55.6138C59.1615 55.3477 59.6944 55.0816 60.4939 54.8155C65.2908 52.4206 70.6207 51.6223 75.684 52.1545C81.0139 52.4206 85.8108 54.2833 90.3411 56.6781C92.4731 58.0086 94.8715 59.3391 96.737 60.9357C98.6024 62.5322 100.468 64.1288 102.333 66.2575Z" fill="black"/>
<path d="M230.783 119.21C234.78 121.073 238.511 124 241.176 127.725C244.108 131.451 245.707 135.708 246.24 140.498C246.773 145.021 246.506 149.545 245.707 154.069C244.907 158.592 243.308 162.85 240.91 166.575C242.509 162.318 243.308 158.06 243.841 153.803C244.374 149.545 244.374 145.288 243.841 141.03C243.308 136.773 241.976 132.781 239.577 129.322C237.179 125.33 234.247 121.871 230.783 119.21Z" fill="black"/>
<path d="M255.567 124C256.899 124.266 257.965 125.597 258.765 126.661C259.564 127.725 260.364 129.056 260.897 130.386C261.963 133.047 262.496 135.708 263.029 138.635C263.295 141.562 263.295 144.489 262.496 147.15C261.696 149.811 260.63 152.738 258.498 154.601C259.564 151.94 260.097 149.279 260.364 146.884C260.63 144.223 260.63 141.562 260.364 138.901C260.097 136.24 259.564 133.579 259.031 130.918C258.765 129.588 258.232 128.258 257.699 127.193C257.432 126.129 256.899 124.798 255.567 124Z" fill="black"/>
<path d="M277.419 128.79C279.018 130.12 280.351 131.983 281.15 133.846C282.216 135.708 282.749 137.837 283.016 140.232C283.016 142.627 282.216 144.755 281.417 146.618C280.351 148.481 279.285 150.343 277.419 151.674C278.219 149.545 278.752 147.682 279.285 145.82C279.818 143.957 280.351 142.095 280.351 140.232C280.351 138.369 279.818 136.507 279.285 134.644C278.752 132.515 277.952 130.652 277.419 128.79Z" fill="black"/>
<path d="M213.727 201.7C216.925 205.159 219.324 209.15 221.189 213.408C221.989 215.537 222.522 217.931 223.055 220.326C223.321 221.391 223.588 222.721 223.854 223.786C224.121 224.85 224.121 226.18 223.854 227.511C223.588 228.043 223.321 228.841 222.788 229.374C222.255 229.906 221.456 230.172 220.656 230.172C219.057 230.172 217.991 229.906 216.659 229.374C214.26 228.309 212.395 226.979 210.53 225.648C206.799 222.721 203.867 218.996 201.202 215.271L201.469 215.004C205.2 217.665 208.664 220.592 212.395 223.519C214.26 224.85 215.859 226.18 217.725 227.245C218.524 227.777 219.59 228.043 220.39 228.309C221.189 228.309 221.989 228.043 222.255 227.245C223.055 225.382 222.788 222.987 221.989 220.858C221.189 218.73 220.123 216.601 219.057 214.738C216.925 210.215 215.06 206.223 213.727 201.7Z" fill="black"/>
<path d="M98.6024 229.107C98.0694 231.502 97.27 233.897 96.4705 236.026C95.4045 238.155 94.3385 240.283 92.7396 242.146C91.1406 244.009 89.2752 245.605 87.1432 246.936C86.0773 247.468 84.7448 248 83.4123 248C82.0799 248 80.7474 247.468 79.9479 246.404C78.0825 244.275 77.816 241.614 77.5495 239.219C77.283 236.824 77.5495 234.429 77.816 232.034C78.6154 227.245 79.9479 222.721 82.0799 218.198H82.3463C81.8134 222.987 81.0139 227.511 80.4809 232.301C80.2144 234.695 79.9479 236.824 79.9479 239.219C79.9479 241.348 79.9479 243.743 81.0139 245.605C81.5469 246.404 82.3463 247.202 83.4123 247.202C84.4783 247.468 85.5443 246.936 86.6102 246.404C88.4757 245.073 89.8081 242.944 90.8741 241.082C93.2726 237.09 95.671 233.099 98.6024 229.107Z" fill="black"/>
<path d="M43.9713 188.395C40.7734 185.468 38.375 181.743 36.243 177.751C34.3776 173.76 32.5121 169.768 31.7126 165.245C30.9132 160.721 31.4461 156.197 32.5121 151.94C33.5781 147.682 35.177 143.425 37.5755 139.966C36.243 144.223 35.177 148.215 34.6441 152.472C34.1111 156.73 33.8446 160.987 34.6441 164.979C34.9105 167.107 35.4435 168.97 36.243 171.099C36.776 173.228 37.5755 175.09 38.375 176.953C39.7074 180.944 41.5729 184.936 43.9713 188.395Z" fill="black"/>
<path d="M26.9158 188.395C24.7839 185.734 23.1849 182.807 21.5859 179.88C19.987 176.953 18.6545 173.76 17.5885 170.567C17.0556 168.97 16.7891 167.107 16.7891 165.245C16.7891 163.382 17.0556 161.785 17.5885 159.923C18.6545 156.73 20.2535 153.537 22.3854 151.142C21.053 154.335 20.2535 157.262 19.454 160.455C18.921 163.648 18.921 166.575 19.987 169.502C20.7865 172.695 22.1189 175.622 23.1849 178.816C24.7839 182.275 25.8498 185.202 26.9158 188.395Z" fill="black"/>
<path d="M7.46178 188.395C5.86283 187.064 4.53036 185.202 3.46439 183.339C2.39842 181.476 1.59894 179.348 1.59894 176.953C1.59894 174.824 1.59894 172.695 1.86543 170.567C2.13192 168.438 2.39842 166.309 2.9314 164.18C3.46439 166.309 3.73088 168.438 3.99738 170.567C4.26387 172.695 4.26387 174.824 4.26387 176.687C4.26387 178.549 4.79685 180.412 5.59633 182.541C5.86283 184.403 6.66231 186.532 7.46178 188.395Z" fill="black"/>
<path d="M131.115 112.558C130.582 107.768 130.049 102.979 129.516 98.189C129.249 95.7941 128.983 93.3993 128.716 91.0044C128.716 89.6739 128.716 88.6095 128.716 87.2791C128.716 86.7469 128.716 85.9486 128.716 85.4164C128.716 85.1503 128.716 84.6181 128.983 84.352C128.983 84.0859 128.983 84.0859 129.249 83.5538C129.516 83.2877 129.516 82.7555 130.582 82.4894C131.648 82.4894 131.914 83.0216 132.181 83.0216C132.447 83.2877 132.447 83.5538 132.714 83.5538C132.98 83.8199 132.98 84.0859 133.247 84.6181C133.513 85.1503 133.779 85.9486 134.046 86.4808C134.312 87.5452 134.845 88.8756 135.112 89.94C135.645 92.3349 136.178 94.7297 136.711 97.1246C137.777 101.914 138.576 106.704 139.109 111.494C139.909 116.283 140.442 121.073 140.975 125.863C141.241 128.258 141.241 130.652 141.508 133.047C141.508 134.378 141.508 135.442 141.508 136.773C141.508 137.305 141.508 138.103 141.241 138.901C141.241 139.167 140.975 139.7 140.975 140.232C140.975 140.498 140.708 140.764 140.442 141.296C140.442 141.562 140.175 141.828 139.909 142.095C139.642 142.361 139.642 142.361 139.376 142.627C139.109 142.893 138.576 142.893 138.31 142.893C138.043 142.893 137.51 142.893 137.244 142.893C136.711 142.893 136.711 142.627 136.444 142.627C135.911 142.361 135.911 142.095 135.645 142.095C135.378 141.828 135.112 141.562 135.112 141.296C134.845 140.764 134.845 140.498 134.579 140.232C134.312 139.434 134.046 138.901 134.046 138.369C133.779 137.039 133.513 135.974 133.247 134.644C132.98 132.249 132.714 129.854 132.714 127.459C131.914 122.137 131.648 117.348 131.115 112.558ZM131.648 112.558C132.181 117.348 133.513 121.871 134.845 126.661C135.378 129.056 136.178 131.185 136.977 133.58C137.244 134.644 137.777 135.708 138.043 136.773C138.31 137.305 138.31 137.837 138.576 138.103C138.576 138.369 138.843 138.369 138.843 138.635C138.843 138.635 138.843 138.635 138.31 138.369C138.043 138.369 138.043 138.369 137.777 138.103C137.51 138.103 137.244 138.103 136.977 138.103C136.711 138.103 136.444 138.103 136.178 138.369C135.911 138.103 135.911 138.103 135.645 138.369C135.378 138.635 135.378 138.635 135.378 138.901C135.378 139.167 135.378 138.901 135.378 138.901C135.378 138.901 135.378 138.635 135.378 138.369C135.378 137.837 135.378 137.305 135.378 136.773C135.378 135.708 135.378 134.644 135.378 133.313C135.378 130.919 135.378 128.524 135.378 126.395C135.378 121.605 135.112 116.816 134.579 112.292C134.046 107.502 133.779 102.713 132.98 98.189C132.714 95.7941 132.181 93.3993 131.914 91.2705C131.648 90.2061 131.381 88.8756 131.115 87.8113C130.848 87.2791 130.848 86.7469 130.582 86.2147C130.582 85.9486 130.315 85.6825 130.315 85.6825V85.4164C130.315 85.4164 130.315 85.6825 131.115 85.6825C131.914 85.6825 131.648 85.1503 131.914 85.4164C131.914 85.4164 131.914 85.4164 131.914 85.6825C131.914 85.9486 131.648 86.2147 131.648 86.4808C131.648 87.013 131.381 87.5452 131.381 88.0774C131.381 89.1417 131.115 90.4722 131.115 91.5366C131.115 93.9314 130.848 96.3263 130.848 98.7211C130.848 102.979 131.115 107.768 131.648 112.558Z" fill="black"/>
<path d="M121.254 182.807C119.389 186 117.523 189.459 116.191 192.919C115.658 194.781 114.858 196.378 114.325 198.24C114.059 199.039 113.792 200.103 113.792 200.901C113.792 201.434 113.792 201.7 113.792 202.232V202.498L113.526 202.232C113.526 202.232 113.26 201.966 113.26 202.232L113.526 201.966C113.792 201.7 114.059 201.434 114.325 201.167C114.858 200.635 115.391 199.837 116.191 199.039C117.257 197.708 118.323 196.112 119.389 194.515C121.521 191.322 123.386 188.129 124.985 184.936C126.851 181.476 128.45 178.283 129.782 174.824C130.582 173.228 131.115 171.365 131.648 169.768C131.914 168.97 132.181 168.172 132.447 167.373C132.447 167.107 132.714 166.575 132.714 166.309C132.714 166.309 132.714 166.043 132.714 166.309C132.714 166.309 132.714 166.575 132.98 166.575C133.246 166.841 133.513 167.373 133.779 167.373C134.046 167.64 134.579 167.64 134.845 167.64C135.112 167.64 135.112 167.64 135.112 167.64C135.378 167.64 135.112 167.64 135.112 167.64C134.845 167.906 134.579 167.906 134.312 168.172C133.779 168.704 132.98 169.236 132.447 169.768C131.115 171.099 129.782 172.429 128.45 173.76C125.785 176.421 123.386 179.614 121.254 182.807ZM120.721 182.541C122.587 179.082 124.186 175.622 126.051 172.163C126.851 170.567 127.917 168.704 128.983 167.107C129.516 166.309 130.049 165.511 130.848 164.713C131.115 164.446 131.648 163.914 132.181 163.382C132.713 163.116 132.713 162.85 133.513 162.85C133.779 162.85 134.046 162.584 134.579 162.584C135.112 162.584 135.911 162.85 136.444 163.116C136.977 163.382 137.51 163.914 137.777 164.446C138.043 164.712 138.043 164.979 138.043 165.511C138.31 166.309 138.043 166.309 138.043 166.841C138.043 167.64 138.043 168.172 137.777 168.704C137.51 169.768 137.244 170.833 136.977 171.897C136.178 173.76 135.378 175.622 134.579 177.219C132.714 180.678 130.848 184.137 128.716 187.331C126.584 190.524 124.452 193.717 122.054 196.91C120.988 198.506 119.655 200.103 118.323 201.434C117.523 202.232 116.99 202.764 116.191 203.562C115.924 203.828 115.391 204.361 114.858 204.627C114.592 204.361 114.592 204.627 114.059 204.893C113.792 204.893 113.526 204.893 113.26 205.159C112.993 205.159 112.46 205.159 112.194 204.893C111.927 204.627 111.661 204.361 111.394 204.094C111.394 203.828 111.128 203.562 111.128 203.296C111.128 202.764 111.128 202.498 111.128 202.232C111.128 201.7 111.394 201.167 111.394 200.635C111.661 199.571 111.927 198.773 112.46 197.708C113.26 195.846 114.059 194.249 115.125 192.652L120.721 182.541Z" fill="black"/>
<path d="M146.838 153.537C146.838 155.399 146.571 157.794 145.239 159.657C143.906 161.786 141.241 162.85 138.843 162.318C136.444 162.052 134.579 160.455 132.98 158.858C131.381 157.528 130.049 155.665 129.782 153.27C129.249 150.876 130.049 148.215 131.914 146.352C133.779 144.489 136.178 143.425 138.843 143.691C140.175 143.691 141.241 143.957 142.574 144.489C143.64 145.022 144.706 145.82 145.239 146.884C146.571 149.545 146.838 151.674 146.838 153.537ZM146.305 153.537C146.305 151.674 144.706 150.343 143.107 150.077C141.508 149.811 140.175 149.811 139.109 149.811C136.444 149.811 134.046 150.876 132.98 153.803C132.447 155.133 132.98 157.262 134.579 158.06C135.911 159.125 138.043 158.592 139.376 158.326C140.708 158.06 142.041 157.794 143.64 157.528C144.439 156.996 146.305 155.399 146.305 153.537Z" fill="black"/>
<path d="M190.276 146.618C190.542 145.554 191.075 144.755 191.608 144.489C192.141 143.957 192.674 143.691 193.474 143.957C194.273 144.223 195.073 144.755 195.606 144.755C196.405 144.755 196.938 144.223 197.471 143.691C198.004 142.893 198.537 142.361 199.07 142.094C199.603 141.828 200.136 141.296 200.936 141.296C202.268 141.296 203.601 141.562 205.466 142.893L205.733 143.425C204.933 145.288 203.867 146.352 202.535 146.884C202.002 147.15 201.202 147.15 200.669 147.15C199.87 147.15 199.337 146.884 198.537 146.618C197.738 146.352 196.938 146.086 196.405 146.618C195.872 146.884 195.339 147.948 194.806 148.481C194.273 149.013 193.474 149.013 192.941 148.747C192.141 148.481 191.342 148.215 190.542 147.416L190.276 146.618Z" fill="black"/>
<path d="M149.503 198.24C150.569 198.506 151.102 199.039 151.635 199.571C151.901 200.103 152.168 200.635 152.168 201.167C151.901 201.7 151.102 202.498 151.102 203.03C151.102 203.562 151.368 204.094 151.901 204.627C152.434 205.159 152.967 205.691 153.233 206.223C153.5 206.755 153.766 207.288 153.766 207.82C153.766 208.884 153.233 210.215 151.635 211.545H151.102C149.236 210.747 148.437 209.682 147.904 208.618C147.637 208.086 147.904 207.554 147.904 207.021C147.904 206.489 148.17 205.957 148.703 205.159C149.236 204.627 149.236 203.828 148.97 203.296C148.703 202.764 147.904 202.232 147.371 201.966C146.838 201.433 147.104 200.901 147.371 200.369C147.637 199.837 147.904 199.039 148.97 198.506L149.503 198.24Z" fill="black"/>
<path d="M91.6736 159.657C91.1406 160.721 90.6076 161.253 90.0746 161.785C89.5416 162.052 88.7422 162.584 88.2092 162.318C87.4097 162.052 86.6102 161.519 86.0772 161.253C85.2778 161.253 84.7448 161.519 84.2118 162.318C83.6788 162.85 83.1458 163.382 82.3463 163.648C81.8133 163.914 81.0139 164.446 80.4809 164.446C79.1484 164.446 77.816 164.18 75.9505 162.584V162.052C77.0165 160.189 78.0824 159.125 79.4149 158.858C79.9479 158.592 80.7474 158.592 81.5469 158.858C82.3463 158.858 82.8793 159.125 83.6788 159.391C84.4783 159.657 85.0113 159.923 85.8107 159.657C86.3437 159.391 86.8767 158.326 87.4097 157.794C87.9427 157.262 88.7422 157.528 89.2752 157.528C90.0746 157.794 90.6076 158.06 91.6736 158.858V159.657Z" fill="black"/>
<path d="M38.908 67.3219C45.5703 61.2018 51.6996 55.0816 57.5625 48.4292C60.4939 45.2361 63.4253 41.7769 66.0902 38.3176C68.7552 34.8584 71.1536 31.1331 74.3515 27.6739C77.283 24.2146 81.0139 21.2876 84.4783 18.3606C87.9427 15.6996 91.6736 13.0387 95.671 10.6438C103.399 6.12022 111.927 2.3949 120.988 0.798337C130.049 -0.798229 139.642 -0.26604 148.437 2.3949C152.967 3.72538 157.231 5.32194 161.495 7.4507C165.759 9.57945 169.49 12.2404 173.22 15.1674C186.545 26.6095 201.469 35.9228 217.458 43.9056L217.192 44.4378C199.87 39.6481 183.347 30.867 169.223 19.691C165.759 17.0301 162.294 14.6352 158.563 12.5065C154.832 10.6438 150.835 8.78117 146.571 7.4507C138.31 4.78975 129.782 3.45928 120.988 3.99147C112.194 4.52366 103.666 7.4507 96.204 12.2404C92.4731 14.6352 89.2751 17.5623 86.0772 20.7554C82.8793 23.9485 79.9479 27.1417 77.5495 30.6009C74.8845 34.0601 72.4861 37.7855 69.5547 41.2447C66.6232 44.7039 63.6918 48.1631 60.4939 51.3563C54.0981 57.7425 46.9027 63.3305 39.1745 67.8541L38.908 67.3219Z" fill="black"/>
<path d="M219.59 34.8584C219.59 36.1889 219.324 37.7855 218.524 39.1159C217.725 40.4464 215.859 41.2447 214.26 41.2447C212.661 40.9786 211.329 39.9142 210.263 38.8498C209.197 37.7855 208.664 36.455 208.398 34.8584C207.598 31.6653 210.796 28.2061 214.26 28.2061C215.859 28.2061 217.725 29.0043 218.524 30.6009C219.59 31.9314 219.59 33.5279 219.59 34.8584ZM219.324 34.8584C219.324 33.5279 218.258 32.4636 217.458 31.9314C216.392 31.3992 215.326 31.1331 214.527 31.1331C212.661 31.1331 210.796 32.4636 210.263 34.8584C209.997 35.9228 210.263 37.2533 211.329 38.0516C212.395 38.8498 213.727 38.8498 214.527 38.8498C215.593 38.5837 216.392 38.3176 217.458 37.7855C218.524 37.2533 219.324 36.1889 219.324 34.8584Z" fill="black"/>
<path d="M45.5703 57.2104C45.5703 58.2748 45.5703 59.6052 44.7708 60.6696C43.9713 62.0001 42.6389 62.5323 41.3064 62.5323C39.9739 62.2662 38.908 61.4679 38.1085 60.4035C37.309 59.6052 36.776 58.5409 36.5095 57.2104C35.71 54.5494 38.375 51.3563 41.5729 51.6224C43.1718 51.6224 44.5043 52.4207 45.3038 53.7512C45.5703 54.8155 45.5703 56.146 45.5703 57.2104ZM45.3038 57.2104C45.3038 56.146 44.5043 55.0816 43.7048 54.8155C42.9053 54.5494 42.1059 54.2833 41.3064 54.2833C39.7074 54.2833 38.375 55.3477 37.842 57.2104C37.5755 58.0087 37.842 59.3391 38.6415 59.8713C39.4409 60.6696 40.5069 60.4035 41.3064 60.4035C42.1059 60.1374 42.9053 60.1374 43.7048 59.6052C44.5043 59.3391 45.3038 58.2748 45.3038 57.2104Z" fill="black"/>
</g>
<defs>
<clipPath id="clip0_34_96">
<rect width="307" height="248" fill="white"/>
</clipPath>
</defs>
</svg>
