<svg width="62" height="50" viewBox="0 0 62 50" fill="none" xmlns="http://www.w3.org/2000/svg">
<path d="M31.165 0C32.3909 2.12465 33.7582 4.29651 35.2198 6.56279C36.7285 8.82908 38.2844 11.2842 39.746 13.8338L38.4259 12.8423L54.362 13.7394L62 14.1643L56.1065 19.169L44.0365 29.509L44.6494 27.6204L46.2996 43.4844L46.4882 45.373L44.7437 44.6176L30.1749 38.1492H32.1551L18.5764 46.5061L12.8715 50L13.9559 43.1067L16.5019 27.4315L17.4449 30.406L5.94068 19.4523L0 13.7394L7.92091 13.4089L23.857 12.7007L22.3954 13.7866C23.9513 11.2842 25.5072 8.82908 27.0631 6.51558C28.5719 4.24929 29.9392 2.12465 31.165 0ZM31.165 0.708215C30.0335 3.35222 29.0905 5.99622 28.2418 8.45137C27.3932 10.9537 26.6859 13.22 25.8844 15.4863L25.6015 16.2417L24.4228 16.525L8.91103 20.3966L10.8913 14.3532L22.1597 25.5902L23.4327 26.865L23.1027 28.5647L20.2738 44.2398L15.6532 40.8876L30.1749 34.4193L31.3065 33.8999L32.1551 34.4193L45.7338 42.729L44.1779 43.8621L40.4532 28.3758L40.2175 27.4315L41.0662 26.4873L51.7217 14.6364L53.4662 20.0661L37.9544 16.3834L36.9171 16.1473L36.6342 15.4391C35.7855 13.1728 34.984 10.9065 34.1354 8.40415C33.2867 5.94901 32.2966 3.305 31.165 0.708215Z" fill="#FFBA4A"/>
</svg>
