<svg width="270" height="240" viewBox="0 0 270 240" fill="none" xmlns="http://www.w3.org/2000/svg">
<g clip-path="url(#clip0_5_75)">
<path d="M258.227 189.247C288.215 137.331 257.286 63.3658 189.144 24.0413C121.003 -15.2832 41.4521 -5.07573 11.4636 46.8403C-18.525 98.7564 12.4042 172.721 80.546 212.046C148.688 251.37 228.238 241.163 258.227 189.247Z" fill="#FFBA4A"/>
<path d="M17.9336 61.7427H18.1827H18.4318H18.6808H19.179L20.4244 61.4938L22.9152 60.9958L27.6477 60.2489L37.3617 58.7552C43.8378 57.7593 50.3138 57.0124 56.7898 56.2655C69.7419 54.7718 82.694 53.278 95.6461 52.0332C121.55 49.7925 147.704 47.8008 173.857 48.5477C180.333 48.7967 187.058 49.0456 193.534 49.7925C196.772 50.2904 200.01 50.5394 203.248 51.2863C206.486 52.0332 209.724 52.7801 212.962 54.5228C213.709 55.0207 214.457 55.5187 215.204 56.0166C215.951 56.7635 216.449 57.5104 216.947 58.2572C217.944 59.751 218.691 60.9958 219.687 62.4896C221.182 65.4772 222.676 68.4647 223.672 71.4523C225.914 77.6763 227.907 83.9004 229.401 90.3734C231.145 96.5975 232.141 103.071 233.387 109.544C234.383 116.017 235.379 122.49 235.628 128.963C236.126 135.436 236.126 142.158 235.628 148.631C235.379 151.867 234.632 155.353 233.636 158.589C233.387 159.336 233.137 160.332 232.639 161.079L232.141 162.324L231.643 163.568C231.145 164.315 230.398 165.062 229.65 165.56C228.903 166.307 228.156 166.556 227.409 167.054C224.42 168.797 221.182 169.793 218.193 171.037C214.955 172.033 211.966 173.029 208.728 173.776C202.252 175.519 196.025 176.763 189.549 178.008C176.597 180.249 163.645 182.241 150.692 183.734C124.788 186.722 98.635 188.714 72.4818 188.465C66.0058 188.216 59.2806 187.967 52.8046 187.22C51.061 186.971 49.5666 186.722 47.823 186.473C46.0795 186.224 44.585 185.726 42.8414 185.228C42.0942 184.979 41.0979 184.73 40.3507 184.232L39.1053 183.734C38.6071 183.485 38.109 183.236 37.8599 182.988C37.3617 182.739 36.8636 182.49 36.6145 182.241L35.6182 181.245C34.8709 180.498 34.3728 179.751 33.8746 179.004C31.882 176.017 30.3875 172.78 29.3912 169.544C28.3949 166.307 27.3986 163.071 26.6513 159.834C25.1569 153.361 24.1606 146.888 23.1642 140.415C20.4244 126.971 19.4281 114.025 18.9299 101.079C18.6808 94.6058 18.4318 88.1328 18.1827 81.4108L17.9336 71.7012V66.722V64.2323V62.9875V62.4896V62.2406C17.9336 61.9917 17.9336 61.9917 17.9336 61.7427ZM18.4318 61.9917C18.4318 62.2406 18.6808 62.2406 18.4318 61.9917V62.4896V62.9875V64.2323L18.6808 66.722L18.9299 71.7012L19.9262 81.4108L21.6698 100.83C22.9152 113.776 24.6587 126.722 26.6513 139.419C27.6477 145.892 28.8931 152.116 30.6366 158.34C31.3838 161.328 32.3801 164.564 33.3765 167.303C34.3728 170.29 35.8672 173.029 37.3617 175.27C37.8599 175.768 38.109 176.515 38.6071 176.763L39.3543 177.51L40.1016 178.008L40.8488 178.506L41.8451 178.755C42.5924 179.004 43.0905 179.253 43.8378 179.502C45.3322 179.751 46.8267 180.249 48.3212 180.498C49.8156 180.747 51.3101 180.996 53.0537 181.245C59.2806 181.992 65.7567 182.241 72.2327 182.241C85.1848 182.49 98.1369 181.992 111.089 181.245C124.041 180.498 136.993 179.502 149.945 178.257C162.897 177.012 175.849 175.519 188.552 173.527C195.028 172.531 201.255 171.286 207.731 170.041C210.969 169.295 213.958 168.548 217.196 167.801C220.185 166.805 223.423 165.809 225.914 164.564C227.409 163.817 228.405 163.071 229.152 162.075L229.899 161.328L230.398 160.332C230.896 159.585 231.145 159.087 231.394 158.34C232.39 155.353 233.137 152.365 233.636 149.129C234.383 142.905 234.383 136.183 234.134 129.958C233.387 117.012 231.394 104.066 228.156 91.6182C226.412 85.3942 224.42 79.1701 221.929 73.195C220.684 70.2074 219.189 67.2199 217.695 64.7303C216.947 63.2365 215.951 61.9917 215.204 60.7469L214.207 59.2531C213.958 59.0041 213.709 58.7552 213.46 58.5062C212.962 58.0083 212.464 57.7593 211.717 57.5104C209.226 56.2655 205.988 55.5187 202.75 55.0207C199.512 54.5228 196.523 54.2738 193.285 54.0249C186.809 53.527 180.333 53.527 173.857 53.527C160.905 53.527 147.953 54.0249 135.001 54.5228C122.048 54.7718 109.096 55.5187 96.1442 56.5145C83.1922 57.2614 70.2401 58.2572 57.288 59.2531L37.8599 60.7469L28.1458 61.4938L23.1642 61.7427L20.6735 61.9917H19.4281H18.9299H18.4318C18.4318 62.2406 18.4318 62.2406 18.4318 61.9917Z" fill="black"/>
<path d="M71.9836 187.469C68.7456 192.199 65.2585 196.432 61.5224 200.664C59.7788 202.656 57.7862 204.896 55.7935 206.888C53.8009 208.88 51.8083 210.871 49.8157 212.863C45.8304 216.598 41.0979 220.083 37.6108 224.066C36.8636 225.062 35.6182 226.307 35.3691 227.054C35.3691 227.054 35.3691 227.552 35.8673 227.801C36.3654 228.05 36.8636 228.548 37.3617 228.797C39.8525 229.793 42.5924 230.29 45.0832 230.788C46.3286 231.037 47.823 231.037 49.0684 230.788C49.5666 230.788 50.3138 230.539 50.812 230.539C51.3101 230.539 51.5592 230.041 51.0611 230.539C52.5555 228.299 54.05 225.809 55.7935 223.568C59.0316 219.087 62.2696 214.357 65.5076 209.876C72.4818 201.162 79.7051 192.697 87.9247 184.979L88.4228 185.228C83.1922 195.187 76.9652 204.647 70.4892 213.61C67.2512 218.091 63.7641 222.324 60.0279 226.805C58.2843 229.046 56.5408 231.037 54.5481 233.278C53.0537 234.772 52.0574 234.772 51.0611 235.021C50.0647 235.021 49.3175 235.021 48.5703 235.021C47.0758 234.772 45.5813 234.523 44.0869 234.025C41.347 233.278 38.6071 232.282 36.1163 230.788C35.3691 230.29 34.8709 230.041 34.1237 229.544C33.8746 229.295 33.6256 229.046 33.1274 228.548C32.8783 228.05 32.6292 227.303 32.8783 226.805C33.6256 225.311 34.6219 224.315 35.3691 223.071C38.8562 218.589 42.0942 213.859 45.5813 209.627C47.3249 207.386 49.3175 205.394 51.3101 203.402C53.3028 201.411 55.2954 199.419 57.5371 197.676C61.7714 193.942 66.0058 190.456 70.7383 187.22L71.9836 187.469Z" fill="black"/>
<path d="M117.067 185.228C118.312 190.207 119.06 194.938 119.807 199.917C120.056 202.407 120.305 204.896 120.554 207.137C120.803 209.627 121.052 212.116 121.052 214.357C121.301 219.336 120.803 224.315 121.55 229.046C121.799 230.29 122.048 231.535 122.547 232.531C122.796 233.029 123.045 233.527 123.294 234.025C123.543 234.523 124.041 234.772 123.792 234.772C123.543 234.772 124.29 234.772 124.539 234.772C124.788 234.772 125.287 234.772 125.536 234.772C126.283 234.772 126.781 234.772 127.528 234.772C128.774 235.021 130.019 235.27 131.264 235.519C132.51 235.768 133.755 236.017 134.751 236.017C135.001 236.017 135.25 236.017 135.25 236.017H135.499C135.499 236.017 135.499 236.017 135.25 236.017C135.25 236.017 135.001 236.017 135.001 236.266C135.001 236.515 134.751 236.266 134.751 236.266L134.502 229.295C133.755 224.564 133.257 219.585 132.759 214.606C132.012 204.896 131.763 194.938 132.759 184.979H133.257C136.246 194.689 137.74 204.398 138.986 214.108C139.484 219.087 139.733 223.817 139.982 228.797C139.982 230.041 139.982 231.286 139.982 232.531V234.523V235.519C139.982 236.017 139.733 236.515 139.733 237.012C139.484 237.51 139.235 238.257 138.737 238.755C138.488 239.004 138.239 239.253 137.74 239.502C137.491 239.751 136.993 239.751 136.744 240C135.499 240.249 134.502 240 134.004 239.751C132.51 239.253 131.513 238.755 130.268 238.257C129.272 237.759 128.026 237.261 127.03 237.012C126.532 236.763 126.034 236.763 125.286 236.763C125.037 236.763 124.788 236.763 124.539 236.763C124.29 236.763 124.29 236.763 123.294 236.763C122.048 236.266 121.799 235.519 121.301 235.021C121.052 234.274 120.803 233.776 120.554 233.278C120.056 232.033 119.807 230.788 119.558 229.544C118.312 224.813 116.818 219.834 115.822 215.104C115.323 212.614 115.074 210.124 115.074 207.635C114.825 205.145 114.825 202.656 114.825 200.166C114.825 195.187 115.074 190.207 116.071 185.228H117.067Z" fill="black"/>
<path d="M171.615 184.979C175.351 187.967 178.589 191.203 181.827 194.44C185.065 197.676 188.303 201.162 191.292 204.647C194.281 208.133 196.772 212.116 199.512 215.851C202.003 219.834 204.743 223.568 207.981 226.805L207.233 226.556C210.471 226.805 213.709 226.556 216.698 225.809C218.193 225.56 219.687 225.062 220.684 224.315C221.182 224.066 221.431 223.568 221.431 223.568C221.431 223.568 221.431 223.568 221.182 223.319C220.684 222.324 219.438 221.079 218.442 219.834C217.446 218.589 216.449 217.593 215.204 216.348L208.479 209.378C203.995 204.647 199.761 199.917 195.527 194.938C191.292 189.958 187.307 184.979 183.322 179.751L183.82 179.253C189.3 182.987 194.281 186.971 199.263 191.452C204.244 195.685 208.977 200.166 213.211 205.145C215.453 207.635 217.446 210.124 219.687 212.614C220.684 213.859 221.68 215.104 222.676 216.597C223.673 218.091 224.669 219.336 225.416 221.328C225.914 222.573 226.163 224.315 225.167 225.809C224.171 227.054 223.174 227.552 222.178 228.05C220.185 228.797 218.442 228.797 216.947 228.797C213.46 228.797 210.222 228.548 206.984 228.299H206.486L206.237 228.05C203.248 224.315 200.01 221.079 196.772 217.842C193.285 214.606 190.047 211.369 187.058 207.884C184.069 204.398 181.329 200.664 178.589 196.929C175.849 193.195 173.359 189.212 171.117 185.228L171.615 184.979Z" fill="black"/>
<path d="M40.3507 145.145C39.3544 135.436 38.3581 125.477 37.3618 115.768C36.8636 110.788 36.3655 106.058 36.1164 101.079C35.8673 96.0997 35.8673 91.1204 36.1164 86.3901H37.8599C38.8562 91.3694 39.3544 96.0997 39.8525 101.079C40.1016 106.058 40.1016 111.037 40.3507 115.768C40.5998 125.726 40.8489 135.436 40.8489 145.394L40.3507 145.145Z" fill="black"/>
<path d="M41.8451 94.3569L40.5997 94.8548L36.8636 86.3901L34.3728 95.3527L32.8783 94.8548L36.6145 82.1577L41.8451 94.3569Z" fill="black"/>
<path d="M51.3101 158.838L89.4191 156.847L127.528 155.104C140.231 154.606 152.934 153.859 165.637 153.61C178.34 153.361 191.043 153.361 203.746 153.859V154.855C191.043 156.1 178.34 156.847 165.637 157.345C152.934 157.842 140.231 157.842 127.528 158.091L89.4191 158.838L51.3101 159.336V158.838Z" fill="black"/>
<path d="M195.527 159.087L195.028 157.842L203.497 154.357L194.779 151.369L195.277 150.125L207.731 154.108L195.527 159.087Z" fill="black"/>
<path d="M55.5444 154.108C60.526 146.888 66.5039 140.664 72.9799 134.689C76.218 131.701 79.7051 128.963 83.1922 126.473C86.9283 123.983 90.6645 121.743 95.1479 120.249C97.3896 119.502 99.6313 119.004 102.122 119.004C104.613 119.004 107.104 119.253 109.345 120.498C111.587 121.743 113.082 123.237 114.576 124.979C116.071 126.722 117.565 128.465 118.561 130.208C121.052 133.942 122.297 138.174 123.792 142.158C124.539 144.149 125.785 145.892 127.279 146.888C128.774 147.884 130.766 148.631 132.759 148.631C136.495 149.378 140.231 147.635 143.967 145.892C147.703 143.9 151.191 141.66 154.429 139.17C161.154 134.191 167.381 128.465 173.359 122.49C185.563 110.788 196.772 97.8424 207.233 84.1494L207.731 84.3984C204.244 92.3652 199.761 99.8341 194.53 106.805C189.549 114.025 183.82 120.498 177.842 126.971C171.615 133.195 164.89 138.921 157.667 143.651C153.93 146.141 150.194 148.382 145.96 150.125C143.718 150.871 141.726 151.618 139.235 152.116C137.989 152.365 136.993 152.365 135.748 152.365C134.502 152.365 133.257 152.116 132.261 151.867C130.019 151.369 127.777 150.373 125.785 148.88C124.041 147.137 122.796 145.145 122.048 142.905L119.807 136.681C119.059 134.689 118.063 132.946 116.818 131.203C115.572 129.461 114.078 127.967 112.583 126.722C111.089 125.477 109.096 123.983 107.602 123.486C105.858 122.739 104.115 122.739 102.122 123.237C100.129 123.486 98.3859 124.232 96.6424 124.979C89.17 128.216 82.1958 133.195 75.4707 138.174C68.7456 143.403 62.2696 148.88 55.5444 154.357V154.108Z" fill="black"/>
<path d="M111.089 50.7884C109.844 48.2987 109.345 45.5601 109.096 43.0705C108.847 40.5809 108.847 37.8423 109.345 35.3527C110.093 32.863 111.089 30.3734 112.334 27.6348C112.583 26.8879 112.833 26.39 113.331 25.6431C113.58 25.3942 113.829 24.8962 114.327 24.6473C114.576 24.6473 114.825 24.3983 115.074 24.3983H115.572H115.821C117.067 24.3983 118.063 24.1494 119.309 23.6514L121.052 22.9045C121.55 22.6556 122.048 22.4066 123.543 22.4066C124.29 22.4066 125.536 22.9045 126.034 23.6514C126.781 24.6473 126.781 24.8962 126.781 25.3942C127.03 26.1411 127.03 26.639 127.279 27.3859C127.777 29.8755 128.524 32.3651 128.524 35.1037C128.774 40.3319 128.774 45.3112 127.279 50.7884H126.781C124.29 45.8091 123.045 40.8299 122.297 35.8506C121.799 33.361 121.799 30.8713 121.799 28.3817V26.639C121.799 26.639 121.799 26.1411 122.048 26.639C122.298 27.1369 123.045 27.1369 123.045 27.1369C123.045 27.1369 122.298 26.8879 121.799 26.8879H119.807C118.312 26.8879 117.067 26.639 115.572 26.39C115.074 25.8921 114.327 27.1369 114.078 28.1328C113.58 30.3734 114.078 33.112 114.327 35.6016C114.576 38.0913 114.078 40.5809 113.829 43.0705C113.331 45.5601 112.833 48.0498 111.836 50.7884H111.089Z" fill="black"/>
<path d="M43.8377 161.079C45.7636 161.079 47.3248 159.518 47.3248 157.593C47.3248 155.668 45.7636 154.108 43.8377 154.108C41.9118 154.108 40.3506 155.668 40.3506 157.593C40.3506 159.518 41.9118 161.079 43.8377 161.079Z" fill="black"/>
<path d="M47.5739 157.593C47.5739 158.589 47.5739 159.585 47.0758 160.581C46.5776 161.577 45.3322 162.324 44.0868 162.075C42.8414 161.826 42.0942 161.079 41.347 160.332C40.5997 159.585 40.1016 158.589 39.8525 157.593C39.3543 155.353 41.347 152.863 43.8377 152.863C45.0831 152.863 46.3285 153.61 46.8267 154.606C47.5739 155.602 47.5739 156.846 47.5739 157.593ZM47.3248 157.593C47.3248 156.597 46.5776 155.851 45.8304 155.602C45.0831 155.353 44.585 155.353 43.8377 155.353C42.5923 155.353 41.596 156.1 41.0979 157.593C40.8488 158.34 41.0979 159.336 41.8451 159.834C42.5923 160.332 43.3396 160.332 44.0868 160.083C44.8341 159.834 45.3322 159.834 46.0794 159.585C46.5776 159.336 47.3248 158.589 47.3248 157.593Z" fill="black"/>
<path d="M61.5223 154.108C61.7714 155.602 61.7714 157.095 62.0205 158.589C62.0205 159.336 62.2695 160.083 62.0205 160.83C62.0205 161.577 61.7714 162.324 61.5223 163.071C61.2732 162.324 61.0242 161.577 61.0242 160.83C61.0242 160.083 61.0242 159.336 61.0242 158.589C61.0242 157.095 61.2732 155.602 61.5223 154.108Z" fill="black"/>
<path d="M78.9578 161.079C78.7088 160.332 78.2106 159.585 77.9615 158.838C77.7125 158.589 77.7125 158.091 77.4634 157.842C77.4634 157.344 77.4634 157.095 77.7125 156.597C78.2106 156.846 78.2106 157.344 78.4597 157.593C78.7088 157.842 78.4597 158.34 78.7088 158.838C78.9578 159.585 78.9578 160.332 78.9578 161.079Z" fill="black"/>
<path d="M98.635 161.328C98.635 160.083 98.635 158.838 98.635 157.593C98.635 157.095 98.635 156.349 98.635 155.851C98.8841 155.353 98.8841 154.606 99.3823 154.108C99.6313 154.855 99.6313 155.353 99.6313 155.851C99.6313 156.349 99.3823 157.095 99.3823 157.593C99.3823 158.838 99.1332 160.083 98.635 161.328Z" fill="black"/>
<path d="M115.323 154.108C115.572 154.855 115.572 155.602 115.822 156.598C115.822 157.095 116.071 157.344 115.822 157.842C115.822 158.34 115.572 158.589 115.323 159.087C115.074 158.589 114.825 158.34 114.825 157.842C114.825 157.344 114.825 157.095 114.825 156.598C114.825 155.851 115.074 155.104 115.323 154.108Z" fill="black"/>
<path d="M157.916 152.365C158.165 153.361 158.165 154.606 158.414 155.602C158.414 156.1 158.663 156.597 158.414 157.095C158.414 157.593 158.165 158.091 157.916 158.589C157.667 158.091 157.418 157.593 157.418 157.095C157.418 156.597 157.418 156.1 157.418 155.602C157.418 154.357 157.667 153.361 157.916 152.365Z" fill="black"/>
<path d="M136.744 159.336C136.246 158.34 135.748 157.593 135.25 156.597C135.001 156.1 134.751 155.851 134.751 155.353C134.751 154.855 134.502 154.357 134.751 153.859C135.25 154.108 135.499 154.606 135.748 155.104C135.997 155.602 135.997 156.1 136.246 156.597C136.495 157.344 136.744 158.34 136.744 159.336Z" fill="black"/>
<path d="M177.593 158.589C177.344 157.593 177.344 156.349 177.095 155.353C177.095 154.855 176.846 154.357 177.095 153.859C177.095 153.361 177.344 152.863 177.593 152.365C177.842 152.863 178.091 153.361 178.091 153.859C178.091 154.357 178.091 154.855 178.091 155.353C178.091 156.597 177.842 157.593 177.593 158.589Z" fill="black"/>
<path d="M38.6071 138.174C39.6034 137.925 40.3506 137.925 41.3469 137.676C41.8451 137.676 42.3432 137.427 42.5923 137.676C43.0905 137.676 43.5886 137.925 43.8377 138.174C43.3396 138.423 42.8414 138.672 42.5923 138.672C42.0942 138.672 41.596 138.672 41.3469 138.672C40.3506 138.423 39.6034 138.423 38.6071 138.174Z" fill="black"/>
<path d="M41.0979 127.718C40.3506 128.216 39.6034 128.465 39.1052 128.714C38.8562 128.963 38.358 129.212 38.1089 129.212C37.6108 129.212 37.3617 129.212 36.8635 128.963C37.1126 128.465 37.3617 128.465 37.8598 128.216C38.1089 127.967 38.6071 127.967 39.1052 127.967C39.6034 127.718 40.3506 127.469 41.0979 127.718Z" fill="black"/>
<path d="M36.8635 118.008C37.6108 118.008 38.358 118.008 39.3543 118.257C39.8525 118.257 40.1015 118.257 40.5997 118.506C40.8488 118.755 41.3469 119.004 41.596 119.253C40.8488 119.502 40.3506 119.502 40.1015 119.502C39.6034 119.502 39.3543 119.253 39.1052 119.004C38.1089 118.755 37.3617 118.506 36.8635 118.008Z" fill="black"/>
<path d="M41.0979 104.564C40.1016 105.56 38.8562 106.556 37.8599 107.303C37.3617 107.801 36.8636 108.299 36.1163 108.548C35.3691 109.295 34.8709 109.544 33.8746 109.544C34.3728 108.797 34.8709 108.299 35.3691 107.801C35.8673 107.303 36.6145 107.054 37.1127 106.556C38.358 106.058 39.8525 105.311 41.0979 104.564Z" fill="black"/>
<path d="M34.3728 98.3403C35.3691 98.0913 36.3654 98.0913 37.3617 97.8423C37.8599 97.8423 38.3581 97.5934 38.8562 97.8423C39.3544 97.8423 39.8525 98.0913 40.3507 98.3403C39.8525 98.5892 39.3544 98.8382 38.8562 98.8382C38.3581 98.8382 37.8599 98.8382 37.3617 98.8382C36.6145 98.8382 35.3691 98.5892 34.3728 98.3403Z" fill="black"/>
<path d="M187.058 103.07C188.303 100.581 190.047 98.5891 191.79 96.5974C193.534 94.6057 195.278 92.614 197.27 90.8713C199.263 89.1286 201.505 87.6348 203.746 86.141C205.988 84.6472 207.732 82.6555 209.475 80.6638L211.219 78.6721L210.97 81.4107C210.471 84.6472 210.72 87.8837 210.222 91.1202C209.724 94.3568 209.475 97.5933 208.728 100.83C207.981 104.066 207.233 107.054 206.237 110.29C205.241 113.527 203.995 116.514 202.501 119.502H202.003C201.754 116.017 202.003 112.78 202.252 109.543C202.501 106.307 202.999 103.07 203.746 99.8339C204.493 96.5974 205.241 93.6099 206.237 90.3734C206.984 87.1368 208.479 84.1493 209.475 80.9128L210.97 81.6597C208.977 83.4024 206.984 85.1451 205.49 87.3858C203.746 89.3775 202.252 91.8671 200.508 93.6099C198.765 95.6016 196.523 97.0954 194.53 98.8381C192.538 100.332 190.296 102.075 187.805 103.319L187.058 103.07Z" fill="black"/>
</g>
<defs>
<clipPath id="clip0_5_75">
<rect width="269.752" height="240" fill="white"/>
</clipPath>
</defs>
</svg>
