<svg width="540" height="365" viewBox="0 0 540 365" fill="none" xmlns="http://www.w3.org/2000/svg">
<g clip-path="url(#clip0_7_2)">
<path d="M388.161 328.904C503.767 270.753 566.797 162.647 528.941 87.4435C491.086 12.2398 366.681 -1.58385 251.075 56.5675C135.468 114.719 72.4386 222.825 110.294 298.028C148.149 373.232 272.554 387.056 388.161 328.904Z" fill="#FFBA4A"/>
<path d="M430.881 235.991C427.733 242.634 423.536 249.277 418.99 255.22C412.345 263.262 404.301 270.254 395.907 276.197C391.36 279.344 386.813 281.791 381.917 284.239C377.021 286.336 371.775 287.735 366.529 288.784C345.194 292.28 323.51 288.434 303.575 281.092C293.433 277.596 283.99 272.701 274.896 267.107C270.35 264.31 266.153 261.164 261.606 258.367L248.666 249.976C239.922 244.382 231.529 238.788 222.785 233.544C214.041 227.95 205.298 223.056 196.205 218.511C187.111 213.966 177.668 210.469 167.876 209.071C158.083 207.672 148.29 208.372 138.148 210.12C118.212 213.616 98.2772 220.259 80.4404 230.398C62.6036 240.536 46.5155 253.822 33.5751 269.555C20.6347 285.287 11.1917 304.167 5.59586 323.396L0 322.696C3.49741 299.272 6.99482 275.848 10.842 252.773V252.074L11.1917 251.375C19.5855 234.243 28.329 217.462 38.4715 201.379C48.614 185.297 59.8057 169.564 73.7953 155.929C80.7902 148.937 88.4845 142.644 96.8783 137.749C105.622 132.505 115.065 128.659 125.557 127.61C135.699 126.212 146.541 127.61 155.984 131.456C165.427 134.952 174.171 140.196 181.865 146.14C197.604 157.677 210.544 171.312 224.184 184.248C237.824 197.184 251.813 209.421 267.202 219.21C282.591 229.349 299.728 236.691 317.915 240.187C336.101 243.683 354.987 242.984 373.523 239.138L373.873 240.187C355.687 245.781 336.451 247.179 317.215 245.081C297.979 242.634 279.793 235.642 263.005 225.853C246.218 216.063 231.529 203.827 217.539 191.24C203.549 178.654 189.909 165.718 174.87 154.88C167.526 149.636 159.832 145.091 151.438 141.945C143.394 139.148 134.65 137.749 126.256 138.798C117.863 139.847 109.469 142.993 102.124 147.538C94.4301 152.083 87.4352 157.677 80.7902 163.97C67.8497 176.557 56.3083 191.59 46.1658 206.973C36.0233 222.706 26.9301 238.788 18.1865 255.57L18.5363 254.521C13.9896 277.596 9.44301 301.02 4.89637 324.095L0 322.347C3.49741 312.558 7.6943 302.768 12.9404 293.678C18.1865 284.588 24.1321 275.848 30.7772 267.807C44.4171 251.724 60.5052 238.439 78.6917 227.95C87.785 222.706 97.228 218.161 107.021 214.315C116.813 210.469 126.956 207.323 137.098 205.225C147.241 202.778 158.083 201.379 168.925 202.428C179.767 203.477 189.909 206.973 199.702 211.169C218.938 219.909 236.425 231.097 253.912 242.285L266.852 251.025C271.399 253.822 275.246 256.968 279.443 259.416C287.837 264.66 296.93 269.205 306.373 273.051C315.816 276.897 325.259 279.694 335.402 281.442C345.194 283.19 355.337 283.539 365.13 282.49C370.026 281.791 374.922 280.742 379.469 278.994C384.016 277.246 388.562 274.799 392.759 272.352C401.503 267.107 409.547 260.814 416.541 253.472C421.438 247.878 425.984 241.935 429.832 235.642L430.881 235.991Z" fill="black"/>
<path d="M517.267 121.667C517.267 152.083 505.376 182.5 484.041 204.176C473.549 215.014 460.259 223.755 446.269 230.048C432.28 235.991 416.891 238.788 401.503 238.788C386.114 238.788 370.725 235.292 356.736 229.349C342.746 223.405 329.806 214.665 318.964 203.827C308.122 192.989 299.728 180.053 293.782 166.068C287.837 152.083 284.689 136.7 284.689 121.667C284.339 91.25 296.58 60.4837 318.264 38.8075C329.106 27.9694 342.047 19.229 356.386 13.2855C370.725 7.34199 386.114 4.54505 401.503 4.19543C416.891 4.19543 432.28 7.34199 446.269 13.2855C460.259 19.229 473.2 27.9694 484.041 39.1571C505.376 61.183 517.267 91.25 517.267 121.667ZM516.917 121.667C516.917 106.633 513.769 91.5996 507.824 77.615C501.878 63.6303 493.135 51.0441 482.293 40.5556C460.609 19.5786 431.231 7.6916 401.153 7.6916C371.425 7.6916 341.697 19.9282 320.363 40.9052C309.87 51.3937 301.127 63.9799 295.181 77.9646C289.236 91.5996 286.088 106.633 286.088 121.667C285.738 151.734 297.979 181.801 319.314 203.127C340.648 224.454 370.725 236.341 400.803 235.991C430.881 235.991 460.259 223.755 481.943 202.778C492.785 192.289 501.529 179.703 507.474 165.718C513.77 152.083 516.567 137.05 516.917 121.667Z" fill="black"/>
<path d="M347.992 227.95C333.303 224.104 319.313 217.112 307.422 207.672C295.531 198.233 285.389 185.996 278.044 172.361C271.049 158.726 267.202 143.693 265.453 128.659C264.054 113.626 265.453 98.2424 269.301 83.2089C277.345 53.841 297.979 27.6198 325.259 13.2855C352.539 -1.39843 385.764 -4.19536 414.443 5.94353V6.29314C385.065 -1.39843 353.238 2.44736 327.008 16.432C314.067 23.4244 302.176 33.2136 292.383 44.751C282.94 56.2884 275.596 69.5738 270.699 83.9081C266.153 98.2424 264.404 113.626 266.153 128.659C267.902 143.693 272.798 158.027 280.142 171.312C287.487 184.248 296.93 196.135 308.471 205.924C320.712 215.014 334.003 222.706 347.992 227.95Z" fill="black"/>
<path d="M364.08 68.8746C364.08 74.1188 362.332 79.3631 358.834 83.5585C355.337 87.7539 349.741 90.2012 344.145 89.8516C338.549 89.5019 333.303 86.705 329.806 83.2088C325.959 79.3631 323.86 74.4684 323.51 68.8746C323.161 63.6303 325.259 57.6868 329.106 53.841C332.953 49.6456 338.549 47.1983 344.145 47.5479C349.741 47.5479 355.337 49.9952 358.834 54.1906C362.332 58.3861 364.08 63.9799 364.08 68.8746ZM363.731 68.8746C363.731 63.6303 360.933 58.7357 357.435 55.9387C353.588 52.7922 349.041 51.0441 344.495 51.3937C339.948 51.3937 335.052 53.1418 331.904 56.2884C328.407 59.4349 326.308 63.9799 325.959 68.8746C325.609 73.7692 327.357 79.0134 331.205 82.5096C334.702 86.0058 339.948 87.4042 344.845 87.0546C349.741 86.705 354.288 84.9569 358.135 81.8104C360.933 79.0134 363.731 74.1188 363.731 68.8746Z" fill="black"/>
<path d="M421.438 43.3525C421.438 48.2471 420.039 53.4914 416.541 57.3372C413.394 61.5326 407.798 63.6303 402.552 63.6303C397.306 63.2807 392.409 60.8333 388.912 56.9875C385.415 53.4914 383.316 48.5967 382.966 43.3525C382.617 38.1082 384.365 32.864 388.212 29.0182C391.71 25.1724 397.306 22.7251 402.552 22.7251C407.798 22.7251 413.394 25.1724 416.541 29.3678C420.039 33.2136 421.438 38.4579 421.438 43.3525ZM421.088 43.3525C421.088 38.4579 418.64 33.9128 414.793 30.7663C411.295 27.9694 406.749 26.2213 402.202 26.2213C397.655 26.2213 393.459 27.9693 389.961 31.1159C386.814 34.2625 384.715 38.4579 384.365 43.3525C384.016 47.8975 385.764 52.7921 389.262 56.2883C392.759 59.4349 397.655 61.183 402.202 60.8333C406.749 60.4837 410.946 59.0853 414.793 55.9387C418.64 53.1418 421.088 48.2471 421.088 43.3525Z" fill="black"/>
<path d="M478.795 68.1754C478.795 73.07 477.396 78.3143 473.899 82.16C470.751 86.3554 465.155 88.4531 459.909 88.4531C454.663 88.1035 449.767 85.6562 446.269 81.8104C442.772 78.3143 440.674 73.4196 440.324 68.1754C439.974 62.9311 441.723 57.6869 445.57 53.8411C449.067 49.9953 454.663 47.548 459.909 47.548C465.155 47.548 470.751 49.9953 473.899 54.1907C477.396 58.0365 478.795 63.2807 478.795 68.1754ZM478.446 68.1754C478.446 63.2807 475.997 58.7357 472.15 55.5892C468.653 52.7922 464.106 51.0441 459.56 51.0441C455.013 51.0441 450.816 52.7922 447.319 55.9388C444.171 59.0853 442.073 63.2807 441.723 68.1754C441.373 72.7204 443.122 77.615 446.619 81.1112C450.117 84.2577 455.013 86.0058 459.56 85.6562C464.106 85.3066 468.303 83.9081 472.15 80.7616C475.997 77.615 478.446 73.07 478.446 68.1754Z" fill="black"/>
<path d="M497.332 122.716C497.332 127.61 495.933 132.505 492.435 136.7C489.288 140.896 483.692 142.993 478.446 142.993C473.2 142.644 468.303 140.196 464.806 136.351C461.308 132.854 459.21 127.96 458.86 122.716C458.51 117.471 460.259 112.227 464.106 108.381C467.604 104.535 473.2 102.088 478.446 102.088C483.692 102.088 489.288 104.535 492.435 108.731C495.583 112.926 497.332 117.821 497.332 122.716ZM496.982 122.716C496.982 117.821 494.534 113.276 491.036 110.479C487.539 107.682 482.992 105.934 478.795 105.934C474.249 105.934 470.052 107.682 466.904 110.829C463.756 113.975 461.658 118.171 461.308 122.716C460.959 127.261 462.707 132.155 466.205 135.302C469.702 138.448 474.598 139.847 478.795 139.847C483.342 139.497 487.539 138.099 491.036 134.952C494.184 132.155 496.982 127.61 496.982 122.716Z" fill="black"/>
<path d="M474.598 178.305C474.598 183.549 472.85 188.793 469.352 192.989C465.855 197.184 460.259 199.631 454.663 199.282C449.067 198.932 443.821 196.135 440.324 192.639C436.477 188.793 434.378 183.898 434.029 178.305C433.679 173.06 435.777 167.117 439.624 163.271C443.472 159.076 449.067 156.628 454.663 156.978C460.259 156.978 465.855 159.425 469.352 163.621C473.199 167.816 474.598 173.06 474.598 178.305ZM474.249 178.305C474.249 173.06 471.451 168.166 467.953 165.369C464.106 162.222 459.56 160.474 455.013 160.824C450.466 160.824 445.57 162.572 442.422 165.718C438.925 168.865 436.826 173.41 436.477 178.305C436.127 183.199 437.876 188.444 441.723 191.94C445.22 195.436 450.466 196.834 455.363 196.485C460.259 196.135 464.806 194.387 468.653 191.24C471.801 188.094 474.598 183.199 474.249 178.305Z" fill="black"/>
<path d="M424.236 200.68C424.236 205.924 422.487 211.518 418.99 215.714C415.492 219.909 409.547 222.706 403.951 222.356C398.355 222.007 393.109 219.21 389.262 215.364C385.415 211.518 382.966 206.274 382.617 200.68C382.267 195.086 384.365 189.143 388.212 185.297C392.06 181.102 398.005 178.654 403.601 178.654C409.547 178.654 415.142 181.102 418.64 185.647C422.837 189.842 424.236 195.086 424.236 200.68ZM423.886 200.68C423.886 195.436 421.088 190.192 417.241 187.045C413.394 183.899 408.497 182.15 403.601 182.15C398.705 182.15 393.808 183.899 390.311 187.395C386.813 190.891 384.365 195.436 384.016 200.68C383.666 205.575 385.764 211.169 389.262 214.665C393.109 218.161 398.355 219.909 403.251 219.559C408.148 219.21 413.044 217.462 416.891 214.315C421.438 210.819 423.886 205.924 423.886 200.68Z" fill="black"/>
<path d="M368.277 180.402C368.277 185.647 366.529 190.891 363.031 195.086C359.534 199.282 353.938 201.729 348.342 201.379C342.746 201.03 337.5 198.233 334.003 194.737C330.155 190.891 328.057 185.996 327.707 180.402C327.358 175.158 329.456 169.215 333.303 165.369C337.15 161.173 342.746 158.726 348.342 159.076C353.938 159.076 359.534 161.523 363.031 165.718C366.878 169.914 368.277 175.158 368.277 180.402ZM367.927 180.402C367.927 175.158 365.13 170.264 361.632 167.467C357.785 164.32 353.238 162.572 348.692 162.922C344.145 162.922 339.249 164.67 336.101 167.816C332.604 170.963 330.505 175.508 330.155 180.402C329.806 185.297 331.554 190.541 335.402 194.037C338.899 197.534 344.145 198.932 349.041 198.582C353.938 198.233 358.484 196.485 362.332 193.338C365.479 190.192 367.927 185.297 367.927 180.402Z" fill="black"/>
<path d="M342.396 122.716C342.396 127.61 340.997 132.505 337.5 136.7C334.352 140.896 328.757 142.993 323.51 142.993C318.264 142.644 313.368 139.847 309.87 136.351C306.373 132.854 304.275 127.96 303.925 122.716C303.575 117.471 305.324 112.227 309.171 108.381C312.668 104.535 318.264 102.088 323.51 102.088C328.757 102.088 334.352 104.535 337.5 108.731C340.997 112.926 342.396 117.821 342.396 122.716ZM342.047 122.716C342.047 117.821 339.598 113.276 336.101 110.479C332.604 107.682 328.057 105.934 323.86 105.934C319.313 105.934 315.117 107.682 311.969 110.829C308.821 113.975 306.723 118.171 306.373 122.716C306.023 127.261 307.772 132.155 311.269 135.302C314.767 138.448 319.663 139.847 323.86 139.847C328.407 139.497 332.604 138.099 336.101 134.952C339.598 132.155 342.047 127.61 342.047 122.716Z" fill="black"/>
<path d="M423.536 127.61C423.536 133.903 421.438 140.196 417.241 145.091C413.044 149.986 406.399 152.783 399.754 152.783C393.109 152.433 387.163 149.286 382.966 144.741C378.42 140.196 375.972 134.253 375.622 127.96C375.272 121.667 377.72 115.024 382.267 110.129C386.814 105.235 393.459 102.438 400.104 102.438C406.749 102.438 413.394 105.235 417.591 110.479C421.788 115.024 423.536 121.317 423.536 127.61ZM423.187 127.61C423.187 121.317 420.039 115.723 415.842 111.877C411.295 108.032 405.7 105.934 400.104 105.934C394.508 105.934 388.912 108.032 384.715 112.227C380.518 116.073 378.07 121.667 377.72 127.61C377.37 133.554 379.819 139.497 384.016 143.693C388.212 147.888 394.508 149.636 400.104 149.636C405.7 149.286 411.295 147.189 415.842 143.343C420.389 139.497 423.187 133.554 423.187 127.61Z" fill="black"/>
<path d="M393.459 263.262C388.912 261.164 384.715 258.717 380.168 256.269C378.07 255.22 375.622 254.172 373.873 252.423C371.775 251.025 370.026 249.277 368.627 247.179L368.977 246.83C371.425 247.529 373.873 248.228 375.972 249.627C378.07 250.675 380.168 252.423 381.917 253.822C385.764 256.968 389.961 260.115 393.459 263.262Z" fill="black"/>
<path d="M348.342 277.246C346.593 272.701 344.845 268.156 343.096 263.611C342.396 261.164 340.997 259.066 340.648 256.619C340.298 254.171 339.948 251.724 339.948 249.277H340.298C342.047 251.375 343.096 253.472 343.795 255.92C344.845 258.367 344.845 260.814 345.544 262.912C346.593 267.457 347.642 272.352 348.342 277.246Z" fill="black"/>
<path d="M293.782 262.912C293.782 259.416 293.433 255.919 293.433 252.074C293.433 250.326 293.083 248.578 293.433 246.829C293.782 245.081 294.482 243.333 295.531 241.585H295.881C296.58 243.333 296.93 245.081 296.93 247.179C296.93 248.927 296.231 250.675 296.231 252.423C295.531 256.269 294.832 259.765 293.782 262.912Z" fill="black"/>
<path d="M256.71 237.739C257.06 235.642 257.06 233.894 257.759 231.796C258.109 230.747 257.759 229.698 258.459 228.999C259.158 228.3 259.858 227.601 260.907 226.901H261.256C261.956 228.3 261.956 228.999 261.606 230.048C261.606 231.097 260.907 231.796 260.207 232.495C259.508 234.943 258.459 236.341 256.71 237.739Z" fill="black"/>
<path d="M230.13 204.875C229.08 207.323 228.031 209.421 226.632 211.868C225.933 212.917 225.583 214.315 224.534 215.014C223.484 216.063 222.435 216.762 221.036 217.112L220.687 216.762C220.687 215.014 221.036 213.966 221.736 212.917C222.435 211.868 223.484 210.819 224.184 210.12C225.933 208.372 228.031 206.624 230.13 204.875Z" fill="black"/>
<path d="M192.008 174.109C191.658 178.654 191.308 183.199 190.959 187.395C190.609 189.492 190.959 191.94 190.259 194.037C189.56 196.135 188.86 198.233 187.461 200.33H187.111C186.412 197.883 186.412 195.785 186.762 193.338C186.762 191.24 187.811 189.143 188.161 186.695C189.21 182.85 190.609 178.305 192.008 174.109Z" fill="black"/>
<path d="M134.65 141.245C136.049 151.035 137.448 160.824 138.847 170.613C139.547 175.508 140.596 180.402 140.596 185.297C140.946 190.192 140.946 195.086 140.596 199.981H140.246C138.847 195.086 137.798 190.192 137.098 185.647C136.399 180.752 136.399 175.857 136.049 170.963C135.35 160.824 134.65 151.035 134.65 141.245Z" fill="black"/>
<path d="M83.2383 170.613C87.0855 177.256 90.9326 183.549 94.4301 190.192C96.1788 193.338 98.2772 196.485 99.6762 199.981C101.075 203.477 102.474 206.973 103.523 210.819H103.174C100.725 208.022 98.6269 204.526 96.5285 201.379C94.7798 198.233 93.3808 194.737 91.6321 191.24C89.1839 184.598 86.0363 177.605 83.2383 170.613Z" fill="black"/>
<path d="M53.1606 210.819C55.6088 213.266 57.7073 216.063 59.8057 218.511C60.8549 219.909 62.2539 220.958 62.9534 222.356C63.6529 223.755 64.3523 225.503 64.3523 227.601L64.0026 227.95C62.2539 227.251 60.8549 225.853 59.8057 224.804C58.7565 223.405 58.057 222.007 57.3575 220.259C55.9586 217.112 54.5596 214.315 53.1606 210.819Z" fill="black"/>
<path d="M28.6788 243.683C30.4275 244.732 32.1762 246.13 33.5751 247.179C34.2746 247.879 35.3238 248.228 35.6736 249.277C36.0233 250.326 36.3731 251.025 36.3731 252.424L36.0233 252.773C34.6244 252.773 33.5751 252.074 32.8756 251.724C32.1762 251.025 31.8264 249.976 31.1269 249.277C30.4275 247.179 29.3782 245.431 28.6788 243.683Z" fill="black"/>
<path d="M515.868 121.667C515.868 152.083 503.977 182.5 482.643 204.176C472.15 215.014 458.86 223.755 444.871 230.048C430.881 235.991 415.492 238.788 400.104 238.788C384.715 238.788 369.326 235.292 355.337 229.349C341.347 223.405 328.407 214.665 317.565 203.827C306.723 192.989 298.329 180.053 292.383 166.068C286.438 152.083 283.29 136.7 283.29 121.667C282.94 91.25 295.181 60.4837 316.865 38.8075C327.707 27.9694 340.648 19.229 354.987 13.2855C369.326 7.34199 384.715 4.54505 400.104 4.19543C415.492 4.19543 430.881 7.34199 444.871 13.2855C458.86 19.229 471.801 27.9694 482.643 39.1571C503.977 61.183 516.218 91.25 515.868 121.667ZM515.518 121.667C515.518 106.633 512.371 91.5996 506.425 77.615C500.479 63.6303 491.736 51.0441 480.894 40.5556C459.21 19.5786 429.832 7.6916 399.754 7.6916C370.026 7.6916 340.298 19.9282 318.964 40.9052C308.472 51.3937 299.728 63.9799 293.782 77.9646C287.837 91.5996 284.689 106.633 284.689 121.667C284.339 151.734 296.58 181.801 317.915 203.127C339.249 224.454 369.326 236.341 399.404 235.991C429.482 235.991 458.86 223.755 480.544 202.778C491.386 192.289 500.13 179.703 506.075 165.718C512.371 152.083 515.518 137.05 515.518 121.667Z" fill="black"/>
<path d="M361.632 60.4838C356.736 64.3296 352.189 68.525 348.342 73.07C346.244 75.5173 344.845 77.9646 342.746 80.4119C340.648 82.8592 338.899 84.9569 336.451 87.4043H336.101C336.801 84.2577 338.199 81.4608 339.598 78.6638C341.347 75.8669 343.446 73.7692 345.894 71.6715C350.79 66.7769 356.036 62.9311 361.632 60.4838Z" fill="black"/>
<path d="M465.155 86.0058C462.008 81.4608 458.161 76.9158 454.313 73.07C452.215 70.9723 450.117 69.5738 448.018 67.4761C445.92 65.3784 444.171 63.6303 442.422 61.183L442.772 60.8334C445.57 61.5326 448.368 63.2807 450.466 64.6792C452.915 66.4272 454.663 68.8746 456.412 70.9723C459.909 75.8669 463.057 80.7615 465.155 86.0058Z" fill="black"/>
<path d="M463.757 160.474C460.959 166.068 457.111 171.312 452.915 175.857C450.816 178.305 448.718 180.402 445.92 182.15C443.122 183.898 440.324 185.297 437.176 185.996V185.647C439.275 183.199 441.723 181.451 444.171 179.353C446.619 177.256 449.067 175.857 451.516 173.76C455.363 169.914 459.56 165.369 463.757 160.474Z" fill="black"/>
<path d="M366.878 186.695C361.282 184.248 356.036 181.102 351.14 177.256C348.692 175.158 346.244 173.41 344.495 170.963C342.746 168.515 340.997 165.718 340.298 162.572L340.648 162.222C343.096 164.32 345.194 166.418 347.293 168.515C349.391 170.613 351.14 173.06 353.238 175.158C357.435 179.354 361.982 183.199 366.878 186.695Z" fill="black"/>
<path d="M330.155 140.196C328.057 134.603 327.008 128.659 326.658 122.716C326.308 119.919 326.308 116.772 326.658 113.626C327.358 110.829 328.057 107.682 329.806 105.235H330.155C330.505 108.381 330.505 111.178 330.155 113.975C330.155 116.772 329.456 119.569 329.456 122.366C329.106 128.309 329.456 134.253 330.155 140.196Z" fill="black"/>
<path d="M385.065 192.989C391.36 194.037 397.655 194.037 403.601 193.688C406.749 193.338 409.547 192.639 412.694 192.289C415.842 191.94 418.99 191.59 422.137 191.59V191.94C419.339 193.688 416.192 194.737 413.044 195.436C409.896 196.135 406.749 196.135 403.601 196.135C397.306 196.485 391.01 195.436 385.065 192.989Z" fill="black"/>
<path d="M472.85 104.885C474.598 110.479 475.648 116.422 475.997 122.366C475.997 125.513 476.347 128.309 475.648 131.456C474.948 134.253 473.899 137.4 472.5 139.847H472.15C471.801 136.7 472.15 133.903 472.15 131.106C472.15 128.309 472.85 125.513 473.2 122.366C473.549 116.772 473.2 110.829 472.85 104.885Z" fill="black"/>
<path d="M420.738 51.3937C414.793 50.3448 408.497 49.6456 402.552 49.9952C399.404 49.9952 396.606 50.6944 393.459 50.6944C390.311 50.6944 387.513 51.044 384.365 50.6944V50.3448C387.163 48.5967 390.311 47.5479 393.459 47.1983C396.606 46.499 399.754 46.8486 402.902 47.1983C408.847 47.5479 414.793 48.9463 420.738 51.3937Z" fill="black"/>
<path d="M358.135 55.2395C352.889 59.4349 347.992 63.9799 343.795 68.8746C341.697 71.3219 339.948 74.1188 337.85 76.5661C335.751 79.0134 333.653 81.4608 331.205 83.9081H330.855C331.554 80.4119 332.953 77.615 334.702 74.4684C336.451 71.6715 338.899 69.2242 341.347 66.7769C346.593 62.2318 352.189 58.3861 358.135 55.2395Z" fill="black"/>
<path d="M446.619 54.8899C452.215 58.0364 457.461 61.5326 462.008 66.0776C464.456 68.1753 466.904 70.6227 468.653 73.07C470.402 75.8669 471.801 78.6638 472.5 81.8104H472.15C469.702 79.7127 467.604 77.2654 465.855 74.8181C463.756 72.3707 462.008 69.9234 460.259 67.4761C456.062 63.2807 451.516 59.0853 446.619 54.8899Z" fill="black"/>
<path d="M470.751 166.418C467.604 172.361 463.757 177.605 459.21 182.5C456.762 184.947 454.663 187.395 451.865 189.143C449.067 190.891 445.92 192.639 442.772 193.338V192.989C445.22 190.541 447.668 188.444 450.117 186.346C452.565 184.248 455.363 182.5 457.811 180.402C462.008 176.207 466.205 171.312 470.751 166.418Z" fill="black"/>
<path d="M363.031 193.338C357.086 190.541 351.14 187.045 346.244 182.5C343.795 180.402 340.997 178.305 338.899 175.508C336.801 172.711 335.052 169.914 334.352 166.418L334.702 166.068C337.15 168.166 339.598 170.613 341.697 173.06C343.795 175.508 345.894 177.955 347.992 180.402C352.539 185.297 357.785 189.492 363.031 193.338Z" fill="black"/>
<path d="M323.51 141.245C321.412 135.302 320.363 129.009 320.013 122.715C320.013 119.569 319.663 116.422 320.363 113.276C321.062 110.129 321.762 106.983 323.51 104.186H323.86C324.21 107.332 323.86 110.479 323.86 113.625C323.86 116.772 323.161 119.569 323.161 122.715C322.811 129.009 322.811 134.952 323.51 141.245Z" fill="black"/>
<path d="M383.666 201.03C390.311 202.079 397.306 202.428 403.951 202.079C407.448 201.729 410.596 201.03 413.744 201.03C417.241 200.68 420.389 200.331 423.886 200.331V200.68C420.738 202.428 417.591 203.477 414.093 204.526C410.596 205.225 407.098 205.225 403.601 204.876C396.956 204.876 390.311 203.477 383.666 201.03Z" fill="black"/>
<path d="M481.244 104.186C483.342 110.129 484.391 116.422 484.741 122.715C484.741 125.862 485.091 129.009 484.391 132.155C483.692 135.302 482.992 138.448 481.244 141.245H480.894C480.544 138.099 480.894 134.952 480.894 131.806C480.894 128.659 481.593 125.862 481.593 122.715C482.293 116.772 481.943 110.479 481.244 104.186Z" fill="black"/>
<path d="M383.666 44.0517C389.611 41.954 395.907 40.9052 402.202 40.5555C405.35 40.5555 408.497 40.2059 411.645 40.9052C414.793 41.6044 417.94 42.3036 420.738 44.0517V44.4013C417.591 44.7509 414.443 44.4013 411.295 44.4013C408.148 44.4013 405.35 43.7021 402.202 43.3525C396.256 43.0029 389.961 43.3525 383.666 44.0517Z" fill="black"/>
<path d="M348.692 49.9952C344.495 53.841 340.298 58.0364 336.801 62.2318C335.052 64.3295 333.653 66.7768 331.554 68.8746C329.806 70.9723 327.707 73.07 325.609 75.1677L325.259 74.818C325.959 72.0211 327.358 69.2242 328.757 66.7768C330.155 64.3295 332.604 62.2318 334.702 60.1341C338.899 56.2883 343.446 52.7922 348.692 49.9952Z" fill="black"/>
<path d="M454.313 49.9952C459.21 53.1418 463.757 56.638 467.953 60.4837C470.052 62.5814 472.15 64.3295 473.899 66.7768C475.298 69.2242 476.697 71.6715 477.396 74.818L477.047 75.1677C474.598 73.4196 472.85 71.3219 471.101 69.2242C469.352 67.1265 467.953 64.6791 466.205 62.5814C462.358 58.0364 458.51 54.1906 454.313 49.9952V50.3449V49.9952Z" fill="black"/>
<path d="M474.249 173.41C471.451 178.305 467.953 183.199 463.757 187.395C461.658 189.492 459.909 191.94 457.461 193.338C455.013 195.086 452.565 196.485 449.417 197.184L449.067 196.834C450.816 194.387 452.915 192.639 455.013 190.541C457.111 188.443 459.56 187.045 461.658 185.297C466.205 181.801 470.052 177.605 474.249 173.41Z" fill="black"/>
<path d="M355.687 198.583C350.44 196.135 345.194 192.639 340.648 189.143C338.199 187.395 335.751 185.297 334.003 182.85C332.254 180.402 330.505 177.955 329.456 174.809L329.806 174.459C332.254 176.207 334.352 178.305 336.451 180.402C338.549 182.5 340.298 184.598 342.396 186.696C346.593 191.241 351.14 195.086 355.687 198.583Z" fill="black"/>
<path d="M313.368 138.448C311.969 133.554 310.92 128.309 310.57 123.065C310.22 120.268 309.871 117.821 310.57 115.024C310.92 112.227 311.619 109.78 313.018 107.332H313.368C314.067 110.129 314.067 112.577 314.067 115.024C314.067 117.471 313.718 120.268 313.368 122.716C313.368 127.96 313.368 133.204 313.368 138.448H313.718H313.368Z" fill="black"/>
<path d="M385.764 209.42C392.06 210.12 398.005 210.12 404.301 209.42C407.448 209.071 410.246 208.372 413.394 208.372C416.541 208.022 419.339 208.022 422.837 208.372V208.721C420.039 210.469 416.891 211.518 414.093 211.868C410.946 212.567 407.798 212.217 404.65 212.217C398.005 212.217 391.71 211.518 385.764 209.42Z" fill="black"/>
<path d="M488.938 138.099C489.288 132.854 489.288 127.96 489.288 123.065C489.288 120.618 488.588 118.171 488.588 115.723C488.588 113.276 488.588 110.829 489.288 108.032H489.637C491.036 110.479 491.736 112.926 492.086 115.374C492.435 117.821 492.086 120.618 492.086 123.065C491.736 128.309 490.687 133.204 489.288 138.099H488.938Z" fill="black"/>
<path d="M415.842 33.9128C411.295 33.5632 407.098 33.5632 402.552 33.9128C400.453 33.9128 398.355 34.6121 395.907 34.2624C393.808 34.2624 391.71 33.9128 389.262 33.2136V32.864C391.36 31.4655 393.459 31.1159 395.907 30.7663C398.005 30.4167 400.453 30.7663 402.552 31.1159C407.098 31.4655 411.295 32.1647 415.842 33.5632V33.9128Z" fill="black"/>
</g>
<defs>
<clipPath id="clip0_7_2">
<rect width="540" height="365" fill="white"/>
</clipPath>
</defs>
</svg>
