<svg width="13" height="17" viewBox="0 0 13 17" fill="none" xmlns="http://www.w3.org/2000/svg">
<path d="M12.8867 13.5156C12.8867 13.8281 12.707 14.125 12.3477 14.4062C12.0039 14.6875 11.6758 14.8125 11.3633 14.7812C11.3789 15.0938 11.2148 15.3828 10.8711 15.6484C10.543 15.8984 10.2148 16.0234 9.88672 16.0234C9.51172 16.0234 9.15234 15.6094 8.80859 14.7812C8.62109 14.3281 8.48047 14.0234 8.38672 13.8672C8.30859 13.7109 7.63672 12.5703 6.37109 10.4453C5.94922 11.1016 5.53516 11.7578 5.12891 12.4141C4.66016 13.1797 4.31641 13.8672 4.09766 14.4766C4.23828 14.7266 4.30859 14.9766 4.30859 15.2266C4.30859 15.8516 3.98047 16.2031 3.32422 16.2812C3.21484 16.3438 3.07422 16.375 2.90234 16.375C2.52734 16.375 2.14453 16.2266 1.75391 15.9297C1.37891 15.6172 1.19141 15.2812 1.19141 14.9219C1.19141 14.6562 1.41797 14.2891 1.87109 13.8203C2.40234 13.2734 2.70703 12.9141 2.78516 12.7422C2.26953 12.4141 2.01172 12.0391 2.01172 11.6172C2.01172 11.3672 2.17578 11.0781 2.50391 10.75C2.95703 10.2969 3.19922 10.0391 3.23047 9.97656L4.63672 7.75C3.55859 6.10938 2.69141 4.85156 2.03516 3.97656C1.66016 3.63281 1.16016 3.07031 0.535156 2.28906C0.441406 2.11719 0.394531 1.94531 0.394531 1.77344C0.394531 1.36719 0.613281 1.03906 1.05078 0.789062C1.33203 0.367188 1.70703 0.15625 2.17578 0.15625C2.53516 0.15625 2.82422 0.3125 3.04297 0.625C3.24609 1.03125 3.56641 1.60938 4.00391 2.35938C4.58203 3.14063 5.31641 4.09375 6.20703 5.21875C6.70703 4.4375 7.34766 3.39062 8.12891 2.07812C8.26953 1.67187 8.51953 1.09375 8.87891 0.34375C8.98828 0.1875 9.13672 0.109375 9.32422 0.109375C9.63672 0.109375 9.98828 0.265625 10.3789 0.578125C10.7852 0.875 10.9883 1.17188 10.9883 1.46875C10.9883 1.59375 10.832 1.85156 10.5195 2.24219C10.207 2.63281 9.98047 2.875 9.83984 2.96875C10.4492 3.375 10.7539 3.75781 10.7539 4.11719C10.7539 4.30469 10.5508 4.60938 10.1445 5.03125C9.98828 5.20313 9.79297 5.42187 9.55859 5.6875C9.26172 6.14063 8.79297 6.8125 8.15234 7.70312C8.80859 8.53125 9.78516 9.77344 11.082 11.4297C11.5508 11.8516 12.0977 12.4141 12.7227 13.1172C12.832 13.2422 12.8867 13.375 12.8867 13.5156Z" fill="#FC7E53"/>
</svg>
